<?xml version="1.0" encoding="iso-8859-1"?>
<!-- Generator: Adobe Illustrator 19.0.0, SVG Export Plug-In . SVG Version: 6.00 Build 0)  -->
<svg version="1.1" id="Layer_1" xmlns="http://www.w3.org/2000/svg" xmlns:xlink="http://www.w3.org/1999/xlink" x="0px" y="0px"
	 viewBox="0 0 512 512" style="enable-background:new 0 0 512 512;" xml:space="preserve">
<circle style="fill:#474F59;" cx="256" cy="256" r="256"/>
<g>
	<rect x="169.125" y="187.94" style="fill:#FFFFFF;" width="285.068" height="182.933"/>
	<polygon style="fill:#FFFFFF;" points="431.689,417.161 385.424,370.889 431.689,370.889 	"/>
</g>
<g>
	<rect x="304.095" y="212.761" style="fill:#CCCBCA;" width="125.311" height="7.198"/>
	<rect x="304.095" y="230.753" style="fill:#CCCBCA;" width="125.311" height="7.221"/>
	<rect x="304.095" y="248.799" style="fill:#CCCBCA;" width="125.311" height="7.211"/>
	<rect x="193.916" y="266.802" style="fill:#CCCBCA;" width="235.454" height="7.201"/>
	<rect x="193.916" y="284.837" style="fill:#CCCBCA;" width="235.454" height="7.224"/>
	<rect x="193.916" y="302.84" style="fill:#CCCBCA;" width="235.454" height="7.234"/>
	<rect x="193.916" y="320.842" style="fill:#CCCBCA;" width="235.454" height="7.227"/>
	<rect x="193.916" y="338.878" style="fill:#CCCBCA;" width="172.693" height="7.218"/>
</g>
<path style="fill:#474F59;" d="M275.948,212.748h-9.233L249.869,256h9.259l3.577-9.837h17.282l3.759,9.837h9.52L275.948,212.748z
	 M265.391,238.883l5.847-16.05l5.943,16.05H265.391z"/>
<g>
	<rect x="0.116" y="102.631" style="fill:#F77B55;" width="238.922" height="153.369"/>
	<polygon style="fill:#F77B55;" points="19.288,295.388 58.692,256 19.288,256 	"/>
</g>
<g>
	<path style="fill:#FFFFFF;" d="M124.878,197.635h-10.567v-3.931c0-6.953,3.921-13.173,10.19-16.239
		c3.98-1.936,6.454-5.873,6.454-10.26c0-6.279-5.11-11.383-11.347-11.383c-6.27,0-11.39,5.103-11.39,11.383H97.686
		c0-12.073,9.837-21.914,21.927-21.914c12.047,0,21.877,9.84,21.877,21.914c0,8.469-4.737,16.031-12.384,19.733
		c-2.613,1.268-4.225,3.878-4.225,6.768v3.928H124.878z"/>
	<rect x="114.318" y="202.818" style="fill:#FFFFFF;" width="10.564" height="10.541"/>
</g>
<rect x="169.125" y="187.94" style="fill:#FF916E;" width="69.929" height="68.06"/>
<polygon style="fill:#F2F2F2;" points="10.504,405.907 26.683,400.982 26.683,417.161 10.504,412.233 "/>
<polygon style="fill:#CCCBCA;" points="10.504,410.241 26.683,412.071 26.683,417.161 10.504,412.233 "/>
<rect x="26.69" y="400.979" style="fill:#FFDB79;" width="189.969" height="16.179"/>
<rect x="26.69" y="412.077" style="fill:#FAB83E;" width="189.969" height="5.09"/>
<polygon style="fill:#656A73;" points="10.504,412.229 0.116,409.068 10.504,405.884 "/>
<polygon style="fill:#232E38;" points="10.504,412.229 0.116,409.068 10.504,410.241 "/>
<rect x="216.659" y="400.979" style="fill:#FFFFFF;" width="9.391" height="16.179"/>
<rect x="216.659" y="412.077" style="fill:#CCCBCA;" width="9.391" height="5.09"/>
<path style="fill:#F77B55;" d="M235.143,417.161c2.065,0,4.139-0.793,5.715-2.378c1.582-1.582,2.368-3.643,2.368-5.715l0,0
	c0-2.071-0.786-4.146-2.368-5.718c-1.579-1.579-3.65-2.368-5.715-2.368h-9.097v16.179H235.143L235.143,417.161z"/>
<path style="fill:#EE643C;" d="M240.858,403.347c-0.918-0.915-2.012-1.539-3.158-1.916c0.268,0.823,0.443,1.685,0.443,2.543
	c0,2.078-0.786,4.155-2.378,5.728c-1.579,1.576-3.647,2.368-5.708,2.368h-4.013v5.09h9.097c2.065,0,4.139-0.793,5.715-2.378
	c1.582-1.582,2.368-3.643,2.368-5.715C243.226,406.997,242.44,404.923,240.858,403.347z"/>
<g>
</g>
<g>
</g>
<g>
</g>
<g>
</g>
<g>
</g>
<g>
</g>
<g>
</g>
<g>
</g>
<g>
</g>
<g>
</g>
<g>
</g>
<g>
</g>
<g>
</g>
<g>
</g>
<g>
</g>
</svg>
