<?xml version="1.0" encoding="iso-8859-1"?>
<!-- Generator: Adobe Illustrator 19.0.0, SVG Export Plug-In . SVG Version: 6.00 Build 0)  -->
<svg version="1.1" id="Layer_1" xmlns="http://www.w3.org/2000/svg" xmlns:xlink="http://www.w3.org/1999/xlink" x="0px" y="0px"
	 viewBox="0 0 512 512" style="enable-background:new 0 0 512 512;" xml:space="preserve">
<circle style="fill:#FFDB79;" cx="256" cy="256" r="256"/>
<path style="fill:#353F49;" d="M460.338,128.852c-2.676-2.715-6.21-4.007-9.758-4.007H61.414c-3.505,0-7.049,1.292-9.758,4.007
	c-2.659,2.705-4.007,6.217-4.007,9.801v240.475h416.702V138.653C464.351,135.069,463.053,131.558,460.338,128.852z"/>
<path style="fill:#474F59;" d="M261.85,135.412c0,3.264-2.623,5.886-5.837,5.886c-3.254,0-5.88-2.623-5.88-5.886
	c0-3.234,2.626-5.787,5.88-5.787C259.231,129.625,261.85,132.179,261.85,135.412z"/>
<g>
	<path style="fill:#FFFFFF;" d="M258.53,135.412c0,1.42-1.179,2.53-2.514,2.53c-1.364,0-2.547-1.11-2.547-2.53
		c0-1.325,1.183-2.444,2.547-2.444C257.348,132.968,258.53,134.088,258.53,135.412z"/>
	<rect x="69.335" y="146.036" style="fill:#FFFFFF;" width="373.331" height="233.109"/>
</g>
<path style="fill:#353F49;" d="M343.238,262.573c0,48.178-39.034,87.212-87.218,87.212c-48.187,0-87.245-39.034-87.245-87.212
	c0-48.184,39.057-87.218,87.245-87.218C304.204,175.355,343.238,214.389,343.238,262.573z"/>
<path style="fill:#FFFFFF;" d="M235.586,335.512c0.344,0.076,1.311-0.271,1.582-0.344c-0.671-0.515-2.074-0.562-2.894-1.074
	c0.086,0.02-2.613-1.605-2.038-0.251c0.122,0.304,0.641,0.033,0.865,0.208c-0.311,0.476-0.479,0.344-0.083,0.552
	c0-0.007-2.989-1.642,0.01-1.724c-2.091-1.913,0.126-1.338-0.532-2.51c-0.453-0.763,1.751-1.543,0.571-2.266
	c-0.568-0.297-1.176-0.238-1.79-0.651c-0.786-0.595-0.053-1.652,0.737-1.566c0.066,0,0.482-1.85,0.611-2.187
	c-0.192-0.066-1.744-1.972-1.397-2.378c0.479-0.489,2.471,1.229,2.976-0.02c0.205-0.479-0.72-1.695-0.621-2.203
	c0.902-0.083,6.841,0.119,5.85-2.626c-0.34-0.905-2.887-2.342-2.616-3.112c0.902,0.145,2.335,1.381,3.244,0.862
	c0.786-0.357,1.391,0.462,2.193-0.459c0.122-0.149,1.457-1.533,1.083-1.83c-0.426-0.007-0.611,0.258-0.677,0.671
	c-0.449-0.621,0.373-1.07,0.773-1.506c0.129,0.155,0.215,0.268,0.291,0.383c0.509-0.733,3.267-4.35,3.343-4.423
	c1.407-1.642,0.258-3.855,1.658-5.133c1.285-1.169,2.679-1.949,4.278-2.636c0.453-0.159,2.233-1.11,2.573-0.974
	c2.95,0.885,2.573-2.58,4.43-4.172c1.893-1.592,0.502-9.652,2.022-10.253c0.829-0.344,3.336-3.419,4.621-4.796
	c1.235-1.325,1.397-3.102,0.922-4.813c-0.76-2.57-1.48-1.116-3.386-2.243c-1.486-0.875-2.679-2.735-4.519-2.93
	c-1.1-0.155-2.24,0.142-3.336-0.149c-0.472-0.182-1.747-0.928-2.193-0.291c0.076-0.089-1.017,0.439-0.955,0.459
	c-0.102-0.069-0.02-1.467-0.363-1.761c-0.565-0.548-2.517-1.083-3.244-1.308c-1.589-0.373-2.008,1.526-2.405-0.763
	c-1.351-0.396-2.686-1.909-2.451-2.309c0.109-0.152-2.111-4.846-2.411-4.4c-0.02-1.576-4.846-3.498-6.101-2.758
	c-1.107,0.819-3.131-0.72-3.838-1.477c-0.74-0.799-0.72-1.718-2.025-2.256c-0.552-0.201-1.48-0.089-1.295-1.057
	c0.231-0.971-2.362-1.189-2.613-2.124c0.35,0.053,0.657-0.182,1.044-0.244c-1.037,0.367-2.259-0.41-3.27,0.439
	c-1.447,1.196-2.309-0.548-3.918-0.228c-2.012,0.35-0.684-0.357-1.936-1.186c0.529,0.35-2.385-1.292-1.685-1.245
	c-0.601-0.053,0.076,1.021-0.578,1.212c-1.054,0.41-1.959,0.631-1.292,1.942c1.153,2.299-2.438,1.206-0.756-0.37
	c0.297-0.251,0.413-3.3,0.737-3.194c-0.439-0.132-3.68,2.005-4.076,2.458c-1.021-1.685-2.821,4.139-3.412,4.175
	c-0.291-1.397-1.658-2.002-2.834-2.421c-1.034-0.406-2.065,2.035-3.359,0.687c-2.382-2.355-1.341-6.21-0.149-8.955
	c0.509-1.229-4.373-1.628-4.955-1.133c-1.186,0.981,0.195-1.959,0.195-1.886c0.109-1.189,0.38-2.002,0.908-1.992
	c0.32-0.694,2.14-3.931,1.939-4.357c-0.707-1.688-3.766,1.364-4.056,2.094c-0.344,0.72-0.932,1.156-1.206,1.81
	c-0.291,0.651-0.859-0.139-1.348,0.149c-1.298,0.74-3.194,0.34-2.904-1.572c0.294-2.349-0.578-6.917,1.998-8.506
	c0.793-0.443,0.945-2.785,1.853-3.567c0.102-0.096,2.735-1.615,2.477-1.962c0.373,0.429,2.458-0.373,2.722,0.149
	c0.175,0.413,1.414,0.882,1.813,0.674c-0.013,0.04,0.228-1.037,0.228-1.05c-0.036-0.007-0.846-0.092-0.816-0.396
	c0.076-0.324,2.547-0.119,2.656-0.106c1.163,0.086,2.015,1.077,2.88,0.489c1.348-0.938,0.522,5.074,1.064,5.622
	c0.291,0.34,0.069,1.047,0.624,1.004c0.78-0.083,1.034-7.779,3.006-9.391c1.437-1.143,3.026-2.223,4.651-3.108
	c0.472-0.231,1.807-0.865,2.084-1.371c-0.046-0.304-0.301-0.555-0.575-0.33c-0.073-0.469,0.737-0.149,0.865-0.651
	c0.162-0.505-0.4-0.641-0.344-0.823c-0.023,0.046,0.502-1.004,0.317-0.872c0.026,0.033,0.026,0.069,0.03,0.089
	c0.796,0.155-0.149-0.713-0.228-0.856c1.06,0.548,0.638-1.126,1.642-1.219c-0.707,0.281-0.588,1.123-0.466,1.582
	c0.185,1.1,1.169-1.473,1.027-1.371c1.004-0.426,2.507-1.225,3.567-1.995c-0.254-0.096-0.519,0.069-0.806-0.116
	c1.083-0.406,2.306-0.231,3.307-0.763c-0.043-1.103,0.598-2.216,1.837-2.468c1.873-0.258,4.027-1.391,5.9-2.018
	c-0.277,0.647,0.175,0.145,0.644,0.344c-0.595-1.582-3.911,2.95-2.319,2.035c1.328-0.75,5.81-1.486,6.398-2.752
	c-0.013-0.079-0.284-0.945-0.281-0.945c-1.107,0-1.186,1.374-2.54,1.361c-2.477-0.02-1.004-1.539-1.523-2.223
	c-0.419,0.102-0.773-0.013-1.07-0.367c0.211-0.033,3.26-0.75,1.685-1.12c-2.633-0.562-4.36,2.349-6.517,2.276
	c1.612-1.001,3.795-3.039,5.734-3.33c2.061-0.268,4.965,0.697,6.772-0.558c1.625-1.113,2.732-0.277,3.647-2.15
	c0.277-0.495-1.186-1.12-1.543-1.176c0.135-0.175,0.495,0,0.601-0.277c-2.458-1.113-2.97-2.193-3.26-5.018
	c-1.232,0.879-5.401,2.841-3.174-0.324c-0.803-0.377-3.336-2.444-4.321-1.011c-0.429,0.631-1.153,1.731-1.916,2.101
	c-1.655,0.737-0.149,0.595-0.71,1.721c-0.965,1.8-3.221,1.589-4.304,3.198c-0.654,1.004-0.872,1.701-1.932,2.17
	c-0.905,0.37-1.249-0.73-0.829-1.543c0.36,0.373,0.657,0.42,0.922,0.126c0.066-0.403-0.495-0.165-0.684-0.32
	c0.304-0.575,0.737-1.08,1.176-1.566c-0.135-0.086-2.501-0.466-2.398-1.06c0.135-1.282-1.486-0.585-1.767-0.988
	c1.272-1.599,1.272-2.316,3.736-3.548c0.839-0.416,5.556-2.804,6.418-2.213c-0.089,0.529-0.677,0.386-1.021,0.697
	c0.694,0.149,2.672,0.386,3.316-0.066c-0.122-0.129-0.918-1.48-0.529-1.751c-0.053,0.059,1.354,0.02,1.483-0.007
	c0.73-0.235,1.559-0.307,2.012-1.034c0.357-0.694,2.851-1.576,3.432-1.222c3.267,1.833-4.413,3.752-4.476,3.554
	c0.168,0.552,2.216-0.383,2.742,1.054c0.145,0.373,2.491,1.126,2.728,0.756c0.109-0.149-0.704-0.971-0.73-1.209
	c2.477,1.176,2.352,0.571,1.926-1.087c-0.37-1.582,1.43,0.092,1.566,0.132c0.396,0.261,2.058-0.72,2.309-1.034
	c-0.595-0.479-1.648-0.472-2.167-1.034c-0.469-0.472,1.301-0.604,0.684-1.113c-0.756-0.614-1.939-0.479-1.529-1.648
	c-0.42-0.175-0.846-0.129-1.212,0.129c0.096,0.205,0.35,0.046,0.472,0.165c-0.439,0.258-0.912,0.327-1.348,0.314
	c0.122-0.254,0.575-0.254,0.581-0.621c-1.298-0.205-1.956,0.621-3.065,0.918c0.311-0.426,0.846-0.601,1.209-0.905
	c-1.189,0.135-2.359,0.608-3.33,1.377c0.159,0.102,0.271,0.284,0.403,0.462c-0.961,0.826-2.19,1.077-3.283,1.582
	c0.162-0.733,0.958-0.545,1.225-1.093c-0.393,0-0.806,0.066-1.143,0.218c0.476-0.053,1.843-1.417,2.154-1.764
	c-1.975-0.218-2.818,2.332-4.697,1.992c0.37-0.446,1.176-0.244,1.44-0.935c-0.671,0.066-3.32,1.82-3.729,0.935
	c-0.017-0.066,4.793-1.992,5.312-2.672c-0.317-0.026-0.717,0.261-1.017-0.089c0.244-0.291,0.621-0.304,0.935-0.568
	c-1.595-0.013-6.312,1.886-5.956,2.973c-0.604,0.515-1.245,0.624-2.002,0.344c0.287-0.439,1.331-0.453,0.499-1.12
	c-1.549,0.568-3.013,1.189-4.473,1.827c-3.435,1.5-6.768,3.287-9.916,5.196c-5.219,3.237-9.51,7.052-13.834,11.403
	c-2.283,2.309-11.026,12.463-11,14.59c0.059,1.582-0.885,2.956-1.463,4.373c-0.489,1.163-0.529,2.781-1.107,3.852
	c-1.242,2.236-0.664,4.872-1.239,7.436c0.69-0.552,2.203-12.394,3.458-11.935c0.258,0.069-0.796,4.928-1.067,5.523
	c-1.087,2.458,0.367,5.546-0.353,8.1c-0.069,0.301-0.453,1.582-0.459,1.886c-1.183,0.882,0.347,2.279,0.304,3.283
	c0,0.618,3.085,3.31,3.683,3.63c1.259,0.786,1.523-0.611,2.679-0.32c1.067,0.208,1.361,2.134,1.922,2.937
	c0.756,1.12,3.614,0.991,4.116,1.533c0.317,0.357,0.053,2.543,1.361,2.89c-0.007-0.142-0.033-0.948,0.162-1.037
	c0.38-0.235,1.219,1.199,0.941,1.5c-0.433,0.089-0.793-0.069-1.103-0.462c0,0.182-0.221,3.026,0.621,2.464
	c0.01-0.145,0.053-0.324,0.099-0.535c1.06,0.482,0.991,2.101,1.774,2.352c1.064,0.251,1.873,1.648,2.686,1.979
	c0.694,0.39,0.482-2.491,1.847-2.603c1.103-0.149,1.747,2.699,2.124,3.452c0.571,1.017-0.78,3.425-0.017,4.182
	c0.763,0.816-1.899,2.712-2.008,3.554c-0.122,0.614-1.47,1.206-1.391,1.417c0.086,0.657-0.301,1.582-0.538,2.223
	c-0.697,1.761-0.367,1.985,0.819,2.758c0.026,0.02-2.16,4.383-0.922,5.5c2.018,1.628,4.615,5.625,5.242,8.205
	c1.308,3.462,3.287,5.592,6.603,7.317c2.709,1.437,4.618,3.842,4.618,7.082c0.089,1.886-0.195,4.321,0.618,6.094
	c0.565,1.239-0.512,3.3,0.301,4.42c0.515,0.72-0.185,1.113,0.122,1.784c0.35,0.677,1.054,1.84,1.044,2.686
	c-0.02,1.344-0.007,2.973,0.109,4.35c0.023,0.426-0.429,1.255-0.178,1.493c0.311,0.406,2.15,4.932,2.15,6.289
	c-0.003,0.284,1.414-0.159,0.116-1.417c1.549-0.823,1.245,2.732,1.335,2.752c-1.377-0.466-0.495-0.066-0.37,1.671
	c0.069,1.06-0.268,0.548,0.585,0.723c1.308,0.34,0,1.232,0.479,1.972c1.027,1.46,2.59,2.811,3.657,3.924
	C230.555,335.337,233.545,335.086,235.586,335.512C235.887,335.578,235.219,335.393,235.586,335.512z M241.258,193.288
	c-0.456,0.446-0.974,0.522-1.519,0.72C240.105,193.42,240.683,193.526,241.258,193.288z M236.736,192.945
	c0.337-0.04,0.621,0.059,0.813,0.264c0.003,0.172-1.86,0.261-2.141,0.694C235.652,193.107,236.349,193.229,236.736,192.945
	C236.93,193.169,236.349,193.229,236.736,192.945z M232.184,196.172C232.56,196.255,231.609,196.056,232.184,196.172
	C232.197,196.185,232.052,196.119,232.184,196.172z M229.673,191.392c0.139-0.202,0.301-0.168,0.377,0.076
	C229.858,191.647,229.749,191.62,229.673,191.392C229.69,191.28,229.657,191.491,229.673,191.392z M227.179,198.795
	C226.456,198.762,227.896,198.838,227.179,198.795C227.051,198.795,227.265,198.815,227.179,198.795z M227.896,195.931
	c-2.401,2.273-0.548,0.026-1.235,0.766c0.023,0.04,0,0.066-0.023,0.069C226.433,196.519,227.847,195.951,227.896,195.931
	C227.586,196.248,227.493,196.01,227.896,195.931z M227.014,193.235c-0.462,0.509-0.462,0.509-1.06,0.413
	C226.264,193.447,226.717,193.546,227.014,193.235z M237.845,184.713c-0.129,0.007-0.311,0.007-0.562,0.007
	C238.07,184.062,237.921,184.713,237.845,184.713C237.717,184.72,237.984,184.713,237.845,184.713z M239.586,183.537
	c-0.225,0.258-0.634,0.102-0.961,0.231C238.969,183.121,239.025,183.114,239.586,183.537z M229.776,184.32
	c0.211-0.162,0.472-0.258,0.743-0.231C230.717,184.393,228.999,184.621,229.776,184.32
	C229.858,184.158,229.703,184.356,229.776,184.32z M229.317,183.798c0.281,0.202,0.258,0.304-0.059,0.42
	C229.006,184.099,229.046,183.996,229.317,183.798C229.445,183.798,229.208,183.815,229.317,183.798z M216.639,205.513
	c0.016-0.007-3.822,1.539-3.528,0.581c-0.083,0.314,1.315-1.09,1.031-0.941c0.307-0.155,2.857-0.274,3.624-0.271
	C217.349,205.276,216.989,205.391,216.639,205.513C215.79,205.857,216.989,205.391,216.639,205.513z M219.691,203.644
	c3.141,0.337-1.889,1.249-2.425,0.671C218,203.717,218.822,203.555,219.691,203.644
	C219.949,203.664,218.822,203.555,219.691,203.644z M219.169,184.029c0.832-0.548,1.734-0.948,2.837-1.242
	c-0.809,0.707-1.896,0.965-2.857,1.255L219.169,184.029z M219.314,201.057c-0.119,0.162-0.284,0.162-0.377-0.007
	C219.136,200.975,219.291,200.935,219.314,201.057C219.42,201.219,219.291,200.935,219.314,201.057z M218.399,202.98
	C218.343,202.98,218.089,202.904,218.399,202.98C218.413,202.98,218.314,202.93,218.399,202.98z M217.481,201.361
	c1.146,0.545,0.469,2.302-0.499,0.918c-0.033,0.826-1.457,2.226-2.246,2.408c0.304-0.373,0.38-0.684,0.304-1.083
	c-0.258-0.195-0.75,0.373-1.014,0.367c0.135,0.429,2.091-3.412,0.439-2.246c-0.585,0.41-4.562,4.638-4.76,4.377
	c-0.393-0.347,1.734-3.452,1.863-3.561C212.929,201.434,215.79,200.522,217.481,201.361z M215.281,186.642
	c0.145-0.076,1.437-0.829,1.609-0.657c0.38,0.515-2.065,1.116-2.174,1.136C214.845,186.827,215.076,186.791,215.281,186.642
	C215.704,186.424,215.076,186.791,215.281,186.642z M215.552,196.981c-0.007,0.053-0.509,1.037-0.816,0.631
	C214.498,197.368,215.443,196.519,215.552,196.981C215.522,197.189,215.529,196.859,215.552,196.981z M212.781,189.047
	c0.129,0,2.203-1.341,2.259-0.816C215.053,188.452,212.543,189.083,212.781,189.047z M212.216,191.148
	c-0.149,0.238-0.241,0.33-0.532,0.324C211.77,191.237,211.975,191.22,212.216,191.148z M210.795,196.056
	c0.281-0.192,0.932-1.275,0.618-1.721c0.155,0.264-1.255-0.126-0.588-0.347c0.271-0.129,1.84-0.965,2.104-0.747
	c0.482,0.489-1.989,3.118-2.497,3.29C210.511,196.281,210.637,196.185,210.795,196.056
	C211.188,195.785,210.637,196.185,210.795,196.056z M212.193,199.307c1.754-0.565,2.382-1.572,3.452-0.182
	c0.416,0.489,0.324,1.79-0.608,1.5c0.258,0.069-2.857-0.231-2.283-0.555c-0.651,0.373-1.86,0.644-2.606,0.324
	C210.842,200.033,211.449,199.584,212.193,199.307C212.612,199.198,211.449,199.584,212.193,199.307z M209.725,196.03
	c0.139,0.429,0.043,0.671-0.456,0.743C209.474,196.459,209.586,196.248,209.725,196.03z M184.697,234.133
	C183.884,234.11,185.311,234.11,184.697,234.133C184.568,234.133,184.769,234.133,184.697,234.133z M194.781,241.383
	C194.553,241.449,195.406,241.225,194.781,241.383C194.752,241.39,194.884,241.367,194.781,241.383z M219.456,249.542
	C219.01,249.47,219.958,249.575,219.456,249.542C219.427,249.542,219.503,249.549,219.456,249.542z M223.467,321.82
	C222.789,321.711,223.876,321.272,223.467,321.82C223.321,321.807,223.476,321.807,223.467,321.82z M225.283,285.666
	C225.029,285.385,225.425,285.792,225.283,285.666C225.263,285.643,225.33,285.713,225.283,285.666z M225.571,308.158
	C225.102,308.369,226.066,308.019,225.571,308.158C225.432,308.191,225.62,308.138,225.571,308.158z M227.932,332.463
	c-0.32-0.172-0.32-0.281-0.023-0.377C228.289,332.255,228.296,332.394,227.932,332.463
	C227.81,332.447,228.051,332.489,227.932,332.463z M231.087,333.844c-0.32-0.102-0.294-0.201,0.086-0.367
	C231.45,333.56,231.434,333.685,231.087,333.844C230.938,333.844,231.166,333.774,231.087,333.844z M224.424,324.839
	c-0.023,0.026-0.099,0.04-0.126,0.043C224.424,324.813,224.438,324.8,224.424,324.839z M232.24,179.702c0,0-0.007,0-0.01,0
	c0.003,0,0.003-0.007,0.003-0.007L232.24,179.702z M202.59,193.721c0,0.013-0.007,0.013-0.007,0.013L202.59,193.721z
	 M203.423,193.054L203.423,193.054L203.423,193.054z M341.814,246.956l0.007,0.013c-1.698-6.289-2.966-12.49-5.586-18.574
	c-3.092-7.241-7.145-14.105-12.05-20.229c-4.641-5.754-9.989-11.023-15.928-15.466c-2.904-2.17-5.923-4.093-9.064-5.893
	c-1.48-0.862-3.032-1.671-4.572-2.471c-0.684-0.287-3.039-0.898-3.429-1.49c0.033,0.261,1.401,0.918,1.586,1.153
	c-0.922-0.271-3.363-1.318-3.386-1.453c0.046-0.089,0.231,0,0.211-0.182c-1.361-0.885-6.514-2.761-7.551-1.384
	c0.218-0.271,3.541,3.584,3.62,4.274c0.235,1.486,2.593,3.042,4.053,3.541c2.101,0.733,0.535-0.208,1.401-0.69
	c0.581-0.271,1.103,0.951,1.648,0.644c-0.013-0.013,0-0.02,0.007-0.04c-0.159-0.244-0.324-0.562-0.502-0.819
	c-0.126,0,3.799,4.043,4.291,3.115c-0.479-1.107-1.173-2.335-2.279-3.366c-0.981-0.902-2.553-1.014-3.617-1.913
	c-0.542-0.453-2.52-1.959-2.725-2.603c2.623,0.079,5.662,5.642,8.275,3.472c-0.337-0.208-0.697-0.529-1.041-0.776
	c0.479,0.139,2.686,0.809,1.959,1.771c-2.114-0.4,1.761,1.744,1.807,1.998c-0.37-0.02-0.621-0.344-0.984-0.37
	c0.155,0.714,2.223,1.506,2.382,2.745c-1.255,0.159-0.707-0.753-1.519,0.228c-0.268,0.357-1.384,0.268-1.985,0.301
	c-1.447,0.102-3.046-2.335-4.109-3.102c0.436,1.387,1.192,2.041,2.725,2.999c0.71,0.377-1.034,0.621-1.017,1.225
	c0.04,0,0.489,0.188,0.479,0.344c0,0.066-0.433-0.301-0.479-0.344c0.122-0.069-0.274,2.388-0.307,2.342
	c1.206,1.41-1.569,1.011-1.612,1.041c0.208,0.337,0.638,0.482,0.747,0.941c-0.816,0.059-1.486-0.089-2.246,0.188
	c1.136,0.344,7.376,3.237,6.022,5.427c-0.426,0.69-4.691-0.162-5.447-0.188c-1.642-0.172-0.122,1.519-0.089,1.738
	c0.261,1.249,1.239,1.797,1.169,3.224c-0.092,1.027,0.971,1.057,1.272,1.949c0.301,0.727,0.135,0.776,0.922,0.938
	c1.364,0.175,1.42-0.04,2.6,0.846c0.842,0.628,1.143-0.601,2.15-0.631c2.491-0.092,0.373-0.611,1.539-0.965
	c1.5-0.367-0.383-2.666-0.304-3.128c0.102-0.601-0.079-1.315,0.723-1.496c1.245-0.363-0.353-1.665-0.439-2.038
	c-0.231-1.031,3.472,0.922,3.013-1.714c2.154,0.651,4.357,2.623,6.342,3.746c1.14,0.671,2.292,1.321,3.155,2.405
	c1.004,1.351-1.453,0.839-1.609,1.169c-0.149,0.426,2.17,1.493,2.547,1.473c0.04-0.221-0.301-1.586-0.324-1.787
	c-0.126-0.955-1.46-1.893-1.338-2.603c0.4,0.04,0.786,0.225,1.126,0.479c-1.259-1.559-3.277-1.688-4.687-2.821
	c-0.862-0.69-1.942-1.259-2.775-2.022c-0.007-0.007-1.546-1.883-0.476-1.566c1.665,0.624,3.482,2.302,5.17,3.161
	c1.371,0.687,1.685,1.159,2.662,2.283c0.433,0.482,2.501,2.91,2.95,2.996c-0.013-0.043,1.691,1.46,2.375,1.714
	c-0.314-0.677-0.568-1.566-0.925-2.127c-0.469-0.747-2.401-1.169-2.401-2.322c0.439,0.053,0.502-0.416,1.437-0.383
	c-0.496-0.026,0.614-0.753,0.548-0.628c-1.823-1.041-4.255-4.043-4.912-6.091c0.496,0.02,0.783,0.661,1.338,0.353
	c-0.215-0.353-0.241-0.756-0.215-1.097c0.149,0.162,1.876,1.615,1.513,1.889c-0.472-0.007-0.859-0.208-1.219-0.581
	c0.238,0.836,1.1,0.895,1.453,1.486c0.053-0.258-0.112-0.426,0.102-0.73c1.467,0.664,4.539,3.032,4.932,4.72
	c-0.651,0.046-1.926-1.397-2.362-1.024c-0.152,0.36-0.139,0.69,0.083,1.031c-0.228,0.013-0.38,0.04-0.555,0.119
	c0.248,0.178,0.357,0.456,0.41,0.714c-0.241,0.135-0.486,0.201-0.733,0.271c0.208,0.803,4.628,5.054,4.945,4.611
	c0.079-0.139-0.188-0.578-0.122-0.634c0.215-0.258,0.918,0.955,1.295,0.694c0.297-0.178-0.284-0.575,0.026-0.714
	c0.677-0.36,3.31,4.849,3.65,5.473c1.285,2.388,0.429,0.938-0.535,1.252c-0.142,0.274-0.258,0.515-0.284,0.799
	c-1.536-0.347-3.234-1.282-4.489-2.134c-1.989-1.463,0.664,3.918-0.529,3.264c-0.651-0.393-1.077-0.965-1.903-1.034
	c-1.226-0.175-1.556-1.453-2.669-1.843c-0.935-0.274-4.535-0.624-4.06-2.283c0.36-1.394-1.437-2.55-2.028-3.092
	c-0.324-0.301-4.34,0.228-4.975,0.383c-1.097,0.386-2.844,0.77-3.472,1.81c-1.041,1.886-3.505-0.611-4.486-0.251
	c-0.515,0.251-0.013,1.777-0.294,2.273c-0.383,0.789-1.368,0.856-1.632,1.711c-0.413,1.622,0.839,2.993,0.264,4.519
	c-0.446,1.192-2.761,1.695-2.795,2.633c-0.013,0.548-0.129,1.133-0.621,1.447c-1.034,0.595,0.046,1.932-0.614,2.672
	c-3.548,3.601,1.13,7.109,0.344,11.099c-0.479,2.243-0.72,2.719,0.238,4.634c0.241,0.509,0.066,3.98,1.83,2.577
	c0.201,2.005,2.844,2.438,3.297,4.39c0.562,2.283,2.808,3.237,4.565,4.667c0.694,0.529,1.275,1.242,2.104,1.665
	c1.447,0.697,2.392-0.416,3.762-0.77c1.255-0.37,2.537-0.251,3.69,0.311c0.687,0.324,5.705-3.264,7.069-2.6
	c0.984,0.515,1.034,1.764,1.48,2.619c0.661,1.176,2.025-0.426,2.98,0.026c1.642,0.75,2.117,6.709,0.71,7.815
	c-1.027,0.796,1.354,4.079,1.648,4.75c0.965,1.827,1.8,5.067,1.526,7.132c-0.244,1.661,0.198,4.281-0.73,5.754
	c-0.945,1.506-1.493,3.059-2.276,4.73c-1.965,4.251-0.076,9.104-1.761,13.547c-1.041,2.266-0.869,4.677-1.424,7.069
	c-0.37,1.553-2.223,3.776-1.493,5.312c1.103-0.955,2.775-0.832,4.04-1.46c2.577-1.318,3.802-4.251,5.668-6.266
	c1.011-1.064,1.632-2.362,2.226-3.637c0.575-1.222,1.721-2.038,2.256-3.237c1.308-3.072,2.484-6.078,3.802-9.11
	c2.778-6.597,3.247-12.935,4.198-19.932C343.199,261.45,343.225,254.368,341.814,246.956z M335.218,229.644
	c-0.34-0.918-4.981-7.7-4.446-8.113c0.641-0.35,10.547,17.207,9.484,19.938C338.756,237.485,336.936,233.571,335.218,229.644
	C335.208,229.591,335.565,230.4,335.218,229.644z M339.476,260.75c-0.162-0.489,0.083-0.941,0.201-1.503
	C339.909,259.825,339.575,260.278,339.476,260.75z M338.954,263.518c-0.02-0.34-0.026-0.542,0.175-0.809
	C339.291,263.039,339.136,263.214,338.954,263.518z M337.306,286.049c-0.152,0.102-0.34,0.162-0.509,0.231
	c-0.327,0,0.575-0.472,0.621-0.489C337.372,285.937,337.372,285.99,337.306,286.049C337.187,286.287,337.372,285.99,337.306,286.049
	z M337.57,276.909c-0.02-0.849,0.046-0.912,0.852-1.381C338.273,276.113,337.682,276.368,337.57,276.909z M338.511,272.619
	c-0.026-1.493-0.053-3.343,0.287-4.78c0.053,2.563,0.155,5.203,0.076,7.812C338.482,275.103,338.511,273.312,338.511,272.619
	C338.495,272.064,338.511,273.144,338.511,272.619z M339.889,277.511c-0.03,1.443-0.244,5.203-1.136,6.273
	c0.069-2.326,0.922-4.499,0.974-6.828C339.935,277.157,339.889,277.395,339.889,277.511
	C339.889,277.659,339.889,277.395,339.889,277.511z M340.985,263.237c-0.439,1.665-0.007,2.193-1.017,3.151
	c0-1.242-0.479-3.597,0.813-4.37C340.966,262.458,341.081,262.795,340.985,263.237C340.797,263.957,341.081,262.795,340.985,263.237
	z M286.198,344.249c0.152,0.297-10.95,3.379-12.1,3.68c-4.615,0.974-9.266,1.569-14.012,1.767c-8.955,0.469-18.333-0.4-26.948-2.966
	c1.113,0.102,2.451,0.687,3.584,0.512c-1.083-0.661-2.418-0.436-3.353-1.301c3.601,0.568,7.009,0.324,10.303,0.76
	c-0.337-0.466-3.343-1.169-3.333-1.506c0.449-0.033,2.745-0.076,2.828-0.155c1.093-0.872-1.721-0.793-1.463-1.397
	c0.069-0.126,0.846,0.109,1.123-0.215c0.439-0.565,0-0.889,0.175-1.163c0.102-0.274,4.473-1.001,4.902-0.826
	c-0.479,0.324-1.11-0.046-0.879,0.819c-0.426-0.046-1.771-0.013-1.873,0.565c0.069-0.188,1.5,1.843,1.546,1.932
	c0.495,0.809,2.24,1.308,2.395,2.22c0.297,1.582,8.522,1.437,9.774,1.308c3.095-0.35,5.989-1.467,9.008-2.015
	c1.804-0.324,3.614-0.793,5.457-1.011c0.836-0.069,3.683-1.077,4.347-0.806C278.102,345.877,284.665,343.991,286.198,344.249
	C286.205,344.275,285.947,344.209,286.198,344.249z M336.45,296.147c0.363-0.918,0.644-1.87,1.074-2.679
	C337.24,294.334,336.86,295.236,336.45,296.147z M337.907,292.524c0.033-0.102,0.069-0.228,0.116-0.307
	C338.042,292.335,337.946,292.418,337.907,292.524z M242.506,178.302c-0.482-0.076-0.991-0.02-1.453-0.089
	c0.261-0.182,1.718-0.264,1.041-0.671c2.051-1.249,6.253-1.519,8.552-1.209c2.623,0.291,5.206-0.479,7.759-0.069
	c1.047,0.178,1.929,0.192,2.97,0.251c0.895,0.076-0.152,1.031,0.895,1.169c0.588,0.059,1.813,1.46,2.368,1.123
	c-0.053,0.971-0.472,0.34-0.159,1.186c0.063,0.261,1.13,0.849,1.09,0.915c-0.083,0.109-3.006-0.063-2.861-0.03
	c-0.225-0.033,0.066,0.453,0.244,0.377c0.568,0.145,1.83-0.026,2.454,0.007c-1.467,1.308-3.663,1.183-5.298,2.233
	c-0.961,0.657-2.494,0.595-3.581,0.938c0,1.173-0.836,2.52-1.562,3.67c-0.515,0.75-4.195-1.06-4.605-1.539
	c-0.809-0.932-2.61-3.478-0.634-4.268c2.444-0.961,0.016-0.201-0.714-0.723c0.578-0.789,1.235-0.545,2.147-0.363
	c-0.482-0.697-1.06-0.842-1.744-0.495c-0.231-0.723,0.988-1.351-0.102-2.061c-0.443-0.35-2.989,0.053-3.092-0.416
	c-0.135-1.11,3.135-0.522,3.716-1.41C247.484,176.296,244.852,178.685,242.506,178.302
	C242.027,178.222,242.909,178.368,242.506,178.302z M288.405,194.933c0.429-0.04-0.472-1.272-0.707-1.513
	c0.268,0.033,0.479,0.066,0.753-0.152c-0.168-0.568-2.735-1.989-2.904-1.88c-0.971,0.598-2.17-2.124-2.279-2.448
	c1.648-0.254,2.652,1.5,4.132,2.249c1.265,0.608,5.83,2.795,5.949,4.129c0.099,0.694-3.435,0.433-3.957,1.209
	c-0.429-1.014,0.875-1.014,0.839-1.282C290.182,194.96,288.583,194.913,288.405,194.933
	C288.332,194.94,288.953,194.864,288.405,194.933z M241.951,196.248c-0.248,0.172-3.34,3.065-3.273,3.369
	c0.059,0.261,3.231,0.083,3.772,0.35c-0.073,0.367-0.476,0.221-0.532,0.502c0.38,0,1.665-0.77,1.853-0.562
	c0.056,0.235,0,0.403-0.096,0.581c1.394,1.404,1.278-1.566,1.335-1.761c-0.994-0.112,0.228-1.526-1.434-0.895
	c0.096-0.089-1.8-0.598-1.668-0.453c-0.168-0.192,1.295-1.467,1.44-1.599C242.47,195.511,242.341,195.914,241.951,196.248
	C241.42,196.605,242.044,196.119,241.951,196.248z M244.987,199.436C245.096,199.597,244.772,199.597,244.987,199.436
	C245.007,199.518,244.954,199.518,244.987,199.436z M244.277,199.373c0.116-0.092,0.644-0.294,0.284-0.02
	C244.475,199.584,243.996,199.72,244.277,199.373C244.297,199.33,244.227,199.436,244.277,199.373z M242.084,195.838h0.01
	c0,0,0,0.007,0.056,0.04C242.093,195.845,242.093,195.845,242.084,195.838z M239.296,198.639c0.119,0,0.172,0,0.231,0.053
	C239.457,198.689,239.124,198.676,239.296,198.639C239.414,198.639,239.253,198.653,239.296,198.639z M209.031,235.044
	c-0.839,0.069,0.555-0.71,0.459-0.941c-0.581-1.374-4.516-1.622-4.915-2.695c0.188-0.053,0.291-0.178,0.38-0.386
	c-1.358-0.538-2.081,1.11-3.287,1.027c2.54-4.337,8.849,0.591,11.383,2.633C211.717,234.807,210.379,234.813,209.031,235.044
	C208.939,235.058,209.781,234.909,209.031,235.044z M212.335,237.33c-0.621-0.297,2.111-0.284,2.471-0.4
	c-0.552-0.875-0.05-1.278-1.103-1.619c0.981-1.159,4.129,0.172,5.15,0.634c-0.116,0.116-0.277,0.013-0.396,0.208
	c0.099,0.069,2.167,1.81,0.763,1.209c-1.553-0.647-2.408,0.244-3.505,0.846C214.868,237.006,213.468,237.878,212.335,237.33
	C212.222,237.287,212.596,237.452,212.335,237.33z M286.178,193.183c1.513,1.566-0.786,2.722-1.82,1.721
	c-0.505-0.538-0.228-1.747-1.404-2.15c0.33-0.079,0.624-0.159,0.948-0.261C283.1,190.553,285.812,192.756,286.178,193.183
	C286.548,193.572,286.099,193.074,286.178,193.183z M266.887,183.838c-0.102-0.261,2.121-0.132,2.53-0.208
	c0.568-0.089,4.998,0.367,3.419,1.07c-1.183,0.545-2.937,1.14-4.106,0.083C268.44,184.561,266.907,183.907,266.887,183.838
	C266.808,183.669,266.97,184.171,266.887,183.838z M307.259,205.791c0.522,0,1.78,2.008,1.586,2.309
	c-0.588,0.948-1.605-1.48-2.21-1.794C306.85,206.177,307.094,205.969,307.259,205.791z M238.268,178.956
	c1.48-1.196,1.82-0.495,3.713-0.317C241.39,179.174,239.95,179.283,238.268,178.956C238.661,178.625,239.95,179.283,238.268,178.956
	z M271.535,177.628c-1.113-0.301-2.283-0.406-3.363-0.783c1.301-0.116,2.871,0.32,3.769,0.628
	C272.245,177.552,271.472,177.585,271.535,177.628C270.422,177.33,271.651,177.647,271.535,177.628z M268.176,176.845
	c-0.096,0.036-0.258,0.05-0.353,0.063C267.915,176.789,268.05,176.775,268.176,176.845
	C268.077,176.881,268.136,176.825,268.176,176.845z M209.408,237.4c0.215,0.02,0.367,0.135,0.4,0.386
	c-0.122,0.634-2.124-0.277-2.309-0.538C208.169,236.864,208.784,237.046,209.408,237.4z M223.44,237.353
	C222.4,239.857,219.793,235.589,223.44,237.353C223.298,237.67,222.826,237.033,223.44,237.353z M227.503,249.678L227.503,249.678
	c0.026-0.053,0.069-0.089,0.205-0.102C227.612,249.625,227.569,249.645,227.503,249.678z M227.847,249.625
	c-0.036-0.02,0.284-1.041,0.968-1.08C229.568,249.01,228.22,249.664,227.847,249.625
	C227.807,249.605,228.696,249.707,227.847,249.625z M236.111,178.368c-0.704,0.449-1.536,0.182-2.243,0.416
	C234.846,178.12,235.315,178.166,236.111,178.368C235.408,178.817,235.969,178.328,236.111,178.368z M209.874,229.551
	c-0.268-1.041-0.647-1.074,0.069-1.998C210.174,228.547,210.174,229.122,209.874,229.551
	C209.781,229.122,210.174,229.122,209.874,229.551z M190.976,265.626c-0.013,0.344-0.172,0.515-0.558,0.347
	c-0.102-0.092-0.172-1.338,0.036-1.638C190.646,264.763,190.837,265.19,190.976,265.626
	C191.032,265.781,190.837,265.19,190.976,265.626z M234.711,197.388c0.813-0.013,1.463,0.211,2.19,0.743
	C235.926,198.296,235.315,197.989,234.711,197.388z M306.959,205.421l0.007,0.007c-0.261-0.069-1.661-0.915-1.08-1.377
	C306.295,203.736,306.893,205.286,306.959,205.421z M321.586,212.685c-0.274-0.225-0.839-0.069-1.014-0.641
	c0.502,0.287,1.05,0.122,1.533,0.512C321.919,212.665,321.728,212.89,321.586,212.685
	C321.311,212.457,321.728,212.89,321.586,212.685z M237.337,178.833c-0.129-0.168-0.367-0.056-0.535-0.208
	c0.413-0.469,0.974-0.327,1.47-0.456C238.252,178.222,237.634,179.309,237.337,178.833
	C237.208,178.665,237.433,179.025,237.337,178.833z M234.879,179.385c-0.631,0.502-1.292,0.984-2.17,0.912
	C233.3,179.679,234.126,179.6,234.879,179.385z M234.688,200.981c0.145,0.04,0.344-0.007,0.628-0.02
	c-0.852,1.06-1.87-0.439-1.645-0.489C233.498,200.509,234.598,200.975,234.688,200.981
	C234.833,201.018,234.318,200.942,234.688,200.981z M235.031,179.814c0.595-0.489,1.315-0.548,2.028-0.502
	C236.438,179.702,235.801,179.887,235.031,179.814z M303.292,207.898c-0.687-0.092,1.292-0.763,0.575,0.175
	C303.656,208.067,303.441,208.011,303.292,207.898C303.2,207.889,303.507,207.912,303.292,207.898z M325.054,212.883
	c-0.403-0.244-0.565-0.482-0.436-0.961C324.971,212.133,325.123,212.434,325.054,212.883z M236.518,182.995
	c0.248-0.443,0.522-0.525,1.384-0.519C237.489,182.939,237.013,183.022,236.518,182.995z M230.245,185.919
	c-0.502,0.294-0.862,0.479-1.407,0.449C229.208,185.919,229.657,185.939,230.245,185.919z M282.584,189.532
	c-0.109,0.188,0,0.294,0.142,0.4c-0.155-0.046-0.78-0.776-0.304-0.885C282.631,189.143,282.713,189.265,282.584,189.532
	C282.475,189.721,282.66,189.39,282.584,189.532z M203.69,232.26c-0.02,0.274-0.188,0.413-0.469,0.4
	C203.109,232.448,203.568,231.708,203.69,232.26C203.736,232.441,203.66,232.118,203.69,232.26z M233.069,322.824
	c0.231,0.106,0.344,0.254,0.37,0.529C233.439,324.096,232.065,322.946,233.069,322.824
	C233.195,322.811,232.838,322.837,233.069,322.824z M231.087,186.385c-0.185,0.211-0.403,0.36-0.763,0.515
	C230.522,186.454,230.78,186.398,231.087,186.385z M191.647,265.437C191.547,266.336,191.382,264.635,191.647,265.437
	C191.64,265.586,191.58,265.368,191.647,265.437z M236.917,187.851c0.02-0.02,0.069,0.007,0.096,0.013
	C236.917,187.93,236.719,187.93,236.917,187.851z M233.023,179.471c-0.119,0.066-0.221,0.089-0.294,0.102
	C232.795,179.444,232.894,179.431,233.023,179.471z M232.646,179.586c-0.066,0,0.066-0.013,0.083-0.013
	C232.709,179.573,232.653,179.573,232.646,179.586z M232.25,179.695l-0.01,0.007C232.233,179.695,232.24,179.695,232.25,179.695z
	 M232.25,179.695c0.079-0.122,0.248-0.096,0.373-0.109C232.534,179.722,232.395,179.735,232.25,179.695z M235.011,179.814h0.02
	C235.028,179.821,235.011,179.824,235.011,179.814z M235.011,179.821c-0.023,0.152-0.168,0.132-0.258,0.132
	C234.793,179.821,234.879,179.808,235.011,179.821z M202.911,269.193C202.735,269.064,203.053,269.279,202.911,269.193
	C202.844,269.147,203.036,269.259,202.911,269.193z M296.194,186.642C296.749,186.827,296.22,186.801,296.194,186.642
	C296.194,186.642,296.213,186.771,296.194,186.642z M282.733,189.965c0,0,0-0.033-0.007-0.033c0.05,0.033,0.056,0.109,0.05,0.182
	C282.769,190.081,282.763,190.041,282.733,189.965C282.733,189.965,282.763,190.041,282.733,189.965z M234.74,179.953
	c0.007,0,0.007,0,0.013,0c0,0.013-0.007,0.013-0.026,0.007C234.731,179.956,234.74,179.956,234.74,179.953z M234.549,179.989
	c0.053-0.026,0.139-0.026,0.182-0.033C234.671,180.098,234.582,180.112,234.549,179.989
	C234.598,179.963,234.562,179.989,234.549,179.989z M314.038,206.967v-0.007l0.013,0.013L314.038,206.967z M244.792,263.194
	C244.515,262.996,244.994,263.059,244.792,263.194C244.772,263.181,244.852,263.142,244.792,263.194z M286.277,344.229
	c-0.056,0.02-0.069,0.02-0.079,0.02c0.007-0.04,0.013-0.059,0.079-0.046V344.229z M286.198,344.249
	C286.198,344.249,286.178,344.249,286.198,344.249L286.198,344.249z M216.51,201.46c0.046-0.02,0.856-0.099,0.568,0.185
	C216.774,201.834,216.619,201.774,216.51,201.46C216.639,201.441,216.517,201.599,216.51,201.46z M211.439,194.335
	c-0.238-0.126-0.195-0.284,0.129-0.479C211.846,193.998,211.8,194.16,211.439,194.335
	C211.34,194.329,211.624,194.292,211.439,194.335z"/>
<path style="fill:#CCCBCA;" d="M0,387.029c19.466,8.635,41.013,13.338,63.683,13.338h384.634c22.663,0,44.2-4.704,63.68-13.338H0z"
	/>
<rect y="379.111" style="fill:#F2F2F2;" width="512" height="7.905"/>
<rect x="211.539" y="379.111" style="fill:#CCCBCA;" width="88.89" height="3.937"/>
<rect y="326.392" style="fill:#474F59;" width="117.496" height="117.479"/>
<rect x="12.083" y="338.085" style="fill:#232E38;" width="41.026" height="14.504"/>
<rect x="14.25" y="340.232" style="fill:#656A73;" width="36.699" height="10.161"/>
<g>
	<rect x="37.627" y="340.232" style="fill:#474F59;" width="2.174" height="10.161"/>
	<rect x="25.399" y="340.232" style="fill:#474F59;" width="2.167" height="10.161"/>
</g>
<g>
	<rect x="65.199" y="338.085" style="fill:#232E38;" width="14.458" height="14.504"/>
	<rect x="91.74" y="338.085" style="fill:#232E38;" width="14.465" height="14.504"/>
	<rect x="12.083" y="364.61" style="fill:#232E38;" width="14.465" height="14.504"/>
	<rect x="38.631" y="364.61" style="fill:#232E38;" width="14.478" height="14.504"/>
	<rect x="65.199" y="364.61" style="fill:#232E38;" width="14.458" height="14.504"/>
	<rect x="91.74" y="364.61" style="fill:#232E38;" width="14.465" height="14.504"/>
	<rect x="12.083" y="391.168" style="fill:#232E38;" width="14.465" height="14.514"/>
	<rect x="38.631" y="391.168" style="fill:#232E38;" width="14.478" height="14.514"/>
	<rect x="65.199" y="391.168" style="fill:#232E38;" width="14.458" height="14.514"/>
	<rect x="12.083" y="417.726" style="fill:#232E38;" width="14.465" height="14.508"/>
	<rect x="38.631" y="417.726" style="fill:#232E38;" width="14.478" height="14.508"/>
	<rect x="65.199" y="417.726" style="fill:#232E38;" width="14.458" height="14.508"/>
</g>
<rect x="91.74" y="391.168" style="fill:#656A73;" width="14.465" height="41.069"/>
<rect y="274.105" style="fill:#353F49;" width="117.496" height="52.274"/>
<rect x="8.354" y="282.459" style="fill:#76D0DE;" width="100.781" height="35.602"/>
<rect x="12.704" y="286.786" style="fill:#ADECF7;" width="92.087" height="26.915"/>
<rect y="324.938" style="fill:#D9D8D7;" width="117.496" height="2.897"/>
<g>
	<path style="fill:#F77B55;" d="M503.243,67.019c2.233-0.003,4.479,0.865,6.19,2.56c1.701,1.711,2.563,3.941,2.563,6.203
		l-0.01,101.62c0.01,2.233-0.856,4.496-2.563,6.194c-1.708,1.728-3.947,2.55-6.19,2.55H342.033c-2.24,0-4.479-0.832-6.194-2.547
		c-1.695-1.704-2.557-3.967-2.557-6.2l0.003-101.62c0-2.253,0.856-4.489,2.557-6.203c1.711-1.698,3.957-2.55,6.19-2.56h161.211
		V67.019z"/>
	<g>
		<rect x="355.526" y="163.444" style="fill:#FFFFFF;" width="27.939" height="5.255"/>
		<rect x="390.937" y="163.444" style="fill:#FFFFFF;" width="27.942" height="5.242"/>
		<rect x="426.38" y="163.444" style="fill:#FFFFFF;" width="27.945" height="5.242"/>
		<rect x="461.791" y="163.444" style="fill:#FFFFFF;" width="27.932" height="5.255"/>
		<rect x="355.526" y="127.105" style="fill:#FFFFFF;" width="63.356" height="18.924"/>
	</g>
	<rect x="333.295" y="84.483" style="fill:#353F49;" width="178.705" height="25.23"/>
	<circle style="fill:#FFFFFF;" cx="457.233" cy="136.555" r="13.926"/>
	<circle style="fill:#353F49;" cx="475.797" cy="136.555" r="13.923"/>
</g>
<g>
</g>
<g>
</g>
<g>
</g>
<g>
</g>
<g>
</g>
<g>
</g>
<g>
</g>
<g>
</g>
<g>
</g>
<g>
</g>
<g>
</g>
<g>
</g>
<g>
</g>
<g>
</g>
<g>
</g>
</svg>
