<?xml version="1.0" encoding="iso-8859-1"?>
<!-- Generator: Adobe Illustrator 19.0.0, SVG Export Plug-In . SVG Version: 6.00 Build 0)  -->
<svg version="1.1" id="Layer_1" xmlns="http://www.w3.org/2000/svg" xmlns:xlink="http://www.w3.org/1999/xlink" x="0px" y="0px"
	 viewBox="0 0 512 512" style="enable-background:new 0 0 512 512;" xml:space="preserve">
<circle style="fill:#474F59;" cx="256" cy="256" r="256"/>
<path style="fill:#CCCBCA;" d="M455.198,24.774c-17.685,0-32.028,14.336-32.028,32.028h64.056
	C487.226,39.11,472.883,24.774,455.198,24.774z"/>
<path style="fill:#F2F2F2;" d="M248.981,24.774c-17.689,0-32.031,14.336-32.031,32.028v259.67h174.186
	c17.689,0,32.031-14.333,32.031-32.021V56.802c0-17.692,14.346-32.028,32.028-32.028C455.194,24.774,248.981,24.774,248.981,24.774z
	"/>
<path style="fill:#FFFFFF;" d="M327.082,195.525c-17.685,0-32.031,14.339-32.031,32.028v227.642
	c0,17.692-14.343,32.028-32.031,32.028H88.83V227.556c0-17.689,14.346-32.028,32.028-32.028h206.224V195.525z"/>
<g>
	<path style="fill:#CCCBCA;" d="M359.107,284.451v-56.895c0-17.689-14.339-32.028-32.028-32.028
		c-17.685,0-32.028,14.339-32.028,32.028v88.92h96.088C373.456,316.475,359.107,302.143,359.107,284.451z"/>
	<path style="fill:#CCCBCA;" d="M88.83,455.198v32.028H56.802C74.494,487.226,88.83,472.89,88.83,455.198z"/>
	<path style="fill:#CCCBCA;" d="M231.001,455.198H24.774c0,17.692,14.336,32.028,32.025,32.028h206.217
		C245.334,487.219,231.001,472.89,231.001,455.198z"/>
</g>
<rect x="111.897" y="227.556" style="fill:#353F49;" width="160.074" height="7.115"/>
<g>
	<rect x="111.897" y="241.796" style="fill:#E6E5E5;" width="80.037" height="7.115"/>
	<rect x="111.897" y="404.975" style="fill:#E6E5E5;" width="160.074" height="7.112"/>
	<rect x="111.897" y="419.212" style="fill:#E6E5E5;" width="160.074" height="7.115"/>
	<rect x="111.897" y="433.449" style="fill:#E6E5E5;" width="80.037" height="7.112"/>
</g>
<path style="fill:#353F49;" d="M202.987,364.689c-9.662,9.649-23.004,15.614-37.743,15.614c-29.452,0-53.347-23.896-53.347-53.35
	c0-22.237,13.609-41.31,32.956-49.307l20.394,49.307L202.987,364.689z"/>
<path style="fill:#F77B55;" d="M218.621,326.943h-53.37v-53.367C194.722,273.576,218.621,297.472,218.621,326.943z"/>
<path style="fill:#E6E5E5;" d="M218.621,326.943c0,14.729-5.972,28.071-15.628,37.736l-37.743-37.736H218.621z"/>
<path style="fill:#FFDB79;" d="M165.244,273.573v53.377l-20.394-49.307C151.129,275.013,158.033,273.573,165.244,273.573z"/>
<rect x="231.391" y="273.573" style="fill:#F77B55;" width="12.453" height="12.453"/>
<rect x="231.391" y="304.987" style="fill:#E6E5E5;" width="12.453" height="12.453"/>
<rect x="231.391" y="336.434" style="fill:#353F49;" width="12.45" height="12.453"/>
<rect x="231.391" y="367.847" style="fill:#FFDB79;" width="12.453" height="12.453"/>
<g>
	<rect x="252.234" y="278.924" style="fill:#E6E5E5;" width="19.76" height="7.112"/>
	<rect x="252.234" y="310.338" style="fill:#E6E5E5;" width="19.76" height="7.115"/>
	<rect x="252.234" y="341.752" style="fill:#E6E5E5;" width="19.76" height="7.115"/>
	<rect x="252.234" y="373.198" style="fill:#E6E5E5;" width="19.76" height="7.112"/>
</g>
<rect x="240.012" y="125.688" style="fill:#353F49;" width="22.875" height="19.175"/>
<g>
	<rect x="274.333" y="98.142" style="fill:#CCCBCA;" width="22.878" height="46.708"/>
	<rect x="308.62" y="113.585" style="fill:#CCCBCA;" width="22.862" height="31.278"/>
</g>
<rect x="342.941" y="56.802" style="fill:#F77B55;" width="22.862" height="88.057"/>
<g>
	<rect x="377.228" y="88.322" style="fill:#CCCBCA;" width="22.858" height="56.551"/>
	<rect x="240.012" y="159.513" style="fill:#CCCBCA;" width="160.074" height="7.112"/>
	<rect x="240.012" y="173.753" style="fill:#CCCBCA;" width="160.074" height="7.112"/>
	<rect x="240.012" y="56.802" style="fill:#CCCBCA;" width="57.182" height="21.345"/>
</g>
<rect x="247.134" y="63.921" style="fill:#FFFFFF;" width="42.942" height="7.115"/>
<polygon style="fill:#CCCBCA;" points="285.762,89.587 274.323,78.148 285.762,78.148 "/>
<g>
</g>
<g>
</g>
<g>
</g>
<g>
</g>
<g>
</g>
<g>
</g>
<g>
</g>
<g>
</g>
<g>
</g>
<g>
</g>
<g>
</g>
<g>
</g>
<g>
</g>
<g>
</g>
<g>
</g>
</svg>
