<?xml version="1.0" encoding="iso-8859-1"?>
<!-- Generator: Adobe Illustrator 19.0.0, SVG Export Plug-In . SVG Version: 6.00 Build 0)  -->
<svg version="1.1" id="Layer_1" xmlns="http://www.w3.org/2000/svg" xmlns:xlink="http://www.w3.org/1999/xlink" x="0px" y="0px"
	 viewBox="0 0 512 512" style="enable-background:new 0 0 512 512;" xml:space="preserve">
<circle style="fill:#ADECF7;" cx="256" cy="256" r="256"/>
<path style="fill:#FFFFFF;" d="M256.007,112.838c-67.25,0.02-121.754,54.523-121.754,121.77c0,35.629,15.324,67.663,39.698,89.93
	c1.163,1.004,2.322,1.995,3.485,3.016c19.04,17.352,30.997,42.304,30.997,70.085v22.046h47.576h47.563v-22.046
	c0-27.78,11.964-52.733,30.994-70.085c1.169-1.021,2.326-2.012,3.492-3.016c24.371-22.264,39.695-54.298,39.695-89.93
	C377.747,167.361,323.247,112.858,256.007,112.838z"/>
<path style="fill:#FF916E;" d="M211.033,157.267c-2.6-1.189-5.794-1.903-8.806-1.903c-11.135,0-20.163,9.021-20.163,20.16
	c0,1.929,0.281,3.865,0.78,5.642c-0.106-0.003-0.228-0.017-0.334-0.017c-11.148,0-20.169,9.034-20.169,20.169
	c0,5.361,2.088,10.227,5.506,13.841c-7.366,2.996-12.556,10.227-12.556,18.676c0,7.591,4.195,14.197,10.379,17.639
	c-2.913,3.501-4.674,7.981-4.674,12.902c0,11.132,9.031,20.163,20.153,20.163c0.416,0,0.836-0.01,1.229-0.046l0,0
	c-0.756,2.134-1.229,4.529-1.229,6.927c0,11.138,9.041,20.166,20.183,20.166c3.406,0,6.715-0.908,9.536-2.408c0,0,0,0.003,0,0.017
	c0.994,10.177,9.355,18.131,20.064,18.131c3.6,0,5.916-1.133,7.981-1.133c4.681,0,7.092,3.908,7.092,8.037v85.451h5.09V160.52
	c0-11.142-9.015-20.166-20.163-20.166C220.903,140.351,212.579,147.674,211.033,157.267z"/>
<g>
	<path style="fill:#EE643C;" d="M201.328,314.041c-12.476,0-22.627-10.151-22.627-22.621c0-2.656,0.466-5.262,1.374-7.759
		c0.459-1.265,1.85-1.929,3.135-1.463c1.265,0.462,1.916,1.863,1.457,3.131c-0.71,1.956-1.064,4.004-1.064,6.091
		c0,9.774,7.948,17.715,17.722,17.715c2.933,0,5.833-0.73,8.387-2.104c1.173-0.641,2.672-0.195,3.307,0.991
		c0.647,1.196,0.195,2.679-0.988,3.316C208.761,313.109,205.077,314.041,201.328,314.041z"/>
	<path style="fill:#EE643C;" d="M181.146,286.988c-12.46,0-22.611-10.138-22.611-22.607c0-5.275,1.863-10.408,5.265-14.475
		c0.862-1.034,2.398-1.176,3.449-0.314c1.034,0.869,1.176,2.411,0.314,3.452c-2.666,3.188-4.122,7.204-4.122,11.337
		c0,9.768,7.948,17.715,17.705,17.715c0.36,0,0.707-0.013,1.044-0.04c9.378-0.548,16.688-8.304,16.688-17.679
		c0-1.354,1.09-2.444,2.451-2.444c1.354,0,2.451,1.09,2.451,2.444c0,11.954-9.342,21.867-21.266,22.561
		C182.09,286.974,181.634,286.988,181.146,286.988z"/>
	<path style="fill:#EE643C;" d="M231.285,266.825c-1.354,0-2.451-1.09-2.451-2.444c0-6.914-5.619-12.539-12.529-12.539
		c-6.907,0-12.523,5.625-12.523,12.539c0,1.354-1.097,2.444-2.451,2.444c-1.361,0-2.451-1.09-2.451-2.444
		c0-9.606,7.832-17.425,17.425-17.425c9.619,0,17.438,7.819,17.438,17.425C233.743,265.735,232.64,266.825,231.285,266.825z"/>
	<path style="fill:#EE643C;" d="M175.451,256.459c-12.47,0-22.62-10.147-22.62-22.62c0-12.473,10.148-22.614,22.62-22.614
		c12.463,0,22.614,10.141,22.614,22.614c0,1.348-1.097,2.448-2.461,2.448c-1.338,0-2.438-1.1-2.438-2.448
		c0-9.774-7.944-17.718-17.712-17.718c-9.781,0-17.722,7.944-17.722,17.718c0,9.771,7.941,17.715,17.722,17.715
		c1.348,0,2.444,1.1,2.444,2.454C177.895,255.356,176.799,256.459,175.451,256.459z"/>
	<path style="fill:#EE643C;" d="M167.85,217.61c-0.644,0-1.301-0.258-1.774-0.77c-4-4.202-6.194-9.715-6.194-15.519
		c0-12.473,10.148-22.617,22.627-22.617c0.168,0,0.353,0,0.522,0.013c10.749,0.182,19.932,7.327,21.253,16.625
		c0.908,6.408,5.15,12.873,12.559,12.873c1.351,0,2.444,1.093,2.444,2.444c0,1.351-1.093,2.448-2.444,2.448
		c-8.962,0-15.955-6.857-17.405-17.088c-1.077-7.617-9.295-12.288-16.605-12.414l-0.324-0.007c-9.774,0-17.722,7.941-17.722,17.715
		c0,4.549,1.721,8.869,4.836,12.156c0.938,0.984,0.889,2.534-0.079,3.468C169.066,217.389,168.455,217.61,167.85,217.61z"/>
	<path style="fill:#EE643C;" d="M182.863,183.61c-1.057,0-2.041-0.69-2.359-1.771c-0.591-2.041-0.895-4.165-0.895-6.316
		c0-12.47,10.144-22.611,22.617-22.611c3.465,0,6.782,0.76,9.857,2.269c1.219,0.591,1.718,2.051,1.12,3.26
		c-0.578,1.219-2.045,1.721-3.267,1.133c-2.411-1.169-5.008-1.764-7.71-1.764c-9.764,0-17.715,7.938-17.715,17.712
		c0,1.685,0.238,3.349,0.71,4.955c0.377,1.295-0.367,2.652-1.671,3.032C183.322,183.577,183.091,183.61,182.863,183.61z"/>
	<path style="fill:#EE643C;" d="M251.095,422.136h-5.09c-1.351,0-2.441-1.093-2.441-2.451v-85.451c0-2.57-1.216-5.582-4.651-5.582
		c-0.614,0-1.427,0.182-2.352,0.383c-1.483,0.337-3.3,0.747-5.629,0.747c-12.681,0-22.614-9.939-22.614-22.621
		c0-12.47,10.154-22.617,22.614-22.617c1.354,0,2.451,1.097,2.451,2.444c0,1.358-1.097,2.451-2.451,2.451
		c-9.768,0-17.715,7.941-17.715,17.718c0,9.936,7.782,17.722,17.715,17.722c1.784,0,3.194-0.317,4.562-0.624
		c1.169-0.251,2.259-0.499,3.419-0.499c6.276,0,9.543,5.275,9.543,10.478v83.007h0.201V160.52c0-9.771-7.941-17.722-17.722-17.722
		c-9.768,0-17.715,7.951-17.715,17.722c0,9.768,7.948,17.718,17.715,17.718c1.354,0,2.451,1.093,2.451,2.441
		c0,1.358-1.097,2.444-2.451,2.444c-12.456,0-22.614-10.134-22.614-22.607s10.154-22.624,22.614-22.624
		c12.476,0,22.627,10.148,22.627,22.624v259.164C253.556,421.042,252.452,422.136,251.095,422.136z"/>
</g>
<path style="fill:#FF916E;" d="M300.964,157.267c2.593-1.189,5.777-1.903,8.803-1.903c11.129,0,20.166,9.021,20.166,20.16
	c0,1.929-0.281,3.865-0.796,5.642c0.119-0.003,0.235-0.017,0.34-0.017c11.152,0,20.179,9.034,20.179,20.169
	c0,5.361-2.084,10.227-5.523,13.841c7.379,2.996,12.575,10.227,12.575,18.676c0,7.591-4.188,14.197-10.392,17.639
	c2.923,3.501,4.684,7.981,4.684,12.902c0,11.132-9.038,20.163-20.166,20.163c-0.41,0-0.813-0.01-1.212-0.046l0,0
	c0.75,2.134,1.212,4.529,1.212,6.927c0,11.138-9.031,20.166-20.166,20.166c-3.402,0-6.725-0.908-9.53-2.408c0,0,0,0.003,0,0.017
	c-1.007,10.177-9.365,18.131-20.07,18.131c-3.594,0-5.923-1.133-7.987-1.133c-4.677,0-7.085,3.908-7.085,8.037v85.451h-5.097V160.52
	c0-11.142,9.011-20.166,20.166-20.166C291.084,140.351,299.408,147.674,300.964,157.267z"/>
<g>
	<path style="fill:#EE643C;" d="M310.665,314.041c-3.743,0-7.442-0.932-10.699-2.699c-1.196-0.638-1.638-2.121-0.998-3.316
		c0.634-1.183,2.131-1.632,3.307-0.991c2.563,1.374,5.464,2.104,8.39,2.104c9.771,0,17.718-7.941,17.718-17.715
		c0-2.088-0.353-4.136-1.06-6.091c-0.466-1.268,0.202-2.672,1.463-3.131c1.275-0.466,2.682,0.202,3.131,1.463
		c0.898,2.497,1.358,5.103,1.358,7.759C333.279,303.89,323.135,314.041,310.665,314.041z"/>
	<path style="fill:#EE643C;" d="M330.831,286.988c-0.476,0-0.951-0.013-1.391-0.05c-11.888-0.69-21.24-10.603-21.24-22.558
		c0-1.354,1.113-2.444,2.461-2.444c1.361,0,2.451,1.09,2.451,2.444c0,9.375,7.303,17.131,16.658,17.679
		c0.377,0.026,0.714,0.04,1.057,0.04c9.787,0,17.715-7.948,17.715-17.715c0-4.132-1.457-8.149-4.116-11.337
		c-0.859-1.037-0.717-2.583,0.317-3.452c1.044-0.865,2.586-0.723,3.449,0.314c3.383,4.063,5.249,9.199,5.249,14.475
		C353.445,276.85,343.311,286.988,330.831,286.988z"/>
	<path style="fill:#EE643C;" d="M310.665,266.825c-1.348,0-2.461-1.09-2.461-2.444c0-6.914-5.615-12.539-12.519-12.539
		c-6.91,0-12.523,5.625-12.523,12.539c0,1.354-1.103,2.444-2.448,2.444c-1.358,0-2.448-1.09-2.448-2.444
		c0-9.606,7.815-17.425,17.418-17.425c9.599,0,17.431,7.819,17.431,17.425C313.116,265.735,312.026,266.825,310.665,266.825z"/>
	<path style="fill:#EE643C;" d="M336.549,256.459c-1.351,0-2.444-1.103-2.444-2.448c0-1.354,1.093-2.454,2.444-2.454
		c9.768,0,17.715-7.944,17.715-17.715c0-9.774-7.948-17.718-17.715-17.718c-9.771,0-17.709,7.944-17.709,17.718
		c0,1.348-1.116,2.448-2.451,2.448c-1.368,0-2.458-1.1-2.458-2.448c0-12.47,10.147-22.614,22.62-22.614s22.607,10.141,22.607,22.614
		C359.16,246.315,349.019,256.459,336.549,256.459z"/>
	<path style="fill:#EE643C;" d="M344.13,217.61c-0.591,0-1.192-0.221-1.665-0.667c-0.991-0.935-1.034-2.484-0.096-3.468
		c3.122-3.287,4.839-7.607,4.839-12.156c0-9.774-7.948-17.715-17.728-17.715c-0.026,0.003-0.277,0.003-0.314,0.007
		c-7.31,0.126-15.522,4.796-16.595,12.42c-1.463,10.223-8.466,17.081-17.411,17.081c-1.364,0-2.454-1.097-2.454-2.448
		c0-1.351,1.09-2.444,2.454-2.444c7.406,0,11.637-6.464,12.546-12.873c1.321-9.299,10.517-16.447,21.378-16.632
		c0.053-0.007,0.238-0.007,0.396-0.007c12.483,0,22.627,10.141,22.627,22.617c0,5.804-2.187,11.317-6.19,15.519
		C345.448,217.352,344.781,217.61,344.13,217.61z"/>
	<path style="fill:#EE643C;" d="M329.12,183.61c-0.221,0-0.456-0.033-0.68-0.099c-1.298-0.38-2.031-1.738-1.661-3.032
		c0.469-1.612,0.704-3.283,0.704-4.955c0-9.774-7.944-17.712-17.712-17.712c-2.709,0-5.305,0.595-7.716,1.764
		c-1.212,0.591-2.672,0.086-3.273-1.133c-0.585-1.209-0.079-2.679,1.13-3.26c3.082-1.506,6.398-2.269,9.86-2.269
		c12.476,0,22.617,10.138,22.617,22.611c0,2.137-0.317,4.268-0.915,6.316C331.155,182.919,330.194,183.61,329.12,183.61z"/>
	<path style="fill:#EE643C;" d="M265.992,422.136h-5.097c-1.351,0-2.441-1.093-2.441-2.451V160.52
		c0-12.473,10.138-22.624,22.611-22.624c12.473,0,22.614,10.148,22.614,22.624c0,12.47-10.141,22.607-22.614,22.607
		c-1.354,0-2.451-1.087-2.451-2.444c0-1.348,1.097-2.441,2.451-2.441c9.758,0,17.712-7.951,17.712-17.718
		c0-9.771-7.954-17.722-17.712-17.722c-9.778,0-17.715,7.951-17.715,17.722v256.72h0.195v-83.007c0-5.203,3.27-10.478,9.536-10.478
		c1.163,0,2.273,0.248,3.432,0.499c1.368,0.311,2.778,0.624,4.555,0.624c9.926,0,17.712-7.786,17.712-17.722
		c0-9.778-7.954-17.719-17.712-17.719c-1.354,0-2.451-1.093-2.451-2.451c0-1.348,1.097-2.444,2.451-2.444
		c12.47,0,22.614,10.144,22.614,22.617c0,12.681-9.936,22.62-22.614,22.62c-2.322,0-4.149-0.41-5.632-0.747
		c-0.935-0.205-1.734-0.383-2.355-0.383c-3.422,0-4.644,3.013-4.644,5.582v85.451C268.433,421.042,267.333,422.136,265.992,422.136z
		"/>
</g>
<rect x="202.851" y="419.675" style="fill:#353F49;" width="106.298" height="56.155"/>
<g>
	<rect x="197.999" y="427.702" style="fill:#474F59;" width="115.943" height="7.994"/>
	<rect x="197.999" y="443.788" style="fill:#474F59;" width="115.943" height="8.027"/>
	<rect x="197.999" y="459.809" style="fill:#474F59;" width="115.943" height="8.043"/>
	<rect x="221.448" y="475.83" style="fill:#474F59;" width="69.084" height="19.644"/>
</g>
<g>
	<polygon style="fill:#FFFFFF;" points="256.003,60.092 234.222,60.092 256.003,16.516 	"/>
	<polygon style="fill:#FFFFFF;" points="256.003,60.092 277.781,60.092 256.003,103.678 	"/>
	<polygon style="fill:#FFFFFF;" points="307.653,90.644 296.557,85.474 317.995,68.459 	"/>
	<polygon style="fill:#FFFFFF;" points="307.653,90.644 318.735,95.817 297.304,112.832 	"/>
	<polygon style="fill:#FFFFFF;" points="204.354,90.644 193.265,95.817 194.012,68.459 	"/>
	<polygon style="fill:#FFFFFF;" points="204.354,90.644 215.45,85.474 214.703,112.838 	"/>
</g>
<g>
</g>
<g>
</g>
<g>
</g>
<g>
</g>
<g>
</g>
<g>
</g>
<g>
</g>
<g>
</g>
<g>
</g>
<g>
</g>
<g>
</g>
<g>
</g>
<g>
</g>
<g>
</g>
<g>
</g>
</svg>
