<?xml version="1.0" encoding="iso-8859-1"?>
<!-- Generator: Adobe Illustrator 19.0.0, SVG Export Plug-In . SVG Version: 6.00 Build 0)  -->
<svg version="1.1" id="Layer_1" xmlns="http://www.w3.org/2000/svg" xmlns:xlink="http://www.w3.org/1999/xlink" x="0px" y="0px"
	 viewBox="0 0 512 512" style="enable-background:new 0 0 512 512;" xml:space="preserve">
<circle style="fill:#F2F2F2;" cx="256" cy="256" r="256"/>
<path style="fill:#353F49;" d="M87.955,381.199c-7.498,0-13.632-6.104-13.632-13.619V144.414c0-7.492,6.134-13.613,13.632-13.613
	h336.113c7.498,0,13.609,6.124,13.609,13.613v223.169c0,7.515-6.114,13.619-13.609,13.619H87.955V381.199z"/>
<g>
	<path style="fill:#474F59;" d="M422.489,269.811c0,3.326-2.705,6.058-6.055,6.058h-1.486c-3.356,0-6.078-2.732-6.078-6.058v-27.625
		c0-3.326,2.722-6.065,6.078-6.065h1.486c3.349,0,6.055,2.738,6.055,6.065V269.811z"/>
	<path style="fill:#474F59;" d="M98.311,256.026c0,3.449-2.775,6.2-6.25,6.2c-3.409,0-6.236-2.752-6.236-6.2
		c0-3.435,2.824-6.253,6.236-6.253C95.536,249.773,98.311,252.591,98.311,256.026z"/>
</g>
<path style="fill:#353F49;" d="M94.677,256.007c0,1.447-1.169,2.583-2.616,2.583c-1.427,0-2.583-1.14-2.583-2.583
	c0-1.443,1.159-2.61,2.583-2.61C93.511,253.397,94.677,254.56,94.677,256.007z"/>
<rect x="109.832" y="145.025" style="fill:#FFFFFF;" width="283.846" height="221.977"/>
<rect x="125.354" y="198.194" style="fill:#F77B55;" width="117.278" height="65.979"/>
<polygon style="fill:#FFFFFF;" points="173.902,219.529 194.078,231.17 173.902,242.85 "/>
<rect x="260.294" y="198.194" style="fill:#474F59;" width="48.29" height="27.166"/>
<polygon style="fill:#CCCBCA;" points="280.295,207.007 288.6,211.77 280.295,216.599 "/>
<rect x="260.294" y="236.973" style="fill:#474F59;" width="48.29" height="27.195"/>
<polygon style="fill:#CCCBCA;" points="280.295,245.783 288.6,250.606 280.295,255.382 "/>
<rect x="260.294" y="275.819" style="fill:#474F59;" width="48.29" height="27.153"/>
<polygon style="fill:#CCCBCA;" points="280.295,284.622 288.6,289.399 280.295,294.172 "/>
<g>
	<rect x="318.431" y="214.036" style="fill:#D9D8D7;" width="59.722" height="3.422"/>
	<rect x="318.431" y="221.977" style="fill:#D9D8D7;" width="59.722" height="3.389"/>
	<rect x="318.431" y="206.121" style="fill:#D9D8D7;" width="59.722" height="3.392"/>
	<rect x="318.431" y="198.194" style="fill:#D9D8D7;" width="34.027" height="3.429"/>
	<rect x="151.36" y="330.455" style="fill:#D9D8D7;" width="91.265" height="3.409"/>
	<rect x="151.36" y="338.349" style="fill:#D9D8D7;" width="45.631" height="3.422"/>
	<rect x="151.36" y="322.494" style="fill:#D9D8D7;" width="91.265" height="3.422"/>
	<rect x="125.354" y="314.599" style="fill:#D9D8D7;" width="51.986" height="3.425"/>
	<rect x="151.36" y="291.642" style="fill:#D9D8D7;" width="91.265" height="3.416"/>
	<rect x="151.36" y="299.57" style="fill:#D9D8D7;" width="69.995" height="3.416"/>
	<rect x="151.36" y="283.714" style="fill:#D9D8D7;" width="84.077" height="3.425"/>
	<rect x="125.354" y="275.819" style="fill:#D9D8D7;" width="85.098" height="3.429"/>
	<rect x="318.431" y="252.829" style="fill:#D9D8D7;" width="59.722" height="3.422"/>
	<rect x="318.431" y="260.75" style="fill:#D9D8D7;" width="59.722" height="3.429"/>
	<rect x="318.431" y="244.934" style="fill:#D9D8D7;" width="59.722" height="3.425"/>
	<rect x="318.431" y="236.973" style="fill:#D9D8D7;" width="34.027" height="3.429"/>
	<rect x="318.431" y="291.642" style="fill:#D9D8D7;" width="59.722" height="3.416"/>
	<rect x="318.431" y="299.57" style="fill:#D9D8D7;" width="59.722" height="3.416"/>
	<rect x="318.431" y="283.714" style="fill:#D9D8D7;" width="59.722" height="3.425"/>
	<rect x="318.431" y="275.819" style="fill:#D9D8D7;" width="34.027" height="3.429"/>
</g>
<rect x="260.294" y="314.599" style="fill:#474F59;" width="48.29" height="27.153"/>
<polygon style="fill:#CCCBCA;" points="280.295,323.409 288.6,328.189 280.295,332.972 "/>
<g>
	<rect x="318.431" y="330.455" style="fill:#D9D8D7;" width="59.722" height="3.409"/>
	<rect x="318.431" y="338.349" style="fill:#D9D8D7;" width="59.722" height="3.422"/>
	<rect x="318.431" y="322.494" style="fill:#D9D8D7;" width="59.722" height="3.422"/>
	<rect x="318.431" y="314.599" style="fill:#D9D8D7;" width="34.027" height="3.425"/>
</g>
<rect x="125.354" y="160.553" style="fill:#F77B55;" width="252.796" height="23.512"/>
<rect x="133.087" y="168.276" style="fill:#FFFFFF;" width="175.5" height="8.07"/>
<rect x="27.47" y="108.597" style="fill:#F77B55;" width="92.365" height="51.956"/>
<polygon style="fill:#FFFFFF;" points="65.711,125.397 81.596,134.557 65.711,143.756 "/>
<rect y="222.571" style="fill:#474F59;" width="63.026" height="35.463"/>
<polygon style="fill:#CCCBCA;" points="26.095,234.047 36.937,240.306 26.095,246.586 "/>
<rect x="378.153" y="85.263" style="fill:#474F59;" width="133.84" height="75.294"/>
<polygon style="fill:#CCCBCA;" points="433.568,109.601 456.595,122.887 433.568,136.215 "/>
<rect x="450.56" y="310.371" style="fill:#F77B55;" width="51.332" height="28.88"/>
<polygon style="fill:#FFFFFF;" points="471.8,319.706 480.629,324.803 471.8,329.913 "/>
<g>
</g>
<g>
</g>
<g>
</g>
<g>
</g>
<g>
</g>
<g>
</g>
<g>
</g>
<g>
</g>
<g>
</g>
<g>
</g>
<g>
</g>
<g>
</g>
<g>
</g>
<g>
</g>
<g>
</g>
</svg>
