<?xml version="1.0" encoding="iso-8859-1"?>
<!-- Generator: Adobe Illustrator 19.0.0, SVG Export Plug-In . SVG Version: 6.00 Build 0)  -->
<svg version="1.1" id="Layer_1" xmlns="http://www.w3.org/2000/svg" xmlns:xlink="http://www.w3.org/1999/xlink" x="0px" y="0px"
	 viewBox="0 0 512 512" style="enable-background:new 0 0 512 512;" xml:space="preserve">
<polygon style="fill:#FFFFFF;" points="402.842,74.973 402.842,330.362 110.41,330.362 44.308,396.456 44.308,330.362 
	2.463,330.362 2.463,74.973 "/>
<g>
	<path style="fill:#232E38;" d="M44.308,398.918c-0.32,0-0.637-0.059-0.942-0.187c-0.922-0.379-1.521-1.277-1.521-2.276v-63.631
		H2.463c-1.359,0-2.463-1.101-2.463-2.463V74.973c0-1.362,1.103-2.46,2.463-2.46h400.379c1.357,0,2.463,1.101,2.463,2.46v255.388
		c0,1.362-1.106,2.463-2.463,2.463h-291.41l-65.382,65.375C45.578,398.67,44.948,398.918,44.308,398.918z M4.925,327.901h39.38
		c1.359,0,2.463,1.101,2.463,2.46v60.15l61.898-61.893c0.463-0.461,1.088-0.717,1.741-0.717h289.969V77.436H4.925V327.901z"/>
	<path style="fill:#232E38;" d="M44.308,113.425L44.308,113.425c-0.54,0-1.055-0.215-1.436-0.596l-6.415-6.431
		c-0.791-0.794-0.788-2.079,0.005-2.87c0.794-0.786,2.079-0.794,2.867,0.005l4.979,4.995l9.536-9.533
		c0.794-0.794,2.076-0.794,2.87,0s0.791,2.076,0,2.87l-10.97,10.967C45.361,113.21,44.846,113.425,44.308,113.425z"/>
	<path style="fill:#232E38;" d="M44.308,139.498L44.308,139.498c-0.54,0-1.057-0.215-1.436-0.596l-6.415-6.433
		c-0.791-0.794-0.788-2.079,0.005-2.87c0.796-0.786,2.079-0.794,2.867,0.005l4.982,4.997l9.533-9.533
		c0.794-0.794,2.076-0.794,2.87,0c0.794,0.794,0.791,2.079,0,2.87l-10.97,10.97C45.361,139.283,44.846,139.498,44.308,139.498z"/>
	<path style="fill:#232E38;" d="M44.308,165.574L44.308,165.574c-0.54,0-1.055-0.215-1.436-0.596l-6.415-6.433
		c-0.791-0.794-0.788-2.076,0.005-2.87c0.794-0.791,2.079-0.791,2.867,0.005l4.979,4.995l9.536-9.533
		c0.794-0.794,2.076-0.794,2.87,0c0.794,0.794,0.791,2.079,0,2.87l-10.97,10.967C45.361,165.359,44.846,165.574,44.308,165.574z"/>
	<path style="fill:#232E38;" d="M44.308,191.651L44.308,191.651c-0.54,0-1.057-0.215-1.436-0.596l-6.415-6.436
		c-0.791-0.794-0.788-2.076,0.005-2.87c0.796-0.791,2.079-0.791,2.867,0.005l4.982,4.997l9.533-9.533
		c0.794-0.794,2.076-0.794,2.87,0c0.794,0.791,0.791,2.076,0,2.87l-10.97,10.967C45.361,191.436,44.846,191.651,44.308,191.651z"/>
	<path style="fill:#232E38;" d="M44.308,217.724L44.308,217.724c-0.54,0-1.055-0.215-1.436-0.596l-6.415-6.431
		c-0.791-0.794-0.788-2.079,0.005-2.87c0.794-0.788,2.079-0.788,2.867,0.005l4.979,4.995l9.536-9.533
		c0.794-0.794,2.076-0.794,2.87,0s0.791,2.076,0,2.87l-10.97,10.967C45.361,217.509,44.846,217.724,44.308,217.724z"/>
	<path style="fill:#232E38;" d="M44.308,243.8L44.308,243.8c-0.54,0-1.057-0.215-1.436-0.596l-6.415-6.433
		c-0.791-0.794-0.788-2.079,0.005-2.87c0.796-0.788,2.079-0.788,2.867,0.005l4.982,4.997l9.533-9.533
		c0.794-0.794,2.076-0.794,2.87,0s0.791,2.079,0,2.87l-10.97,10.97C45.361,243.585,44.846,243.8,44.308,243.8z"/>
	<path style="fill:#232E38;" d="M44.308,269.876L44.308,269.876c-0.54,0-1.055-0.215-1.436-0.596l-6.415-6.433
		c-0.791-0.794-0.788-2.079,0.005-2.87c0.794-0.788,2.079-0.788,2.867,0.008l4.979,4.992l9.536-9.533
		c0.794-0.794,2.076-0.794,2.87,0c0.794,0.794,0.791,2.079,0,2.87l-10.97,10.967C45.361,269.661,44.846,269.876,44.308,269.876z"/>
	<path style="fill:#232E38;" d="M44.308,295.95L44.308,295.95c-0.54,0-1.057-0.215-1.436-0.596l-6.415-6.436
		c-0.791-0.794-0.788-2.079,0.005-2.87c0.796-0.788,2.079-0.788,2.867,0.008l4.982,4.997l9.533-9.536
		c0.794-0.794,2.076-0.794,2.87,0s0.791,2.079,0,2.87l-10.97,10.967C45.361,295.735,44.846,295.95,44.308,295.95z"/>
	<path style="fill:#232E38;" d="M367.414,113.425H74.647c-1.121,0-2.028-0.909-2.028-2.028c0-1.121,0.906-2.028,2.028-2.028h292.767
		c1.121,0,2.03,0.906,2.03,2.028C369.444,112.516,368.535,113.425,367.414,113.425z"/>
	<path style="fill:#232E38;" d="M367.414,139.498H74.647c-1.121,0-2.028-0.909-2.028-2.028c0-1.119,0.906-2.028,2.028-2.028h292.767
		c1.121,0,2.03,0.909,2.03,2.028C369.444,138.589,368.535,139.498,367.414,139.498z"/>
	<path style="fill:#232E38;" d="M367.414,165.58H74.647c-1.121,0-2.028-0.909-2.028-2.028c0-1.121,0.906-2.028,2.028-2.028h292.767
		c1.121,0,2.03,0.906,2.03,2.028C369.444,164.671,368.535,165.58,367.414,165.58z"/>
	<path style="fill:#232E38;" d="M367.414,191.656H74.647c-1.121,0-2.028-0.909-2.028-2.028c0-1.119,0.906-2.028,2.028-2.028h292.767
		c1.121,0,2.03,0.909,2.03,2.028C369.444,190.747,368.535,191.656,367.414,191.656z"/>
	<path style="fill:#232E38;" d="M367.414,217.74H74.647c-1.121,0-2.028-0.909-2.028-2.028c0-1.119,0.906-2.028,2.028-2.028h292.767
		c1.121,0,2.03,0.909,2.03,2.028C369.444,216.831,368.535,217.74,367.414,217.74z"/>
	<path style="fill:#232E38;" d="M367.414,243.811H74.647c-1.121,0-2.028-0.909-2.028-2.028s0.906-2.028,2.028-2.028h292.767
		c1.121,0,2.03,0.909,2.03,2.028S368.535,243.811,367.414,243.811z"/>
	<path style="fill:#232E38;" d="M367.414,269.897H74.647c-1.121,0-2.028-0.909-2.028-2.03c0-1.121,0.906-2.03,2.028-2.03h292.767
		c1.121,0,2.03,0.909,2.03,2.03C369.444,268.988,368.535,269.897,367.414,269.897z"/>
	<path style="fill:#232E38;" d="M367.414,295.971H74.647c-1.121,0-2.028-0.909-2.028-2.03s0.906-2.028,2.028-2.028h292.767
		c1.121,0,2.03,0.906,2.03,2.028C369.444,295.062,368.535,295.971,367.414,295.971z"/>
</g>
<path style="fill:#FFFFFF;" d="M402.803,223.735v106.67h106.696C509.496,271.443,461.773,223.735,402.803,223.735z"/>
<path style="fill:#F77B55;" d="M402.803,330.405v-106.67c-58.872,0-106.673,47.708-106.673,106.67
	c0,58.934,47.8,106.591,106.673,106.591c29.537,0,56.113-11.953,75.382-31.27L402.803,330.405z"/>
<path style="fill:#FDCA5C;" d="M402.803,330.405l75.382,75.32c19.149-19.208,31.311-45.873,31.311-75.32H402.803z"/>
<g>
	<path style="fill:#232E38;" d="M509.537,332.819H402.842c-1.357,0-2.463-1.101-2.463-2.463V223.694c0-1.362,1.106-2.46,2.463-2.46
		c1.357,0,2.463,1.101,2.463,2.46v104.2h104.233c1.357,0,2.463,1.103,2.463,2.463C512,331.718,510.894,332.819,509.537,332.819z"/>
	<path style="fill:#232E38;" d="M478.321,408.265c-0.627,0-1.26-0.243-1.743-0.719L401.101,332.1c-0.963-0.96-0.963-2.519,0-3.482
		s2.516-0.963,3.484-0.003l75.479,75.446c0.96,0.96,0.96,2.519,0,3.482C479.583,408.022,478.953,408.265,478.321,408.265z"/>
	<path style="fill:#232E38;" d="M402.842,439.487c-60.175,0-109.135-48.955-109.135-109.13c0-60.168,48.96-109.117,109.135-109.117
		c60.18,0,109.14,48.95,109.14,109.117C511.982,390.532,463.022,439.487,402.842,439.487z M402.842,226.162
		c-57.462,0-104.21,46.743-104.21,104.195c0,57.459,46.748,104.205,104.21,104.205c57.464,0,104.218-46.746,104.218-104.205
		C507.059,272.905,460.308,226.162,402.842,226.162z"/>
</g>
<rect x="42.176" y="417.151" style="fill:#FDCA5C;" width="213.197" height="19.848"/>
<polygon style="fill:#FFFFFF;" points="255.378,417.148 288.453,427.055 255.378,436.996 "/>
<polygon style="fill:#232E38;" points="271.918,432.032 288.453,427.055 271.918,422.112 "/>
<rect x="22.321" y="417.151" style="fill:#FFFFFF;" width="19.855" height="19.848"/>
<path style="fill:#F77B55;" d="M2.463,427.055c0,2.57,0.957,5.105,2.898,7.048c1.943,1.94,4.488,2.893,7.037,2.893h9.923v-19.848
	h-9.923c-2.55,0-5.094,0.95-7.037,2.89C3.418,421.981,2.463,424.516,2.463,427.055L2.463,427.055z"/>
<g>
	<path style="fill:#232E38;" d="M255.378,439.456H42.176c-1.359,0-2.463-1.101-2.463-2.46v-19.848c0-1.362,1.103-2.463,2.463-2.463
		h213.202c1.359,0,2.463,1.101,2.463,2.463v19.848C257.841,438.355,256.737,439.456,255.378,439.456z M44.641,434.533h208.276
		v-14.925H44.641V434.533z"/>
	<path style="fill:#232E38;" d="M255.378,439.456c-0.525,0-1.042-0.166-1.472-0.484c-0.622-0.466-0.991-1.198-0.991-1.974v-19.848
		c0-0.781,0.369-1.513,0.991-1.974c0.625-0.466,1.439-0.599,2.179-0.384l33.075,9.907c1.042,0.315,1.756,1.272,1.759,2.36
		c0,1.088-0.712,2.048-1.756,2.36l-33.078,9.94C255.852,439.423,255.616,439.456,255.378,439.456z M257.841,420.456v13.227
		l22.042-6.623L257.841,420.456z"/>
	<path style="fill:#232E38;" d="M271.918,434.495c-0.525,0-1.039-0.166-1.469-0.484c-0.625-0.466-0.996-1.198-0.996-1.976v-9.92
		c0-0.778,0.369-1.51,0.993-1.974c0.625-0.463,1.436-0.599,2.179-0.384l16.535,4.946c1.042,0.312,1.759,1.272,1.761,2.358
		c0,1.091-0.712,2.051-1.756,2.363l-16.535,4.974C272.394,434.459,272.156,434.495,271.918,434.495z M274.383,425.419v3.3
		l5.499-1.654L274.383,425.419z"/>
	<path style="fill:#232E38;" d="M42.176,439.456H22.321c-1.359,0-2.463-1.101-2.463-2.46v-19.848c0-1.362,1.103-2.463,2.463-2.463
		h19.855c1.359,0,2.463,1.101,2.463,2.463v19.848C44.641,438.355,43.535,439.456,42.176,439.456z M24.783,434.533h14.93v-14.925
		h-14.93V434.533z"/>
	<path style="fill:#232E38;" d="M22.321,439.456h-9.923c-3.328,0-6.446-1.28-8.778-3.61C1.285,433.512,0,430.391,0,427.055
		c0-3.313,1.285-6.426,3.62-8.758c2.335-2.33,5.45-3.612,8.778-3.612h9.923c1.359,0,2.463,1.101,2.463,2.463v19.848
		C24.783,438.355,23.68,439.456,22.321,439.456z M12.398,419.608c-2.015,0-3.894,0.773-5.297,2.176
		c-1.4,1.4-2.173,3.274-2.173,5.274c0,2.017,0.773,3.901,2.176,5.307c1.4,1.398,3.282,2.171,5.297,2.171h7.46v-14.925h-7.462
		V419.608z"/>
</g>
<g>
</g>
<g>
</g>
<g>
</g>
<g>
</g>
<g>
</g>
<g>
</g>
<g>
</g>
<g>
</g>
<g>
</g>
<g>
</g>
<g>
</g>
<g>
</g>
<g>
</g>
<g>
</g>
<g>
</g>
</svg>
