<?xml version="1.0" encoding="iso-8859-1"?>
<!-- Generator: Adobe Illustrator 19.0.0, SVG Export Plug-In . SVG Version: 6.00 Build 0)  -->
<svg version="1.1" id="Layer_1" xmlns="http://www.w3.org/2000/svg" xmlns:xlink="http://www.w3.org/1999/xlink" x="0px" y="0px"
	 viewBox="0 0 512 512" style="enable-background:new 0 0 512 512;" xml:space="preserve">
<circle style="fill:#F77B55;" cx="72.371" cy="284.801" r="44.068"/>
<path style="fill:#FFFFFF;" d="M109.005,284.794c0,20.244-16.399,36.641-36.644,36.641c-20.247,0-36.646-16.394-36.646-36.641
	c0-20.239,16.399-36.646,36.646-36.646C92.605,248.147,109.005,264.554,109.005,284.794z"/>
<g>
	<path style="fill:#232E38;" d="M72.361,330.733c-25.334,0-45.942-20.608-45.942-45.939c0-25.331,20.608-45.939,45.942-45.939
		c25.329,0,45.937,20.605,45.937,45.939S97.69,330.733,72.361,330.733z M72.361,242.595c-23.27,0-42.202,18.931-42.202,42.199
		s18.931,42.199,42.202,42.199c23.265,0,42.196-18.934,42.196-42.199S95.626,242.595,72.361,242.595z"/>
	<path style="fill:#232E38;" d="M72.361,323.304c-21.238,0-38.515-17.277-38.515-38.51c0-21.238,17.28-38.515,38.515-38.515
		s38.513,17.28,38.513,38.515C110.876,306.026,93.599,323.304,72.361,323.304z M72.361,250.019
		c-19.177,0-34.775,15.601-34.775,34.775c0,19.172,15.601,34.77,34.775,34.77s34.772-15.598,34.772-34.77
		C107.136,265.619,91.535,250.019,72.361,250.019z"/>
	<path style="fill:#232E38;" d="M72.361,290.784c-3.302,0-5.988-2.688-5.988-5.99c0-3.302,2.685-5.99,5.988-5.99
		c3.3,0,5.983,2.688,5.983,5.99C78.344,288.096,75.661,290.784,72.361,290.784z M72.361,282.543c-1.239,0-2.248,1.009-2.248,2.25
		c0,1.242,1.009,2.25,2.248,2.25c1.236,0,2.243-1.009,2.243-2.25C74.604,283.552,73.6,282.543,72.361,282.543z"/>
	<path style="fill:#232E38;" d="M72.361,282.543c-1.032,0-1.869-0.837-1.869-1.869V257.32c0-1.034,0.837-1.869,1.869-1.869
		c1.032,0,1.869,0.837,1.869,1.869v23.355C74.232,281.706,73.393,282.543,72.361,282.543z"/>
</g>
<path style="fill:#EE643C;" d="M52.931,306.09c-0.479,0-0.957-0.184-1.324-0.55c-0.73-0.73-0.73-1.912,0-2.642l19.43-19.428
	c0.73-0.73,1.915-0.73,2.644,0s0.73,1.915,0,2.644l-19.43,19.425C53.888,305.906,53.409,306.09,52.931,306.09z"/>
<g>
	<path style="fill:#232E38;" d="M90.678,286.665H76.475c-1.034,0-1.871-0.837-1.871-1.869c0-1.032,0.837-1.869,1.871-1.869h14.203
		c1.032,0,1.869,0.837,1.869,1.869C92.547,285.828,91.712,286.665,90.678,286.665z"/>
	<path style="fill:#232E38;" d="M72.361,255.976c-1.032,0-1.869-0.837-1.869-1.869v-2.744c0-1.032,0.837-1.869,1.869-1.869
		c1.032,0,1.869,0.837,1.869,1.869v2.744C74.232,255.139,73.393,255.976,72.361,255.976z"/>
	<path style="fill:#232E38;" d="M57.019,260.087c-0.645,0-1.272-0.335-1.618-0.932l-1.377-2.373
		c-0.517-0.896-0.212-2.038,0.681-2.557c0.891-0.517,2.035-0.215,2.555,0.678l1.377,2.373c0.517,0.896,0.212,2.038-0.678,2.557
		C57.659,260.003,57.336,260.087,57.019,260.087z"/>
	<path style="fill:#232E38;" d="M45.783,271.32c-0.32,0-0.643-0.079-0.94-0.253l-2.376-1.382c-0.891-0.517-1.193-1.661-0.676-2.555
		c0.52-0.896,1.661-1.196,2.557-0.678l2.376,1.38c0.891,0.52,1.193,1.664,0.676,2.557C47.053,270.988,46.426,271.32,45.783,271.32z"
		/>
	<path style="fill:#232E38;" d="M41.672,286.665h-2.747c-1.032,0-1.869-0.837-1.869-1.869c0-1.032,0.837-1.869,1.869-1.869h2.747
		c1.032,0,1.869,0.837,1.869,1.869C43.54,285.828,42.706,286.665,41.672,286.665z"/>
	<path style="fill:#232E38;" d="M43.41,303.384c-0.645,0-1.275-0.338-1.62-0.937c-0.515-0.893-0.21-2.038,0.686-2.552l2.376-1.372
		c0.896-0.512,2.035-0.21,2.555,0.686c0.515,0.893,0.21,2.038-0.684,2.555l-2.376,1.37C44.047,303.303,43.727,303.384,43.41,303.384
		z"/>
	<path style="fill:#232E38;" d="M55.639,315.621c-0.32,0-0.64-0.082-0.934-0.253c-0.893-0.517-1.198-1.661-0.684-2.555l1.377-2.378
		c0.52-0.896,1.664-1.201,2.555-0.684c0.893,0.517,1.198,1.661,0.681,2.555l-1.377,2.378
		C56.911,315.286,56.282,315.621,55.639,315.621z"/>
	<path style="fill:#232E38;" d="M72.361,320.096c-1.032,0-1.869-0.837-1.869-1.869v-2.744c0-1.032,0.837-1.869,1.869-1.869
		c1.032,0,1.869,0.837,1.869,1.869v2.744C74.232,319.259,73.393,320.096,72.361,320.096z"/>
	<path style="fill:#232E38;" d="M89.08,315.621c-0.643,0-1.272-0.335-1.618-0.932l-1.38-2.378c-0.52-0.896-0.215-2.038,0.678-2.557
		c0.893-0.517,2.038-0.212,2.555,0.681l1.38,2.378c0.517,0.896,0.212,2.038-0.681,2.557C89.723,315.539,89.4,315.621,89.08,315.621z
		"/>
	<path style="fill:#232E38;" d="M101.315,303.384c-0.317,0-0.637-0.082-0.932-0.253l-2.381-1.37
		c-0.893-0.517-1.201-1.659-0.686-2.555c0.517-0.893,1.654-1.201,2.555-0.686l2.381,1.372c0.896,0.515,1.201,1.656,0.686,2.552
		C102.589,303.047,101.962,303.384,101.315,303.384z"/>
	<path style="fill:#232E38;" d="M105.792,286.665h-2.744c-1.032,0-1.869-0.837-1.869-1.869c0-1.032,0.837-1.869,1.869-1.869h2.744
		c1.032,0,1.869,0.837,1.869,1.869C107.661,285.828,106.824,286.665,105.792,286.665z"/>
	<path style="fill:#232E38;" d="M98.934,271.32c-0.643,0-1.272-0.333-1.618-0.929c-0.52-0.896-0.215-2.038,0.678-2.557l2.381-1.38
		c0.896-0.52,2.035-0.218,2.557,0.678c0.517,0.896,0.212,2.038-0.678,2.555l-2.381,1.382
		C99.576,271.241,99.254,271.32,98.934,271.32z"/>
	<path style="fill:#232E38;" d="M87.698,260.087c-0.32,0-0.643-0.082-0.937-0.253c-0.893-0.52-1.196-1.664-0.676-2.557l1.38-2.373
		c0.52-0.896,1.667-1.198,2.555-0.678c0.893,0.52,1.196,1.664,0.678,2.557l-1.38,2.373
		C88.968,259.752,88.343,260.087,87.698,260.087z"/>
</g>
<path style="fill:#FDCA5C;" d="M484.173,285.26c0,24.599-19.93,44.534-44.534,44.534c-24.607,0-44.531-19.932-44.531-44.534
	c0-24.602,19.922-44.534,44.531-44.534C464.243,240.726,484.173,260.655,484.173,285.26z"/>
<g>
	<path style="fill:#232E38;" d="M439.639,332.062c-25.805,0-46.799-20.995-46.799-46.802c0-25.81,20.995-46.802,46.799-46.802
		c25.807,0,46.805,20.992,46.805,46.802C486.446,311.067,465.446,332.062,439.639,332.062z M439.639,242.994
		c-23.301,0-42.258,18.959-42.258,42.266c0,23.306,18.957,42.263,42.258,42.263c23.304,0,42.26-18.957,42.26-42.263
		C481.899,261.953,462.943,242.994,439.639,242.994z"/>
	<path style="fill:#232E38;" d="M439.639,320.933c-19.671,0-35.676-16.005-35.676-35.676c0-19.674,16.005-35.676,35.676-35.676
		c19.668,0,35.674,16.003,35.674,35.676C475.313,304.928,459.308,320.933,439.639,320.933z M439.639,254.122
		c-17.167,0-31.135,13.97-31.135,31.137c0,17.167,13.967,31.137,31.135,31.137c17.162,0,31.127-13.97,31.127-31.137
		C470.766,268.092,456.801,254.122,439.639,254.122z"/>
	<path style="fill:#232E38;" d="M442.721,287.525h-6.167c-2.529,0-4.905-0.98-6.689-2.767c-1.784-1.797-2.765-4.175-2.765-6.694
		c0-2.529,0.983-4.9,2.765-6.682c1.774-1.784,4.152-2.775,6.689-2.775h13.355c1.254,0,2.273,1.014,2.273,2.271
		s-1.016,2.271-2.273,2.271h-13.355c-1.318,0-2.552,0.512-3.474,1.441c-0.929,0.929-1.441,2.161-1.441,3.474
		c0,1.313,0.512,2.557,1.444,3.492c0.916,0.922,2.153,1.434,3.469,1.434h6.167c1.254,0,2.271,1.014,2.271,2.271
		S443.978,287.525,442.721,287.525z"/>
	<path style="fill:#232E38;" d="M442.721,301.905h-13.353c-1.252,0-2.271-1.014-2.271-2.271c0-1.252,1.016-2.268,2.271-2.268h13.353
		c1.311,0,2.547-0.515,3.474-1.441c0.929-0.927,1.441-2.166,1.441-3.482c0-1.308-0.509-2.542-1.444-3.479
		c-0.922-0.919-2.161-1.436-3.469-1.436h-6.167c-1.254,0-2.271-1.014-2.271-2.268s1.014-2.271,2.271-2.271h6.167
		c2.522,0,4.895,0.98,6.684,2.762c1.787,1.8,2.775,4.173,2.775,6.689c0,2.529-0.988,4.908-2.775,6.694
		C447.619,300.924,445.245,301.905,442.721,301.905z"/>
	<path style="fill:#232E38;" d="M439.639,306.014c-1.254,0-2.273-1.014-2.273-2.268v-36.974c0-1.254,1.016-2.271,2.273-2.271
		c1.252,0,2.271,1.014,2.271,2.271v36.974C441.91,305,440.893,306.014,439.639,306.014z"/>
	<path style="fill:#232E38;" d="M439.639,135.597H72.361c-1.254,0-2.271-1.014-2.271-2.268c0-1.254,1.016-2.268,2.271-2.268h367.278
		c1.252,0,2.271,1.014,2.271,2.268C441.91,134.583,440.893,135.597,439.639,135.597z"/>
</g>
<g>
	<path style="fill:#FFFFFF;" d="M2.271,300.502c0,38.71,31.383,70.093,70.09,70.093s70.09-31.383,70.09-70.093H2.271z"/>
	<path style="fill:#FFFFFF;" d="M369.546,300.502c0,38.71,31.386,70.093,70.093,70.093c38.705,0,70.09-31.383,70.09-70.093H369.546z
		"/>
</g>
<g>
	<path style="fill:#232E38;" d="M72.361,372.863C32.461,372.863,0,340.402,0,300.502c0-1.254,1.016-2.271,2.271-2.271h140.183
		c1.254,0,2.271,1.014,2.271,2.271C144.722,340.402,112.264,372.863,72.361,372.863z M4.58,302.77
		c1.201,36.352,31.148,65.556,67.784,65.556s66.583-29.204,67.784-65.556H4.58z"/>
	<path style="fill:#232E38;" d="M439.639,372.863c-39.903,0-72.363-32.463-72.363-72.363c0-1.254,1.016-2.271,2.271-2.271h140.183
		c1.252,0,2.271,1.014,2.271,2.271C512,340.402,479.539,372.863,439.639,372.863z M371.855,302.77
		c1.203,36.352,31.145,65.556,67.786,65.556c36.639,0,66.58-29.204,67.784-65.556H371.855z"/>
	<path style="fill:#232E38;" d="M132.508,302.77c-0.02,0-0.036,0-0.054,0H12.268c-0.74,0-1.434-0.361-1.859-0.963
		c-0.425-0.604-0.53-1.377-0.279-2.074l60.093-167.173c0.323-0.904,1.178-1.503,2.135-1.503c0.957,0,1.812,0.599,2.135,1.503
		l59.94,166.74c0.218,0.351,0.343,0.758,0.343,1.201C134.779,301.756,133.763,302.77,132.508,302.77z M15.496,298.231h113.731
		L72.361,140.039L15.496,298.231z"/>
	<path style="fill:#232E38;" d="M499.732,302.77H379.546c-0.737,0-1.434-0.361-1.859-0.963c-0.425-0.604-0.53-1.377-0.279-2.074
		l60.096-167.173c0.323-0.904,1.18-1.503,2.138-1.503c0.955,0,1.812,0.599,2.135,1.503l60.096,167.173
		c0.251,0.694,0.146,1.467-0.279,2.074C501.166,302.409,500.47,302.77,499.732,302.77z M382.774,298.231h113.731l-56.865-158.193
		L382.774,298.231z"/>
</g>
<g>
	<path style="fill:#FFFFFF;" d="M213.944,154.349c0,3.589-1.367,7.178-4.106,9.917c-2.739,2.734-6.326,4.106-9.912,4.106l0,0
		c-3.589,0-7.178-1.372-9.915-4.106c-2.737-2.739-4.106-6.328-4.106-9.917v-42.053c0-3.584,1.37-7.173,4.106-9.912
		c2.737-2.739,6.326-4.106,9.915-4.106l0,0c3.587,0,7.173,1.367,9.912,4.106c2.739,2.739,4.106,6.328,4.106,9.912V154.349z"/>
	<path style="fill:#FFFFFF;" d="M241.984,154.349c0,3.589-1.372,7.178-4.106,9.917c-2.739,2.734-6.328,4.106-9.915,4.106l0,0
		c-3.587,0-7.176-1.372-9.915-4.106c-2.737-2.739-4.106-6.328-4.106-9.917v-42.053c0-3.584,1.37-7.173,4.106-9.912
		c2.739-2.739,6.328-4.106,9.915-4.106l0,0c3.587,0,7.176,1.367,9.915,4.106c2.734,2.739,4.106,6.328,4.106,9.912V154.349z"/>
	<path style="fill:#FFFFFF;" d="M270.021,154.349c0,3.589-1.37,7.178-4.106,9.917c-2.739,2.734-6.328,4.106-9.915,4.106l0,0
		c-3.589,0-7.176-1.372-9.912-4.106c-2.739-2.739-4.106-6.328-4.106-9.917v-42.053c0-3.584,1.367-7.173,4.106-9.912
		c2.737-2.739,6.323-4.106,9.912-4.106l0,0c3.587,0,7.176,1.367,9.915,4.106c2.734,2.739,4.106,6.328,4.106,9.912V154.349z"/>
	<path style="fill:#FFFFFF;" d="M298.056,154.349c0,3.589-1.37,7.178-4.106,9.917c-2.737,2.734-6.328,4.106-9.915,4.106l0,0
		c-3.584,0-7.176-1.372-9.91-4.106c-2.739-2.739-4.106-6.328-4.106-9.917v-42.053c0-3.584,1.364-7.173,4.106-9.912
		c2.734-2.739,6.326-4.106,9.91-4.106l0,0c3.587,0,7.178,1.367,9.915,4.106c2.734,2.739,4.106,6.328,4.106,9.912V154.349z"/>
	<rect x="185.907" y="154.344" style="fill:#FFFFFF;" width="140.183" height="119.155"/>
	<rect x="298.061" y="133.326" style="fill:#FFFFFF;" width="28.037" height="49.075"/>
	<path style="fill:#FFFFFF;" d="M275.377,82.608l-2.975,2.98c-4.314,4.308-6.981,10.271-6.981,16.85
		c0,6.584,2.67,12.541,6.981,16.85l33.864,33.866l19.827-19.827L275.377,82.608z"/>
</g>
<g>
	<path style="fill:#232E38;" d="M199.928,170.641c-4.349,0-8.44-1.692-11.517-4.767c-3.077-3.082-4.772-7.173-4.772-11.523v-42.056
		c0-4.349,1.695-8.438,4.769-11.517c3.075-3.077,7.165-4.769,11.52-4.769c4.352,0,8.44,1.692,11.52,4.769
		c3.075,3.077,4.767,7.165,4.767,11.517v42.056c0,4.355-1.692,8.445-4.767,11.52C208.364,168.949,204.273,170.641,199.928,170.641z
		 M199.928,100.548c-3.141,0-6.093,1.224-8.307,3.441c-2.22,2.222-3.443,5.174-3.443,8.307v42.056c0,3.139,1.224,6.09,3.443,8.312
		c2.22,2.217,5.169,3.441,8.307,3.441c3.136,0,6.083-1.224,8.307-3.443c2.217-2.217,3.441-5.171,3.441-8.31v-42.056
		c0-3.139-1.224-6.088-3.443-8.307C206.016,101.769,203.067,100.548,199.928,100.548z"/>
	<path style="fill:#232E38;" d="M227.963,170.641c-4.347,0-8.438-1.692-11.517-4.767c-3.077-3.082-4.772-7.173-4.772-11.523v-42.056
		c0-4.349,1.695-8.438,4.769-11.517c3.077-3.077,7.168-4.769,11.52-4.769c4.355,0,8.443,1.692,11.52,4.769
		c3.075,3.082,4.767,7.171,4.767,11.517v42.056c0,4.347-1.692,8.44-4.767,11.52C236.401,168.949,232.312,170.641,227.963,170.641z
		 M227.963,100.548c-3.139,0-6.09,1.224-8.307,3.441c-2.22,2.222-3.443,5.174-3.443,8.307v42.056c0,3.139,1.224,6.09,3.443,8.312
		c2.222,2.217,5.174,3.441,8.307,3.441c3.133,0,6.085-1.224,8.31-3.443c2.217-2.22,3.441-5.174,3.441-8.31v-42.056
		c0-3.133-1.224-6.085-3.443-8.307C234.053,101.769,231.101,100.548,227.963,100.548z"/>
	<path style="fill:#232E38;" d="M255.995,170.646c-2.081,0-4.142-0.399-6.113-1.188c-2.04-0.827-3.855-2.033-5.404-3.587
		c-3.075-3.075-4.767-7.165-4.767-11.517v-42.053c0-4.349,1.692-8.44,4.767-11.515c3.085-3.08,7.173-4.772,11.52-4.772
		c2.122,0,4.183,0.399,6.126,1.19c1.766,0.712,3.395,1.733,4.844,3.041c0.929,0.84,1.006,2.273,0.164,3.205
		c-0.835,0.934-2.271,1.009-3.205,0.164c-1.052-0.947-2.232-1.69-3.505-2.204c-4.27-1.731-9.418-0.719-12.731,2.586
		c-2.217,2.217-3.441,5.169-3.441,8.305v42.056c0,3.139,1.224,6.088,3.443,8.307c1.119,1.121,2.427,1.989,3.886,2.586
		c4.396,1.756,9.431,0.701,12.741-2.591c2.207-2.207,3.425-5.156,3.425-8.302v-37.862c0-1.254,1.016-2.268,2.271-2.268
		c1.249,0,2.268,1.014,2.268,2.268v37.862c0,4.36-1.69,8.448-4.757,11.517C264.43,168.954,260.334,170.646,255.995,170.646z"/>
	<path style="fill:#232E38;" d="M284.029,170.646c-2.081,0-4.137-0.399-6.116-1.188c-2.061-0.837-3.881-2.045-5.409-3.594
		c-3.067-3.069-4.762-7.158-4.762-11.507v-37.862c0-1.254,1.016-2.268,2.271-2.268c1.249,0,2.268,1.014,2.268,2.268v37.862
		c0,3.136,1.226,6.085,3.443,8.307c1.108,1.116,2.409,1.981,3.894,2.586c4.39,1.756,9.434,0.701,12.741-2.591
		c2.204-2.207,3.425-5.156,3.425-8.302v-9.421c0-1.254,1.016-2.268,2.271-2.268s2.271,1.014,2.271,2.268v9.421
		c0,4.36-1.69,8.448-4.756,11.517C292.462,168.954,288.374,170.646,284.029,170.646z"/>
	<path style="fill:#232E38;" d="M326.093,275.775H185.91c-1.254,0-2.271-1.014-2.271-2.268V154.349c0-1.254,1.016-2.268,2.271-2.268
		s2.271,1.014,2.271,2.268v116.887h135.642V134.268l-48.443-48.451l-1.38,1.372c-3.94,3.958-6.175,9.211-6.287,14.784l-0.01,0.456
		c0,4.636,1.431,9.032,4.142,12.718c0.658,0.916,1.375,1.759,2.148,2.519l25.667,25.659c0.422,0.428,0.663,1.004,0.663,1.605v30.29
		c0.044,0.64-0.187,1.285-0.658,1.759c-0.461,0.461-1.101,0.732-1.705,0.666c-21.896,0.051-39.688,17.879-39.688,39.788
		c0,1.254-1.016,2.268-2.268,2.268s-2.268-1.014-2.268-2.268c0-23.68,18.662-43.08,42.048-44.268v-27.29l-24.991-24.986
		c-0.945-0.932-1.83-1.969-2.624-3.075c-3.269-4.449-5.007-9.774-5.007-15.386c0-0.225,0.005-0.451,0.02-0.678
		c0.131-6.618,2.831-12.977,7.608-17.772l2.998-2.977c0.886-0.883,2.319-0.881,3.203,0.005l50.706,50.716
		c0.428,0.425,0.668,1.001,0.668,1.603l0.005,140.178c0,0.602-0.241,1.178-0.668,1.603
		C327.27,275.537,326.694,275.775,326.093,275.775z"/>
</g>
<rect x="173.99" y="273.512" style="fill:#FFFFFF;" width="164.019" height="155.884"/>
<rect x="173.99" y="273.512" style="fill:#F77B55;" width="164.019" height="155.884"/>
<path style="fill:#232E38;" d="M338.004,431.658H173.99c-1.252,0-2.271-1.014-2.271-2.271V273.504c0-1.254,1.016-2.271,2.271-2.271
	h164.014c1.254,0,2.273,1.014,2.273,2.271v155.884C340.278,430.645,339.259,431.658,338.004,431.658z M176.264,427.122h159.473
	V275.775H176.264V427.122z"/>
<circle style="fill:#FFFFFF;" cx="194.319" cy="300.52" r="8.41"/>
<path style="fill:#232E38;" d="M194.319,311.185c-5.888,0-10.68-4.787-10.68-10.678c0-5.893,4.792-10.685,10.68-10.685
	c5.891,0,10.678,4.792,10.678,10.685C205,306.398,200.21,311.185,194.319,311.185z M194.319,294.36
	c-3.387,0-6.141,2.757-6.141,6.144c0,3.384,2.755,6.139,6.141,6.139s6.139-2.755,6.139-6.139
	C200.461,297.12,197.706,294.36,194.319,294.36z"/>
<g>
</g>
<g>
</g>
<g>
</g>
<g>
</g>
<g>
</g>
<g>
</g>
<g>
</g>
<g>
</g>
<g>
</g>
<g>
</g>
<g>
</g>
<g>
</g>
<g>
</g>
<g>
</g>
<g>
</g>
</svg>
