<?xml version="1.0" encoding="iso-8859-1"?>
<!-- Generator: Adobe Illustrator 19.0.0, SVG Export Plug-In . SVG Version: 6.00 Build 0)  -->
<svg version="1.1" id="Layer_1" xmlns="http://www.w3.org/2000/svg" xmlns:xlink="http://www.w3.org/1999/xlink" x="0px" y="0px"
	 viewBox="0 0 512 512" style="enable-background:new 0 0 512 512;" xml:space="preserve">
<g>
	<circle style="fill:#FFFFFF;" cx="170.008" cy="385.459" r="124.083"/>
	<rect x="138.981" y="178.406" style="fill:#FFFFFF;" width="62.054" height="86.861"/>
	<rect x="129.074" y="141.184" style="fill:#FFFFFF;" width="81.897" height="37.228"/>
</g>
<circle style="fill:#FDCA5C;" cx="170.008" cy="303.386" r="31.027"/>
<g>
	<path style="fill:#232E38;" d="M170.011,336.435c-18.225,0-33.052-14.828-33.052-33.055c0-18.225,14.828-33.052,33.052-33.052
		c18.227,0,33.055,14.828,33.055,33.052C203.063,321.608,188.236,336.435,170.011,336.435z M170.011,274.386
		c-15.987,0-28.995,13.007-28.995,28.995s13.007,28.997,28.995,28.997s28.997-13.01,28.997-28.997S185.998,274.386,170.011,274.386z
		"/>
	<path style="fill:#232E38;" d="M170.011,328.681c-13.952,0-25.3-11.348-25.3-25.3c0-13.952,11.351-25.301,25.3-25.301
		s25.303,11.348,25.303,25.301C195.314,317.332,183.96,328.681,170.011,328.681z M170.011,282.138
		c-11.715,0-21.243,9.528-21.243,21.243s9.528,21.243,21.243,21.243c11.715,0,21.245-9.528,21.245-21.243
		S181.725,282.138,170.011,282.138z"/>
	<path style="fill:#232E38;" d="M172.159,305.411h-4.293c-1.882,0-3.651-0.73-4.977-2.061c-1.326-1.331-2.063-3.098-2.063-4.977
		c0-1.882,0.735-3.648,2.066-4.977c1.326-1.329,3.09-2.061,4.974-2.061h9.303c1.121,0,2.028,0.906,2.028,2.027
		c0,1.121-0.906,2.03-2.028,2.03h-9.303c-0.799,0-1.546,0.31-2.109,0.873s-0.873,1.313-0.873,2.107c0,0.794,0.312,1.546,0.873,2.107
		c0.563,0.563,1.311,0.873,2.109,0.873h4.293c1.121,0,2.028,0.906,2.028,2.028C174.186,304.502,173.277,305.411,172.159,305.411z"/>
	<path style="fill:#232E38;" d="M172.159,315.428h-9.3c-1.121,0-2.03-0.909-2.03-2.03c0-1.121,0.911-2.03,2.03-2.03h9.3
		c0.796,0,1.546-0.307,2.104-0.87c0.566-0.563,0.876-1.313,0.876-2.104c0-0.799-0.31-1.546-0.873-2.104
		c-0.566-0.568-1.313-0.878-2.107-0.878h-4.293c-1.121,0-2.033-0.909-2.033-2.03c0-1.121,0.911-2.028,2.033-2.028h4.293
		c1.879,0,3.645,0.732,4.974,2.061c1.331,1.324,2.063,3.095,2.063,4.979c0,1.876-0.732,3.648-2.066,4.974
		C175.804,314.698,174.038,315.428,172.159,315.428z"/>
	<path style="fill:#232E38;" d="M170.011,318.29c-1.121,0-2.028-0.909-2.028-2.033v-25.756c0-1.121,0.906-2.033,2.028-2.033
		s2.03,0.911,2.03,2.033v25.756C172.041,317.381,171.13,318.29,170.011,318.29z"/>
</g>
<path style="fill:#FDCA5C;" d="M250.221,383.862c0,17.137-13.883,31.022-31.022,31.022s-31.022-13.885-31.022-31.022
	c0-17.137,13.883-31.022,31.022-31.022S250.221,366.725,250.221,383.862z"/>
<g>
	<path style="fill:#232E38;" d="M219.199,416.916c-18.227,0-33.055-14.827-33.055-33.055c0-18.225,14.828-33.052,33.055-33.052
		s33.055,14.828,33.055,33.052C252.253,402.089,237.426,416.916,219.199,416.916z M219.199,354.867
		c-15.99,0-28.997,13.007-28.997,28.995c0,15.987,13.007,28.995,28.997,28.995c15.987,0,28.995-13.007,28.995-28.995
		C248.193,367.875,235.186,354.867,219.199,354.867z"/>
	<path style="fill:#232E38;" d="M219.199,409.162c-13.955,0-25.3-11.348-25.3-25.3s11.348-25.3,25.3-25.3
		c13.952,0,25.3,11.348,25.3,25.3S233.151,409.162,219.199,409.162z M219.199,362.619c-11.715,0-21.243,9.528-21.243,21.243
		s9.528,21.243,21.243,21.243c11.715,0,21.243-9.528,21.243-21.243S230.913,362.619,219.199,362.619z"/>
	<path style="fill:#232E38;" d="M221.347,385.892h-4.296c-1.879,0-3.645-0.73-4.974-2.061c-1.331-1.331-2.063-3.098-2.063-4.977
		c0-1.882,0.732-3.648,2.063-4.977c1.324-1.329,3.092-2.061,4.974-2.061h9.306c1.121,0,2.028,0.906,2.028,2.028
		c0,1.121-0.906,2.03-2.028,2.03h-9.306c-0.799,0-1.546,0.31-2.104,0.87c-0.566,0.566-0.873,1.316-0.873,2.109
		c0,0.794,0.307,1.546,0.873,2.107c0.561,0.563,1.308,0.873,2.104,0.873h4.296c1.121,0,2.028,0.906,2.028,2.028
		C223.374,384.983,222.465,385.892,221.347,385.892z"/>
	<path style="fill:#232E38;" d="M221.347,395.909h-9.303c-1.121,0-2.028-0.909-2.028-2.03c0-1.121,0.906-2.03,2.028-2.03h9.303
		c0.799,0,1.546-0.307,2.104-0.868c0.563-0.563,0.87-1.311,0.87-2.107c0-0.801-0.305-1.546-0.868-2.104
		c-0.566-0.568-1.316-0.878-2.107-0.878h-4.296c-1.121,0-2.028-0.909-2.028-2.03c0-1.121,0.909-2.028,2.028-2.028h4.296
		c1.879,0,3.645,0.732,4.974,2.063c1.326,1.321,2.061,3.087,2.061,4.977c0,1.879-0.735,3.651-2.066,4.977
		C224.995,395.18,223.226,395.909,221.347,395.909z"/>
	<path style="fill:#232E38;" d="M219.199,398.774c-1.121,0-2.028-0.909-2.028-2.033v-25.756c0-1.121,0.906-2.033,2.028-2.033
		c1.121,0,2.028,0.911,2.028,2.033v25.756C221.226,397.862,220.32,398.774,219.199,398.774z"/>
</g>
<path style="fill:#FDCA5C;" d="M63.149,400.704c7.414,52.396,52.426,92.708,106.862,92.708c54.438,0,99.451-40.312,106.872-92.708
	H63.149z"/>
<g>
	<circle style="fill:#FFFFFF;" cx="129.048" cy="427.597" r="15.135"/>
	<circle style="fill:#FFFFFF;" cx="188.876" cy="466.56" r="7.114"/>
</g>
<g>
	<circle style="fill:#FDCA5C;" cx="141.874" cy="368.205" r="12.8"/>
	<circle style="fill:#FDCA5C;" cx="193.279" cy="34.885" r="17.395"/>
	<circle style="fill:#FDCA5C;" cx="162.072" cy="232.781" r="6.464"/>
	<circle style="fill:#FDCA5C;" cx="159.154" cy="118.374" r="9.948"/>
</g>
<circle style="fill:#FFFFFF;" cx="225.868" cy="432.538" r="9.708"/>
<g>
	<path style="fill:#232E38;" d="M120.603,26.726c-7.368,0-13.363-5.996-13.363-13.366C107.24,5.993,113.233,0,120.603,0
		c7.368,0,13.368,5.993,13.368,13.361C133.971,20.731,127.971,26.726,120.603,26.726z M120.603,4.923
		c-4.652,0-8.435,3.786-8.435,8.438s3.784,8.438,8.435,8.438c4.654,0,8.438-3.786,8.438-8.438S125.257,4.923,120.603,4.923z"/>
	<path style="fill:#232E38;" d="M237.764,133.292c-4.79,0-8.691-3.899-8.691-8.694c0-4.795,3.899-8.694,8.691-8.694
		c4.795,0,8.694,3.899,8.694,8.694C246.458,129.393,242.559,133.292,237.764,133.292z M237.764,120.835
		c-2.074,0-3.763,1.69-3.763,3.766c0,2.076,1.69,3.766,3.763,3.766c2.079,0,3.766-1.69,3.766-3.766
		C241.53,122.524,239.84,120.835,237.764,120.835z"/>
	<path style="fill:#232E38;" d="M170.011,512C100.236,512,43.47,455.232,43.47,385.457c0-57.797,39.032-108.204,94.922-122.578
		c1.318-0.343,2.66,0.456,2.998,1.769c0.335,1.321-0.456,2.66-1.772,3c-53.714,13.814-91.223,62.259-91.223,117.809
		c0,67.059,54.556,121.613,121.615,121.613c67.072,0,121.638-54.554,121.638-121.613c0-55.498-37.484-103.928-91.164-117.791
		c-1.098-0.256-1.92-1.234-1.92-2.401c0-1.362,1.091-2.465,2.447-2.465h0.028c0.21,0,0.417,0.026,0.617,0.077
		c55.887,14.405,94.92,64.809,94.92,122.578C296.577,455.232,239.799,512,170.011,512z"/>
	<path style="fill:#232E38;" d="M201.036,267.738h-62.047c-1.357,0-2.46-1.103-2.46-2.465v-86.861c0-1.359,1.103-2.46,2.46-2.46
		h62.047c1.357,0,2.46,1.103,2.46,2.46v86.861C203.496,266.634,202.392,267.738,201.036,267.738z M141.452,262.81h57.121v-81.935
		h-57.121V262.81z"/>
	<path style="fill:#232E38;" d="M210.961,180.874h-81.897c-1.357,0-2.46-1.103-2.46-2.46v-37.23c0-1.359,1.103-2.46,2.46-2.46
		h81.897c1.362,0,2.465,1.103,2.465,2.46v37.228C213.426,179.771,212.323,180.874,210.961,180.874z M131.526,175.951h76.972v-32.305
		h-76.972V175.951z"/>
	<path style="fill:#232E38;" d="M170.011,495.877c-54.661,0-101.65-40.768-109.299-94.828c-0.097-0.704,0.113-1.423,0.584-1.961
		c0.463-0.538,1.144-0.85,1.856-0.85h213.732c0.712,0,1.393,0.312,1.859,0.85c0.471,0.538,0.678,1.254,0.584,1.961
		C271.666,455.109,224.675,495.877,170.011,495.877z M66.024,403.169c8.507,50.24,52.71,87.777,103.987,87.777
		s95.485-37.537,103.997-87.777H66.024z"/>
	<path style="fill:#232E38;" d="M129.059,445.184c-9.708,0-17.6-7.895-17.6-17.6c0-9.702,7.895-17.597,17.6-17.597
		c9.702,0,17.6,7.895,17.6,17.597C146.659,437.289,138.761,445.184,129.059,445.184z M129.059,414.912
		c-6.989,0-12.672,5.686-12.672,12.672c0,6.989,5.681,12.672,12.672,12.672c6.989,0,12.672-5.683,12.672-12.672
		C141.731,420.598,136.047,414.912,129.059,414.912z"/>
	<path style="fill:#232E38;" d="M188.886,476.124c-5.279,0-9.572-4.296-9.572-9.574s4.296-9.577,9.572-9.577
		c5.284,0,9.58,4.298,9.58,9.577S194.17,476.124,188.886,476.124z M188.886,461.901c-2.56,0-4.649,2.084-4.649,4.649
		c0,2.563,2.089,4.646,4.649,4.646c2.568,0,4.652-2.084,4.652-4.646C193.54,463.985,191.453,461.901,188.886,461.901z"/>
	<path style="fill:#232E38;" d="M141.871,383.473c-8.425,0-15.278-6.851-15.278-15.276s6.853-15.278,15.278-15.278
		c8.425,0,15.278,6.853,15.278,15.278S150.294,383.473,141.871,383.473z M141.871,357.847c-5.706,0-10.35,4.641-10.35,10.35
		c0,5.709,4.644,10.348,10.35,10.348c5.706,0,10.35-4.641,10.35-10.348S147.578,357.847,141.871,357.847z"/>
	<path style="fill:#232E38;" d="M193.281,54.738c-10.952,0-19.858-8.906-19.858-19.853c0-10.952,8.906-19.858,19.858-19.858
		c10.947,0,19.855,8.906,19.855,19.858C213.137,45.829,204.228,54.738,193.281,54.738z M193.281,19.95
		c-8.236,0-14.935,6.7-14.935,14.935c0,8.23,6.7,14.93,14.935,14.93c8.23,0,14.93-6.697,14.93-14.93
		C208.211,26.65,201.512,19.95,193.281,19.95z"/>
	<path style="fill:#232E38;" d="M162.062,241.7c-4.92,0-8.927-4.004-8.927-8.927c0-4.923,4.006-8.932,8.927-8.932
		c4.923,0,8.927,4.006,8.927,8.932S166.985,241.7,162.062,241.7z M162.062,228.767c-2.204,0-3.999,1.797-3.999,4.004
		c0,2.207,1.795,4.001,3.999,4.001c2.207,0,4.004-1.795,4.004-4.001C166.066,230.564,164.269,228.767,162.062,228.767z"/>
	<path style="fill:#232E38;" d="M159.162,130.783c-6.843,0-12.411-5.568-12.411-12.411s5.568-12.411,12.411-12.411
		c6.84,0,12.411,5.568,12.411,12.411C171.572,125.215,166.002,130.783,159.162,130.783z M159.162,110.886
		c-4.127,0-7.485,3.359-7.485,7.485c0,4.124,3.359,7.483,7.485,7.483c4.124,0,7.483-3.359,7.483-7.483
		C166.644,114.245,163.286,110.886,159.162,110.886z"/>
	<path style="fill:#232E38;" d="M225.862,444.705c-6.712,0-12.173-5.463-12.173-12.175s5.46-12.17,12.173-12.17
		c6.712,0,12.17,5.458,12.17,12.17S232.575,444.705,225.862,444.705z M225.862,425.288c-3.996,0-7.25,3.249-7.25,7.242
		c0,3.999,3.254,7.245,7.25,7.245s7.245-3.249,7.245-7.245C233.107,428.534,229.859,425.288,225.862,425.288z"/>
	<path style="fill:#232E38;" d="M210.651,97.206c-0.635,0-1.262-0.241-1.743-0.722l-6.922-6.922c-0.96-0.96-0.96-2.522,0-3.482
		c0.963-0.963,2.522-0.963,3.484,0l6.922,6.922c0.963,0.96,0.963,2.522,0,3.482C211.908,96.965,211.278,97.206,210.651,97.206z"/>
	<path style="fill:#232E38;" d="M195.915,82.476c-0.63,0-1.26-0.241-1.741-0.719l-6.922-6.904c-0.963-0.96-0.968-2.519-0.005-3.479
		c0.96-0.968,2.516-0.968,3.482-0.005l6.925,6.899c0.96,0.963,0.965,2.522,0.005,3.487C197.18,82.232,196.545,82.476,195.915,82.476
		z"/>
	<path style="fill:#232E38;" d="M203.729,82.476c-0.635,0-1.265-0.243-1.746-0.724c-0.96-0.965-0.96-2.524,0.005-3.487l6.922-6.899
		c0.965-0.96,2.522-0.96,3.482,0.005c0.963,0.96,0.957,2.522-0.005,3.479l-6.922,6.904
		C204.986,82.232,204.356,82.476,203.729,82.476z"/>
	<path style="fill:#232E38;" d="M188.991,97.206c-0.627,0-1.26-0.241-1.741-0.722c-0.963-0.96-0.963-2.522,0-3.482l6.925-6.922
		c0.963-0.963,2.522-0.963,3.482,0c0.96,0.96,0.96,2.522,0,3.482l-6.922,6.922C190.253,96.965,189.623,97.206,188.991,97.206z"/>
	<path style="fill:#232E38;" d="M125.544,96.563c-0.632,0-1.262-0.241-1.743-0.722l-10.171-10.176c-0.963-0.963-0.963-2.519,0-3.479
		c0.96-0.963,2.516-0.963,3.479,0l10.176,10.173c0.96,0.963,0.96,2.522,0,3.484C126.806,96.323,126.173,96.563,125.544,96.563z"/>
	<path style="fill:#232E38;" d="M103.889,74.908c-0.632,0-1.26-0.238-1.741-0.719L91.977,64.046
		c-0.965-0.96-0.968-2.522-0.005-3.484c0.957-0.965,2.519-0.968,3.479-0.005l10.176,10.145c0.96,0.96,0.965,2.522,0.005,3.484
		C105.153,74.665,104.518,74.908,103.889,74.908z"/>
	<path style="fill:#232E38;" d="M115.37,74.908c-0.632,0-1.265-0.243-1.746-0.724c-0.96-0.963-0.957-2.524,0.005-3.484
		l10.176-10.145c0.963-0.957,2.519-0.957,3.482,0.005c0.96,0.963,0.96,2.524-0.005,3.484l-10.171,10.143
		C116.63,74.668,116.003,74.908,115.37,74.908z"/>
	<path style="fill:#232E38;" d="M93.715,96.563c-0.632,0-1.262-0.241-1.743-0.722c-0.963-0.963-0.963-2.522,0-3.484l10.176-10.173
		c0.957-0.965,2.519-0.965,3.482,0c0.96,0.96,0.96,2.516,0,3.479L95.459,95.839C94.977,96.323,94.345,96.563,93.715,96.563z"/>
</g>
<path style="fill:#FFFFFF;" d="M347.982,253.509h-2.673c-0.502,0-1.014-0.2-1.398-0.576c-0.389-0.397-0.579-0.896-0.579-1.416
	v-3.466c0-0.509,0.187-1.021,0.579-1.411c0.384-0.381,0.896-0.573,1.398-0.573h2.673l1.697-1.283
	c0.497-0.376,1.065-0.686,1.697-0.896c0.627-0.212,1.267-0.315,1.884-0.305l56.955-0.008v12.421h-56.955
	c-0.622,0-1.257-0.1-1.884-0.312c-0.632-0.215-1.201-0.515-1.697-0.899L347.982,253.509z"/>
<g>
	<path style="fill:#F77B55;" d="M353.212,245.312c-0.415,0-0.85,0.067-1.28,0.22c-0.448,0.138-0.842,0.369-1.213,0.622l-2.15,1.638
		h-4.989c-0.041,0-0.102,0.023-0.177,0.074c-0.054,0.067-0.067,0.136-0.067,0.189v3.471c0,0.1,0.054,0.159,0.067,0.172
		c0.074,0.069,0.156,0.092,0.192,0.092h4.974l2.168,1.623c0.353,0.271,0.748,0.481,1.195,0.635c0.43,0.138,0.883,0.21,1.331,0.21
		h5.161v-8.947H353.212z"/>
	<path style="fill:#F77B55;" d="M416.413,241.769h42.66c2.051,0,4.099,0.786,5.665,2.353c1.567,1.567,2.345,3.617,2.345,5.665
		c0,2.051-0.778,4.099-2.345,5.665c-1.567,1.562-3.615,2.348-5.665,2.348h-42.66V241.769z"/>
	<path style="fill:#F77B55;" d="M413.313,261.425c1.702,0,3.1-1.398,3.1-3.105v-17.06c0-1.715-1.398-3.1-3.1-3.1l0,0
		c-1.71,0-3.098,1.388-3.098,3.1v17.06C410.216,260.027,411.603,261.425,413.313,261.425L413.313,261.425z"/>
</g>
<path style="fill:#FFFFFF;" d="M344.923,249.789c0,0.878-0.712,1.59-1.59,1.59v-3.18C344.211,248.2,344.923,248.911,344.923,249.789
	z"/>
<g>
	<path style="fill:#232E38;" d="M410.216,257.446h-56.955c-0.801,0-1.592-0.131-2.353-0.392c-0.765-0.259-1.48-0.635-2.109-1.119
		l-1.303-0.978h-2.186c-0.893,0-1.774-0.364-2.414-0.993c-0.653-0.658-1.009-1.523-1.009-2.445v-3.466
		c0-0.924,0.356-1.792,1.006-2.437c0.627-0.632,1.508-0.996,2.406-0.996h2.194l1.313-0.991c0.645-0.486,1.359-0.863,2.117-1.116
		c0.735-0.248,1.508-0.379,2.278-0.379l57.014-0.008c0.384,0,0.753,0.154,1.024,0.425c0.271,0.271,0.425,0.64,0.425,1.024v12.421
		C411.667,256.799,411.022,257.446,410.216,257.446z M345.312,247.521c-0.151,0-0.279,0.054-0.374,0.146
		c-0.128,0.128-0.156,0.284-0.156,0.387v3.466c0,0.159,0.051,0.289,0.159,0.394c0.09,0.087,0.233,0.148,0.369,0.148h2.673
		c0.317,0,0.622,0.102,0.87,0.292l1.7,1.28c0.381,0.294,0.814,0.522,1.288,0.681c0.466,0.159,0.94,0.238,1.423,0.238h55.508v-9.523
		l-55.508,0.008l0,0c-0.512,0-0.968,0.077-1.416,0.228c-0.471,0.156-0.901,0.381-1.293,0.676l-1.697,1.285
		c-0.253,0.189-0.558,0.294-0.873,0.294L345.312,247.521L345.312,247.521z"/>
	<path style="fill:#232E38;" d="M358.422,255.708h-5.161c-0.594,0-1.188-0.092-1.769-0.276c-0.648-0.22-1.188-0.515-1.649-0.878
		l-1.759-1.313h-4.493c-0.374,0-0.927-0.238-1.201-0.499c-0.266-0.187-0.507-0.684-0.507-1.213v-3.471
		c0-0.325,0.174-0.832,0.376-1.088c0.092-0.113,0.192-0.212,0.312-0.294c0.31-0.215,0.66-0.33,1.004-0.33h4.498l1.761-1.344
		c0.617-0.425,1.126-0.686,1.659-0.852c0.515-0.184,1.108-0.284,1.713-0.284h5.21c0.801,0,1.449,0.645,1.449,1.449v8.947
		C359.871,255.063,359.22,255.708,358.422,255.708z M344.785,250.345h3.786c0.312,0,0.617,0.102,0.868,0.289l2.173,1.623
		c0.238,0.187,0.489,0.32,0.799,0.428c0.259,0.082,0.561,0.128,0.855,0.128h3.712v-6.049h-3.763c-0.271,0-0.54,0.046-0.794,0.136
		c-0.3,0.095-0.563,0.23-0.875,0.448l-2.097,1.6c-0.256,0.192-0.561,0.297-0.878,0.297h-3.786V250.345z"/>
	<path style="fill:#232E38;" d="M459.073,259.254h-42.66c-0.799,0-1.446-0.65-1.446-1.449v-16.033c0-0.801,0.65-1.449,1.446-1.449
		h42.66c2.519,0,4.897,0.983,6.689,2.775c1.782,1.787,2.767,4.163,2.767,6.692s-0.986,4.908-2.767,6.689
		C463.971,258.266,461.595,259.254,459.073,259.254z M417.865,256.353h41.211c1.751,0,3.397-0.686,4.646-1.928
		c1.229-1.229,1.912-2.88,1.912-4.639s-0.684-3.407-1.917-4.641c-1.244-1.244-2.893-1.928-4.641-1.928h-41.211V256.353z"/>
	<path style="fill:#232E38;" d="M413.313,262.874c-2.506,0-4.544-2.043-4.544-4.552v-17.06c0-2.506,2.04-4.549,4.544-4.549
		c2.509,0,4.549,2.043,4.549,4.549v17.06C417.865,260.831,415.825,262.874,413.313,262.874z M413.313,239.608
		c-0.906,0-1.649,0.742-1.649,1.654v17.06c0,0.914,0.74,1.654,1.649,1.654c0.896,0,1.654-0.758,1.654-1.654v-17.06
		C414.967,240.348,414.225,239.608,413.313,239.608z"/>
	<path style="fill:#232E38;" d="M350.88,288.371c-4.554,0-8.259-3.702-8.259-8.259c0-4.549,3.702-8.259,8.259-8.259
		c4.552,0,8.259,3.707,8.259,8.259C359.136,284.667,355.432,288.371,350.88,288.371z M350.88,275.912
		c-2.317,0-4.201,1.884-4.201,4.201s1.882,4.198,4.201,4.198c2.314,0,4.201-1.879,4.201-4.198
		C355.078,277.798,353.194,275.912,350.88,275.912z"/>
	<path style="fill:#232E38;" d="M359.876,219.041c-0.52,0-1.039-0.197-1.439-0.594l-3.978-3.986
		c-0.794-0.794-0.791-2.076,0.003-2.867c0.794-0.794,2.076-0.788,2.867,0.003l3.978,3.981c0.794,0.794,0.794,2.079,0,2.867
		C360.913,218.844,360.393,219.041,359.876,219.041z"/>
	<path style="fill:#232E38;" d="M351.4,210.568c-0.515,0-1.034-0.197-1.434-0.594l-3.983-3.973
		c-0.794-0.791-0.794-2.071-0.003-2.867c0.788-0.791,2.074-0.796,2.865-0.003l3.986,3.971c0.796,0.791,0.799,2.076,0.005,2.867
		C352.442,210.368,351.919,210.568,351.4,210.568z"/>
	<path style="fill:#232E38;" d="M355.898,210.568c-0.52,0-1.042-0.2-1.439-0.596c-0.794-0.796-0.791-2.079,0.003-2.87l3.978-3.971
		c0.796-0.794,2.081-0.786,2.87,0c0.791,0.796,0.791,2.079-0.003,2.87l-3.978,3.973
		C356.934,210.371,356.415,210.568,355.898,210.568z"/>
	<path style="fill:#232E38;" d="M347.414,219.041c-0.517,0-1.034-0.197-1.431-0.594c-0.794-0.794-0.794-2.079,0-2.87l3.983-3.981
		c0.794-0.794,2.079-0.794,2.87,0s0.791,2.079,0,2.87l-3.986,3.981C348.456,218.844,347.936,219.041,347.414,219.041z"/>
	<path style="fill:#232E38;" d="M323.222,275.052c-0.52,0-1.042-0.197-1.439-0.594l-6.922-6.922c-0.794-0.794-0.794-2.079,0-2.87
		c0.794-0.791,2.079-0.794,2.87,0l6.922,6.925c0.794,0.791,0.794,2.076,0,2.867C324.256,274.854,323.739,275.052,323.222,275.052z"
		/>
	<path style="fill:#232E38;" d="M308.484,260.319c-0.515,0-1.034-0.197-1.434-0.589l-6.92-6.904
		c-0.794-0.791-0.794-2.076-0.003-2.867c0.794-0.791,2.074-0.796,2.865-0.003l6.922,6.899c0.796,0.794,0.799,2.079,0.005,2.87
		C309.526,260.116,309.004,260.319,308.484,260.319z"/>
	<path style="fill:#232E38;" d="M316.294,260.319c-0.52,0-1.037-0.2-1.436-0.596c-0.791-0.791-0.791-2.076,0.003-2.87l6.927-6.899
		c0.794-0.794,2.079-0.788,2.867,0.003c0.791,0.796,0.791,2.076-0.003,2.867l-6.927,6.904
		C317.329,260.119,316.814,260.319,316.294,260.319z"/>
	<path style="fill:#232E38;" d="M301.562,275.052c-0.517,0-1.034-0.197-1.431-0.594c-0.794-0.794-0.794-2.079,0-2.867l6.92-6.925
		c0.794-0.794,2.079-0.794,2.87,0c0.791,0.794,0.794,2.079,0,2.87l-6.922,6.922C302.604,274.854,302.084,275.052,301.562,275.052z"
		/>
</g>
<g>
	<polygon style="fill:#FFFFFF;" points="343.351,509.545 343.346,509.545 343.328,509.545 	"/>
	<path style="fill:#FFFFFF;" d="M320.127,315.359l0.01,170.685c0,5.939,2.271,12.175,6.802,16.704
		c4.529,4.531,10.465,6.797,16.407,6.797c5.929,0,11.873-2.271,16.399-6.799c4.529-4.534,6.797-10.473,6.797-16.41V315.359
		L320.127,315.359L320.127,315.359z"/>
</g>
<path style="fill:#F77B55;" d="M343.346,503.352c-4.549,0-8.817-1.766-12.037-4.979c-3.156-3.169-4.987-7.662-4.987-12.329
	l-0.005-72.466h34.035v72.758c0,4.544-1.769,8.819-4.979,12.037C352.157,501.581,347.885,503.352,343.346,503.352z"/>
<rect x="312.396" y="299.827" style="fill:#FFFFFF;" width="61.875" height="15.462"/>
<g>
	<path style="fill:#232E38;" d="M343.351,511.572h-0.023c-1.121,0-2.025-0.906-2.025-2.028c0-1.121,0.906-2.03,2.025-2.03
		s2.04,0.906,2.04,2.03C345.368,510.666,344.472,511.572,343.351,511.572z"/>
	<path style="fill:#232E38;" d="M343.346,511.572L343.346,511.572c-6.74-0.003-13.079-2.627-17.846-7.391
		c-4.698-4.7-7.398-11.313-7.398-18.14l-0.01-170.685c0-0.538,0.215-1.055,0.594-1.439c0.379-0.376,0.901-0.591,1.439-0.591h46.418
		c1.121,0,2.033,0.909,2.033,2.03v170.977c0,6.74-2.627,13.074-7.393,17.843C356.417,508.946,350.081,511.57,343.346,511.572z
		 M322.152,317.386l0.013,168.658c0,5.763,2.263,11.328,6.208,15.27c4.001,3.999,9.316,6.2,14.976,6.203
		c5.65-0.003,10.967-2.204,14.968-6.205c4.001-4.001,6.205-9.324,6.205-14.976v-168.95L322.152,317.386L322.152,317.386z"/>
	<path style="fill:#232E38;" d="M343.346,505.382c-5.082,0-9.866-1.981-13.471-5.576c-3.548-3.558-5.581-8.573-5.581-13.765
		l-0.013-72.466c0-0.538,0.215-1.055,0.594-1.439c0.381-0.379,0.901-0.594,1.439-0.594h34.035c1.121,0,2.028,0.911,2.028,2.033
		v72.758c0,5.087-1.976,9.869-5.576,13.471C353.204,503.401,348.425,505.382,343.346,505.382z M328.344,415.603l0.01,70.441
		c0,4.127,1.6,8.097,4.393,10.895c2.831,2.826,6.597,4.385,10.601,4.385c3.996,0,7.757-1.556,10.591-4.388
		c2.826-2.829,4.385-6.597,4.385-10.601v-70.733L328.344,415.603L328.344,415.603z"/>
	<path style="fill:#232E38;" d="M374.273,317.332h-61.885c-1.121,0-2.033-0.906-2.033-2.028V299.83c0-1.121,0.911-2.028,2.033-2.028
		h61.885c1.121,0,2.033,0.906,2.033,2.028v15.475C376.306,316.426,375.395,317.332,374.273,317.332z M314.413,313.275h57.836V301.86
		h-57.836L314.413,313.275L314.413,313.275z"/>
	<path style="fill:#232E38;" d="M366.545,447.91h-12.956c-0.724,0-1.313-0.586-1.313-1.311s0.586-1.311,1.313-1.311h12.956
		c0.724,0,1.313,0.586,1.313,1.311S367.269,447.91,366.545,447.91z"/>
	<path style="fill:#232E38;" d="M366.545,434.696h-12.956c-0.724,0-1.313-0.586-1.313-1.311s0.586-1.311,1.313-1.311h12.956
		c0.724,0,1.313,0.586,1.313,1.311S367.269,434.696,366.545,434.696z"/>
	<path style="fill:#232E38;" d="M366.545,421.481h-12.956c-0.724,0-1.313-0.586-1.313-1.311s0.586-1.311,1.313-1.311h12.956
		c0.724,0,1.313,0.586,1.313,1.311S367.269,421.481,366.545,421.481z"/>
	<path style="fill:#232E38;" d="M366.545,408.266h-12.956c-0.724,0-1.313-0.586-1.313-1.311c0-0.722,0.586-1.311,1.313-1.311h12.956
		c0.724,0,1.313,0.586,1.313,1.311C367.855,407.68,367.269,408.266,366.545,408.266z"/>
	<path style="fill:#232E38;" d="M366.545,395.052h-12.956c-0.724,0-1.313-0.586-1.313-1.313c0-0.722,0.586-1.311,1.313-1.311h12.956
		c0.724,0,1.313,0.586,1.313,1.311C367.855,394.465,367.269,395.052,366.545,395.052z"/>
	<path style="fill:#232E38;" d="M366.545,381.837h-12.956c-0.724,0-1.313-0.586-1.313-1.311c0-0.724,0.586-1.311,1.313-1.311h12.956
		c0.724,0,1.313,0.586,1.313,1.311C367.855,381.251,367.269,381.837,366.545,381.837z"/>
	<path style="fill:#232E38;" d="M366.545,368.622h-12.956c-0.724,0-1.313-0.586-1.313-1.311c0-0.725,0.586-1.311,1.313-1.311h12.956
		c0.724,0,1.313,0.586,1.313,1.311C367.855,368.036,367.269,368.622,366.545,368.622z"/>
	<path style="fill:#232E38;" d="M366.545,355.407h-12.956c-0.724,0-1.313-0.586-1.313-1.311c0-0.724,0.586-1.311,1.313-1.311h12.956
		c0.724,0,1.313,0.586,1.313,1.311C367.858,354.821,367.269,355.407,366.545,355.407z"/>
	<path style="fill:#232E38;" d="M366.545,342.193h-12.956c-0.724,0-1.313-0.586-1.313-1.311s0.586-1.311,1.313-1.311h12.956
		c0.724,0,1.313,0.586,1.313,1.311S367.269,342.193,366.545,342.193z"/>
	<path style="fill:#232E38;" d="M366.545,328.978h-12.956c-0.724,0-1.313-0.586-1.313-1.311c0-0.724,0.586-1.311,1.313-1.311h12.956
		c0.724,0,1.313,0.586,1.313,1.311C367.858,328.392,367.269,328.978,366.545,328.978z"/>
</g>
<g>
</g>
<g>
</g>
<g>
</g>
<g>
</g>
<g>
</g>
<g>
</g>
<g>
</g>
<g>
</g>
<g>
</g>
<g>
</g>
<g>
</g>
<g>
</g>
<g>
</g>
<g>
</g>
<g>
</g>
</svg>
