<?xml version="1.0" encoding="iso-8859-1"?>
<!-- Generator: Adobe Illustrator 19.0.0, SVG Export Plug-In . SVG Version: 6.00 Build 0)  -->
<svg version="1.1" id="Layer_1" xmlns="http://www.w3.org/2000/svg" xmlns:xlink="http://www.w3.org/1999/xlink" x="0px" y="0px"
	 viewBox="0 0 512 512" style="enable-background:new 0 0 512 512;" xml:space="preserve">
<rect x="103.969" y="70.143" style="fill:#92DEEB;" width="405.504" height="253.44"/>
<g>
	<rect x="103.969" y="323.583" style="fill:#FFFFFF;" width="405.504" height="50.701"/>
	<rect x="249.702" y="374.271" style="fill:#FFFFFF;" width="114.043" height="52.854"/>
	<rect x="218.342" y="427.135" style="fill:#FFFFFF;" width="176.742" height="14.723"/>
	<rect x="120.474" y="86.642" style="fill:#FFFFFF;" width="372.454" height="220.442"/>
</g>
<g>
	<path style="fill:#232E38;" d="M509.468,326.109H103.969c-1.4,0-2.532-1.132-2.532-2.532V70.143c0-1.4,1.132-2.532,2.532-2.532
		h405.499c1.4,0,2.532,1.132,2.532,2.532v253.435C512,324.975,510.868,326.109,509.468,326.109z M106.501,321.041h400.433V72.675
		H106.501V321.041z"/>
	<path style="fill:#232E38;" d="M509.468,376.808H103.969c-1.4,0-2.532-1.132-2.532-2.532v-50.701c0-1.403,1.132-2.534,2.532-2.534
		h405.499c1.4,0,2.532,1.132,2.532,2.534v50.701C512,375.676,510.868,376.808,509.468,376.808z M106.501,371.744h400.433v-45.635
		H106.501V371.744z"/>
	<path style="fill:#232E38;" d="M363.743,429.664H249.7c-1.4,0-2.532-1.132-2.532-2.532v-52.854c0-1.4,1.132-2.532,2.532-2.532
		h114.043c1.4,0,2.532,1.132,2.532,2.532v52.854C366.275,428.532,365.143,429.664,363.743,429.664z M252.232,424.598h108.974v-47.79
		H252.232V424.598z"/>
	<path style="fill:#232E38;" d="M395.087,444.389h-176.74c-1.4,0-2.532-1.132-2.532-2.534v-14.723c0-1.403,1.132-2.532,2.532-2.532
		h176.74c1.403,0,2.532,1.129,2.532,2.532v14.723C397.619,443.255,396.49,444.389,395.087,444.389z M220.879,439.32h171.676v-9.656
		H220.879V439.32z"/>
	<path style="fill:#232E38;" d="M492.951,351.459h-20.618c-1.4,0-2.532-1.132-2.532-2.532c0-1.4,1.132-2.532,2.532-2.532h20.618
		c1.4,0,2.532,1.132,2.532,2.532C495.483,350.327,494.349,351.459,492.951,351.459z"/>
	<path style="fill:#232E38;" d="M492.951,309.623H120.486c-1.4,0-2.532-1.132-2.532-2.532V86.642c0-1.4,1.132-2.532,2.532-2.532
		h372.465c1.4,0,2.532,1.132,2.532,2.532v220.449C495.483,308.491,494.349,309.623,492.951,309.623z M123.018,304.559h367.398
		V89.176H123.018V304.559z"/>
	<path style="fill:#232E38;" d="M429.084,179.77h-37.407c-0.824,0-1.492-0.666-1.492-1.49c0-0.824,0.668-1.49,1.492-1.49h36.79
		l9.472-9.475c0.584-0.581,1.526-0.581,2.107,0c0.584,0.584,0.584,1.526,0,2.107l-9.91,9.91
		C429.86,179.613,429.481,179.77,429.084,179.77z"/>
	<path style="fill:#232E38;" d="M417.108,161.174h-25.431c-0.824,0-1.492-0.666-1.492-1.49s0.668-1.49,1.492-1.49h24.812
		l6.049-6.057c0.279-0.279,0.658-0.435,1.055-0.435h20.913c0.824,0,1.49,0.666,1.49,1.49c0,0.824-0.666,1.492-1.49,1.492H424.21
		l-6.049,6.054C417.882,161.018,417.505,161.174,417.108,161.174z"/>
	<path style="fill:#232E38;" d="M446.692,250.098c-0.381,0-0.763-0.146-1.055-0.435l-14.121-14.118h-38.198
		c-0.822,0-1.49-0.668-1.49-1.492c0-0.824,0.668-1.49,1.49-1.49h38.817c0.397,0,0.776,0.159,1.055,0.435l14.556,14.556
		c0.584,0.584,0.584,1.526,0,2.107C447.455,249.952,447.073,250.098,446.692,250.098z"/>
	<path style="fill:#232E38;" d="M409.178,216.946h-15.859c-0.822,0-1.49-0.668-1.49-1.492c0-0.824,0.668-1.49,1.49-1.49h15.859
		c0.824,0,1.492,0.666,1.492,1.49C410.67,216.278,410.002,216.946,409.178,216.946z"/>
	<path style="fill:#232E38;" d="M446.031,214.127h-18.806c-0.394,0-0.776-0.159-1.055-0.435l-15.34-15.342h-17.516
		c-0.822,0-1.49-0.668-1.49-1.492s0.668-1.49,1.49-1.49h18.133c0.394,0,0.773,0.156,1.052,0.435l15.342,15.342h18.186
		c0.824,0,1.492,0.668,1.492,1.492C447.521,213.462,446.858,214.127,446.031,214.127z"/>
	<path style="fill:#232E38;" d="M447.872,158.048c-2.678,0-4.854-2.179-4.854-4.856c0-2.675,2.179-4.851,4.854-4.851
		c2.68,0,4.856,2.176,4.856,4.851C452.731,155.869,450.552,158.048,447.872,158.048z M447.872,151.323
		c-1.032,0-1.874,0.84-1.874,1.869c0,1.034,0.842,1.874,1.874,1.874c1.034,0,1.874-0.842,1.874-1.874
		C449.748,152.16,448.906,151.323,447.872,151.323z"/>
	<path style="fill:#232E38;" d="M441.375,170.845c-2.678,0-4.854-2.176-4.854-4.851c0-2.678,2.179-4.856,4.854-4.856
		s4.851,2.179,4.851,4.856C446.226,168.669,444.05,170.845,441.375,170.845z M441.375,164.12c-1.032,0-1.874,0.842-1.874,1.874
		c0,1.029,0.842,1.869,1.874,1.869c1.029,0,1.869-0.84,1.869-1.869C443.246,164.96,442.404,164.12,441.375,164.12z"/>
	<path style="fill:#232E38;" d="M449.393,217.489c-2.675,0-4.851-2.176-4.851-4.851c0-2.675,2.176-4.851,4.851-4.851
		c2.678,0,4.856,2.176,4.856,4.851C454.249,215.313,452.07,217.489,449.393,217.489z M449.393,210.769
		c-1.029,0-1.866,0.837-1.866,1.869c0,1.029,0.837,1.869,1.866,1.869c1.034,0,1.874-0.84,1.874-1.869
		C451.267,211.606,450.427,210.769,449.393,210.769z"/>
	<path style="fill:#232E38;" d="M412.536,220.305c-2.675,0-4.851-2.173-4.851-4.851s2.176-4.854,4.851-4.854
		c2.678,0,4.854,2.179,4.854,4.854C417.393,218.131,415.214,220.305,412.536,220.305z M412.536,213.579
		c-1.029,0-1.866,0.842-1.866,1.874s0.837,1.869,1.866,1.869c1.034,0,1.874-0.837,1.874-1.869
		C414.413,214.422,413.573,213.579,412.536,213.579z"/>
	<path style="fill:#232E38;" d="M449.068,255.832c-2.68,0-4.856-2.173-4.856-4.851c0-2.678,2.179-4.854,4.856-4.854
		s4.854,2.179,4.854,4.854C453.921,253.659,451.745,255.832,449.068,255.832z M449.068,249.107c-1.034,0-1.874,0.842-1.874,1.874
		c0,1.032,0.84,1.869,1.874,1.869c1.032,0,1.874-0.837,1.874-1.869C450.941,249.949,450.099,249.107,449.068,249.107z"/>
	<path style="fill:#232E38;" d="M221.76,161.174h-38.682c-0.824,0-1.492-0.666-1.492-1.49s0.668-1.49,1.492-1.49h38.682
		c0.824,0,1.492,0.666,1.492,1.49S222.582,161.174,221.76,161.174z"/>
	<path style="fill:#232E38;" d="M158.234,233.724c-0.381,0-0.763-0.146-1.055-0.435c-0.584-0.584-0.584-1.526,0-2.107l16.773-16.781
		c0.279-0.279,0.658-0.435,1.055-0.435h46.753c0.824,0,1.492,0.666,1.492,1.49c0,0.824-0.668,1.492-1.492,1.492h-46.136
		l-16.338,16.343C158.994,233.581,158.612,233.724,158.234,233.724z"/>
	<path style="fill:#232E38;" d="M221.76,235.542h-35.328c-0.397,0-0.778-0.159-1.057-0.44l-4.844-4.861
		c-0.581-0.584-0.581-1.526,0.005-2.107c0.581-0.576,1.526-0.584,2.107,0.005l4.408,4.424h34.708c0.824,0,1.492,0.666,1.492,1.49
		C223.252,234.876,222.582,235.542,221.76,235.542z"/>
	<path style="fill:#232E38;" d="M181.732,186.244h-29.998c-0.824,0-1.492-0.666-1.492-1.492c0-0.824,0.668-1.49,1.492-1.49h29.379
		l6.049-6.049c0.279-0.279,0.658-0.438,1.055-0.438h33.541c0.824,0,1.492,0.668,1.492,1.492c0,0.824-0.668,1.49-1.492,1.49h-32.924
		l-6.049,6.052C182.505,186.088,182.129,186.244,181.732,186.244z"/>
	<path style="fill:#232E38;" d="M221.76,198.35h-58.028c-0.824,0-1.49-0.668-1.49-1.492s0.666-1.49,1.49-1.49h58.025
		c0.824,0,1.492,0.666,1.492,1.49S222.582,198.35,221.76,198.35z"/>
	<path style="fill:#232E38;" d="M179.717,164.532c-2.678,0-4.854-2.176-4.854-4.851c0-2.678,2.179-4.856,4.854-4.856
		c2.675,0,4.851,2.179,4.851,4.856C184.566,162.359,182.392,164.532,179.717,164.532z M179.717,157.81
		c-1.034,0-1.874,0.842-1.874,1.874c0,1.029,0.842,1.869,1.874,1.869c1.032,0,1.869-0.84,1.869-1.869
		C181.586,158.65,180.746,157.81,179.717,157.81z"/>
	<path style="fill:#232E38;" d="M148.375,189.603c-2.678,0-4.856-2.173-4.856-4.851s2.179-4.854,4.856-4.854
		c2.675,0,4.851,2.179,4.851,4.854C153.226,187.429,151.05,189.603,148.375,189.603z M148.375,182.88
		c-1.034,0-1.874,0.842-1.874,1.874s0.842,1.869,1.874,1.869c1.032,0,1.869-0.84,1.869-1.869
		C150.244,183.722,149.407,182.88,148.375,182.88z"/>
	<path style="fill:#232E38;" d="M160.374,201.709c-2.678,0-4.856-2.176-4.856-4.851c0-2.678,2.179-4.854,4.856-4.854
		c2.675,0,4.851,2.179,4.851,4.854C165.225,199.533,163.049,201.709,160.374,201.709z M160.374,194.984
		c-1.034,0-1.874,0.842-1.874,1.874s0.842,1.869,1.874,1.869c1.029,0,1.869-0.837,1.869-1.869S161.405,194.984,160.374,194.984z"/>
	<path style="fill:#232E38;" d="M155.945,239.379c-2.678,0-4.854-2.173-4.854-4.851s2.179-4.854,4.854-4.854
		c2.675,0,4.851,2.179,4.851,4.854C160.794,237.206,158.62,239.379,155.945,239.379z M155.945,232.654
		c-1.034,0-1.874,0.842-1.874,1.874c0,1.032,0.842,1.869,1.874,1.869s1.869-0.837,1.869-1.869
		C157.814,233.496,156.974,232.654,155.945,232.654z"/>
	<path style="fill:#232E38;" d="M179.21,231.666c-2.678,0-4.856-2.176-4.856-4.851c0-2.675,2.179-4.851,4.856-4.851
		c2.675,0,4.851,2.173,4.851,4.851C184.059,229.49,181.885,231.666,179.21,231.666z M179.21,224.946
		c-1.034,0-1.874,0.84-1.874,1.869c0,1.029,0.842,1.869,1.874,1.869c1.029,0,1.869-0.84,1.869-1.869
		C181.079,225.783,180.239,224.946,179.21,224.946z"/>
</g>
<rect x="221.747" y="111.907" style="fill:#FDCA5C;" width="169.907" height="169.907"/>
<path style="fill:#232E38;" d="M391.677,283.314H221.76c-0.824,0-1.49-0.668-1.49-1.49V111.907c0-0.824,0.666-1.492,1.49-1.492
	h169.92c0.822,0,1.49,0.668,1.49,1.492v169.917C393.167,282.646,392.499,283.314,391.677,283.314z M223.25,280.334h166.935V113.396
	H223.25V280.334z"/>
<circle style="fill:#FFFFFF;" cx="306.714" cy="196.865" r="57.472"/>
<g>
	<path style="fill:#232E38;" d="M306.719,255.827c-32.509,0-58.962-26.452-58.962-58.962c0-32.512,26.452-58.962,58.962-58.962
		c32.512,0,58.962,26.45,58.962,58.962S339.231,255.827,306.719,255.827z M306.719,140.883c-30.868,0-55.982,25.114-55.982,55.982
		c0,30.866,25.114,55.982,55.982,55.982s55.982-25.116,55.982-55.982C362.701,165.997,337.585,140.883,306.719,140.883z"/>
	<path style="fill:#232E38;" d="M306.719,255.827c-16.305,0-29.074-25.902-29.074-58.962c0-33.062,12.769-58.962,29.074-58.962
		c0.824,0,1.49,0.666,1.49,1.49s-0.666,1.492-1.49,1.492c-14.39,0-26.094,25.114-26.094,55.982
		c0,30.866,11.704,55.982,26.094,55.982c0.824,0,1.49,0.666,1.49,1.49C308.209,255.164,307.543,255.827,306.719,255.827z"/>
	<path style="fill:#232E38;" d="M306.719,255.827c-0.822,0-1.49-0.668-1.49-1.492c0-0.824,0.668-1.49,1.49-1.49
		c14.39,0,26.094-25.116,26.094-55.982c0-30.868-11.704-55.982-26.094-55.982c-0.822,0-1.49-0.668-1.49-1.492
		c0-0.824,0.668-1.49,1.49-1.49c16.305,0,29.076,25.9,29.076,58.962C335.795,229.925,323.023,255.827,306.719,255.827z"/>
	<path style="fill:#232E38;" d="M306.719,255.827c-0.822,0-1.49-0.668-1.49-1.492V139.391c0-0.824,0.668-1.49,1.49-1.49
		c0.824,0,1.49,0.666,1.49,1.49v114.944C308.209,255.159,307.543,255.827,306.719,255.827z"/>
	<path style="fill:#232E38;" d="M306.719,225.947c-33.062,0-58.962-12.774-58.962-29.082c0-0.824,0.666-1.492,1.49-1.492
		c0.824,0,1.49,0.668,1.49,1.492c0,14.392,25.114,26.102,55.982,26.102s55.982-11.709,55.982-26.102c0-0.824,0.666-1.492,1.49-1.492
		c0.822,0,1.49,0.668,1.49,1.492C365.681,213.172,339.781,225.947,306.719,225.947z"/>
	<path style="fill:#232E38;" d="M364.191,198.355c-0.824,0-1.49-0.666-1.49-1.49c0-14.39-25.116-26.097-55.982-26.097
		s-55.982,11.707-55.982,26.097c0,0.824-0.666,1.49-1.49,1.49c-0.824,0-1.49-0.666-1.49-1.49c0-16.305,25.9-29.076,58.962-29.076
		s58.962,12.772,58.962,29.076C365.681,197.69,365.012,198.355,364.191,198.355z"/>
	<path style="fill:#232E38;" d="M364.191,198.355H249.247c-0.824,0-1.49-0.666-1.49-1.49s0.666-1.492,1.49-1.492h114.944
		c0.822,0,1.49,0.668,1.49,1.492S365.012,198.355,364.191,198.355z"/>
</g>
<path style="fill:#FFFFFF;" d="M215.616,292.479c2.801,0,5.619,1.083,7.767,3.218c2.132,2.138,3.213,4.961,3.213,7.759
	l-0.01,127.416c0.01,2.826-1.07,5.635-3.203,7.77c-2.148,2.148-4.966,3.205-7.762,3.213H13.514c-2.806,0-5.601-1.065-7.767-3.213
	c-2.135-2.135-3.213-4.943-3.213-7.77l0.01-127.404c-0.01-2.811,1.068-5.635,3.203-7.785c2.166-2.122,4.961-3.205,7.762-3.205
	H215.616z"/>
<g>
	<path style="fill:#F77B55;" d="M161.331,370.379c0-7.885,4.296-14.758,10.673-18.45c-3.139-1.823-6.776-2.877-10.662-2.877
		c-11.796,0-21.35,9.556-21.35,21.327c0,11.786,9.554,21.343,21.35,21.343c3.884,0,7.521-1.055,10.662-2.877
		C165.627,385.151,161.331,378.275,161.331,370.379z"/>
	<path style="fill:#F77B55;" d="M62.369,382.168c0,1.633-1.344,2.985-2.993,2.985h-31.26c-1.654,0-2.982-1.352-2.982-2.985v-23.585
		c0-1.631,1.329-2.967,2.982-2.967h31.26c1.649,0,2.993,1.336,2.993,2.967V382.168z"/>
</g>
<rect x="25.134" y="307.352" style="fill:#FDCA5C;" width="84.434" height="10.452"/>
<g>
	<path style="fill:#232E38;" d="M62.369,416.91H25.134c-0.824,0-1.492-0.666-1.492-1.49c0-0.822,0.668-1.49,1.492-1.49h37.233
		c0.824,0,1.49,0.668,1.49,1.49C63.859,416.247,63.194,416.91,62.369,416.91z"/>
	<path style="fill:#232E38;" d="M109.571,416.91H72.348c-0.824,0-1.49-0.666-1.49-1.49c0-0.822,0.666-1.49,1.49-1.49h37.222
		c0.824,0,1.49,0.668,1.49,1.49C111.06,416.247,110.395,416.91,109.571,416.91z"/>
	<path style="fill:#232E38;" d="M156.79,416.91h-37.245c-0.824,0-1.492-0.666-1.492-1.49c0-0.822,0.666-1.49,1.492-1.49h37.245
		c0.824,0,1.49,0.668,1.49,1.49C158.28,416.247,157.612,416.91,156.79,416.91z"/>
	<path style="fill:#232E38;" d="M204.001,416.91h-37.233c-0.824,0-1.49-0.666-1.49-1.49c0-0.822,0.666-1.49,1.49-1.49h37.233
		c0.824,0,1.49,0.668,1.49,1.49C205.491,416.247,204.826,416.91,204.001,416.91z"/>
	<path style="fill:#232E38;" d="M109.571,319.297H25.134c-0.824,0-1.492-0.668-1.492-1.49v-10.452c0-0.822,0.668-1.49,1.492-1.49
		h84.434c0.824,0,1.49,0.668,1.49,1.49v10.452C111.06,318.629,110.395,319.297,109.571,319.297z M26.624,316.315h81.454v-7.47
		H26.624V316.315z"/>
</g>
<path style="fill:#EE643C;" d="M226.586,328.157H2.545c-1.4,0-2.532-1.132-2.532-2.532c0-1.4,1.132-2.532,2.532-2.532h224.041
	c1.4,0,2.532,1.132,2.532,2.532C229.117,327.026,227.986,328.157,226.586,328.157z"/>
<g>
	<path style="fill:#232E38;" d="M182.674,393.207c-12.585,0-22.822-10.237-22.822-22.822s10.237-22.825,22.822-22.825
		s22.825,10.24,22.825,22.825S195.259,393.207,182.674,393.207z M182.674,350.542c-10.939,0-19.843,8.904-19.843,19.843
		s8.904,19.843,19.843,19.843s19.843-8.904,19.843-19.843S193.613,350.542,182.674,350.542z"/>
	<path style="fill:#232E38;" d="M182.674,393.207c-6.817,0-12.157-10.025-12.157-22.822s5.338-22.825,12.157-22.825
		c0.824,0,1.492,0.668,1.492,1.492c0,0.822-0.668,1.49-1.492,1.49c-4.429,0-9.175,7.972-9.175,19.843
		c0,11.868,4.746,19.843,9.175,19.843c0.824,0,1.492,0.666,1.492,1.49C184.164,392.539,183.498,393.207,182.674,393.207z"/>
	<path style="fill:#232E38;" d="M182.674,393.207c-0.824,0-1.49-0.668-1.49-1.49c0-0.824,0.666-1.49,1.49-1.49
		c4.431,0,9.175-7.974,9.175-19.843c0-11.871-4.746-19.843-9.175-19.843c-0.824,0-1.49-0.668-1.49-1.49
		c0-0.824,0.666-1.492,1.49-1.492c6.82,0,12.157,10.028,12.157,22.825C194.831,383.182,189.494,393.207,182.674,393.207z"/>
	<path style="fill:#232E38;" d="M182.674,393.207c-0.824,0-1.49-0.668-1.49-1.49v-42.665c0-0.824,0.666-1.492,1.49-1.492
		c0.824,0,1.492,0.668,1.492,1.492v42.665C184.164,392.539,183.498,393.207,182.674,393.207z"/>
	<path style="fill:#232E38;" d="M204.006,371.875h-42.665c-0.824,0-1.49-0.668-1.49-1.49c0-0.824,0.666-1.49,1.49-1.49h42.665
		c0.824,0,1.49,0.666,1.49,1.49C205.496,371.206,204.831,371.875,204.006,371.875z"/>
	<path style="fill:#232E38;" d="M182.674,361.207c-5.844,0-11.604-0.917-17.119-2.732c-0.783-0.256-1.208-1.098-0.95-1.879
		c0.256-0.781,1.098-1.219,1.882-0.95c10.424,3.425,21.96,3.425,32.376,0c0.778-0.266,1.62,0.169,1.879,0.95
		c0.259,0.783-0.166,1.626-0.95,1.879C194.284,360.288,188.524,361.207,182.674,361.207z"/>
	<path style="fill:#232E38;" d="M199.332,385.199c-0.154,0-0.312-0.026-0.466-0.077c-10.419-3.42-21.955-3.425-32.376,0
		c-0.783,0.264-1.626-0.166-1.882-0.947c-0.259-0.783,0.166-1.626,0.95-1.879c11.031-3.628,23.217-3.625,34.24,0
		c0.783,0.256,1.208,1.098,0.95,1.879C200.54,384.8,199.956,385.199,199.332,385.199z"/>
	<path style="fill:#232E38;" d="M215.631,444.389h-0.008H13.514c-3.592,0-6.984-1.403-9.551-3.95C1.403,437.884,0,434.49,0,430.872
		l0.01-127.404c-0.018-3.594,1.385-6.999,3.937-9.569c2.611-2.557,5.998-3.953,9.559-3.953h202.109c3.592,0,6.986,1.403,9.551,3.95
		c2.56,2.57,3.963,5.962,3.963,9.559l-0.01,127.416c0.018,3.599-1.388,6.996-3.942,9.559
		C222.636,442.973,219.246,444.379,215.631,444.389z M13.507,295.011c-2.227,0-4.355,0.883-5.988,2.483
		c-1.574,1.587-2.452,3.712-2.442,5.962l-0.01,127.416c0,2.263,0.881,4.388,2.473,5.978c1.605,1.59,3.73,2.473,5.975,2.473h202.099
		c2.268-0.008,4.39-0.886,5.98-2.47c1.595-1.6,2.468-3.717,2.458-5.967l0.013-127.427c0-2.214-0.904-4.393-2.478-5.972
		c-1.6-1.59-3.725-2.473-5.972-2.473H13.507V295.011z"/>
	<path style="fill:#232E38;" d="M161.341,393.215c-12.593,0-22.84-10.245-22.84-22.835c0-12.582,10.248-22.82,22.84-22.82
		c3.994,0,7.939,1.068,11.41,3.08c0.461,0.269,0.742,0.76,0.742,1.29c0,0.532-0.282,1.024-0.742,1.29
		c-6.126,3.546-9.93,10.122-9.93,17.16c0,7.048,3.804,13.629,9.93,17.175c0.461,0.266,0.742,0.758,0.742,1.29
		c0,0.53-0.282,1.019-0.742,1.29C169.28,392.147,165.335,393.215,161.341,393.215z M161.341,350.542
		c-10.952,0-19.86,8.901-19.86,19.837c0,10.947,8.909,19.853,19.86,19.853c2.639,0,5.258-0.535,7.688-1.564
		c-5.727-4.283-9.19-11.072-9.19-18.289c0-7.209,3.466-13.993,9.19-18.273C166.6,351.077,163.981,350.542,161.341,350.542z"/>
	<path style="fill:#232E38;" d="M59.377,386.643h-31.26c-2.465,0-4.472-2.007-4.472-4.475v-23.585c0-2.46,2.007-4.46,4.472-4.46
		h31.26c2.47,0,4.483,1.999,4.483,4.46v23.585C63.859,384.636,61.847,386.643,59.377,386.643z M28.116,357.106
		c-0.822,0-1.492,0.663-1.492,1.477v23.585c0,0.822,0.671,1.495,1.492,1.495h31.26c0.814,0,1.5-0.686,1.5-1.495v-23.585
		c0-0.814-0.673-1.477-1.5-1.477H28.116z"/>
</g>
<path style="fill:#FDCA5C;" d="M86.001,181.28c0,23.076-18.678,41.766-41.71,41.766c-23.081,0-41.746-18.691-41.746-41.766
	c0-23.037,18.668-41.702,41.746-41.702C67.323,139.575,86.001,158.243,86.001,181.28z"/>
<g>
	<path style="fill:#232E38;" d="M44.291,224.651c-23.903,0-43.354-19.459-43.354-43.372c0-23.88,19.448-43.308,43.354-43.308
		c23.887,0,43.318,19.428,43.318,43.308C87.608,205.193,68.175,224.651,44.291,224.651z M44.291,141.183
		c-22.134,0-40.138,17.984-40.138,40.095c0,22.144,18.004,40.159,40.138,40.159c22.113,0,40.105-18.015,40.105-40.159
		C84.393,159.169,66.404,141.183,44.291,141.183z"/>
	<path style="fill:#232E38;" d="M44.291,214.122c-18.112,0-32.85-14.733-32.85-32.845s14.735-32.845,32.85-32.845
		c18.122,0,32.868,14.733,32.868,32.845C77.158,199.389,62.413,214.122,44.291,214.122z M44.291,151.648
		c-16.34,0-29.635,13.292-29.635,29.629s13.294,29.629,29.635,29.629c16.353,0,29.652-13.292,29.652-29.629
		S60.641,151.648,44.291,151.648z"/>
	<path style="fill:#232E38;" d="M40.115,169.071c-0.888,0-1.605-0.719-1.605-1.608v-6.226c0-0.888,0.719-1.608,1.605-1.608
		c0.888,0,1.608,0.719,1.608,1.608v6.226C41.723,168.352,41.004,169.071,40.115,169.071z"/>
	<path style="fill:#232E38;" d="M45.658,169.071c-0.888,0-1.608-0.719-1.608-1.608v-6.226c0-0.888,0.719-1.608,1.608-1.608
		s1.605,0.719,1.605,1.608v6.226C47.265,168.352,46.546,169.071,45.658,169.071z"/>
	<path style="fill:#232E38;" d="M40.115,202.989c-0.888,0-1.605-0.719-1.605-1.608v-6.226c0-0.888,0.719-1.608,1.605-1.608
		c0.888,0,1.608,0.719,1.608,1.608v6.226C41.723,202.272,41.004,202.989,40.115,202.989z"/>
	<path style="fill:#232E38;" d="M45.658,202.989c-0.888,0-1.608-0.719-1.608-1.608v-6.226c0-0.888,0.719-1.608,1.608-1.608
		s1.605,0.719,1.605,1.608v6.226C47.265,202.272,46.546,202.989,45.658,202.989z"/>
	<path style="fill:#232E38;" d="M51.195,182.918H34.578c-0.888,0-1.608-0.719-1.608-1.608s0.719-1.605,1.608-1.605h16.617
		c1.421,0,2.757-0.55,3.761-1.554c1.001-1.004,1.554-2.34,1.554-3.761c0-1.423-0.55-2.76-1.554-3.761
		c-1.004-1.001-2.34-1.554-3.761-1.554H30.428c-0.888,0-1.608-0.719-1.608-1.608s0.719-1.605,1.608-1.605h20.767
		c2.276,0,4.421,0.888,6.031,2.499c1.61,1.605,2.499,3.748,2.499,6.031c0,2.276-0.888,4.421-2.499,6.031
		C55.619,182.03,53.476,182.918,51.195,182.918z"/>
	<path style="fill:#232E38;" d="M51.195,196.763H30.428c-0.888,0-1.608-0.719-1.608-1.605c0-0.888,0.719-1.608,1.608-1.608h20.767
		c1.421,0,2.757-0.553,3.761-1.554c1.006-1.004,1.554-2.34,1.554-3.761c0-1.421-0.553-2.757-1.554-3.761
		c-1.004-1.006-2.34-1.554-3.761-1.554H34.578c-0.888,0-1.608-0.719-1.608-1.608s0.719-1.605,1.608-1.605h16.617
		c2.281,0,4.424,0.888,6.031,2.499c1.61,1.613,2.499,3.756,2.499,6.031c0,2.281-0.888,4.426-2.499,6.031
		C55.616,195.875,53.471,196.763,51.195,196.763z"/>
	<path style="fill:#232E38;" d="M34.578,196.763c-0.888,0-1.608-0.719-1.608-1.605v-27.692c0-0.888,0.719-1.605,1.608-1.605
		s1.605,0.719,1.605,1.605v27.692C36.186,196.044,35.466,196.763,34.578,196.763z"/>
</g>
<path style="fill:#FDCA5C;" d="M509.468,400.088c0,23.078-18.678,41.764-41.71,41.764c-23.081,0-41.748-18.688-41.748-41.764
	c0-23.035,18.667-41.702,41.748-41.702C490.79,358.386,509.468,377.053,509.468,400.088z"/>
<g>
	<path style="fill:#232E38;" d="M467.758,443.462c-23.905,0-43.354-19.459-43.354-43.372c0-23.88,19.448-43.31,43.354-43.31
		c23.885,0,43.318,19.43,43.318,43.31C511.076,424.004,491.643,443.462,467.758,443.462z M467.758,359.994
		c-22.134,0-40.141,17.984-40.141,40.095c0,22.144,18.004,40.161,40.141,40.161c22.113,0,40.102-18.015,40.102-40.161
		C507.86,377.978,489.869,359.994,467.758,359.994z"/>
	<path style="fill:#232E38;" d="M467.758,432.936c-18.115,0-32.85-14.738-32.85-32.847c0-18.109,14.735-32.847,32.85-32.847
		c18.12,0,32.865,14.738,32.865,32.847C500.623,418.198,485.878,432.936,467.758,432.936z M467.758,370.456
		c-16.343,0-29.637,13.292-29.637,29.632c0,16.34,13.294,29.632,29.637,29.632c16.351,0,29.652-13.292,29.652-29.632
		C497.411,383.748,484.106,370.456,467.758,370.456z"/>
	<path style="fill:#232E38;" d="M463.583,387.882c-0.888,0-1.608-0.717-1.608-1.605v-6.228c0-0.888,0.719-1.608,1.608-1.608
		c0.888,0,1.608,0.719,1.608,1.608v6.228C465.19,387.163,464.471,387.882,463.583,387.882z"/>
	<path style="fill:#232E38;" d="M469.125,387.882c-0.888,0-1.608-0.717-1.608-1.605v-6.228c0-0.888,0.719-1.608,1.608-1.608
		c0.888,0,1.608,0.719,1.608,1.608v6.228C470.733,387.163,470.013,387.882,469.125,387.882z"/>
	<path style="fill:#232E38;" d="M463.583,421.8c-0.888,0-1.608-0.717-1.608-1.605v-6.228c0-0.888,0.719-1.608,1.608-1.608
		c0.888,0,1.608,0.719,1.608,1.608v6.228C465.19,421.08,464.471,421.8,463.583,421.8z"/>
	<path style="fill:#232E38;" d="M469.125,421.8c-0.888,0-1.608-0.717-1.608-1.605v-6.228c0-0.888,0.719-1.608,1.608-1.608
		c0.888,0,1.608,0.719,1.608,1.608v6.228C470.733,421.08,470.013,421.8,469.125,421.8z"/>
	<path style="fill:#232E38;" d="M474.662,401.729h-16.617c-0.888,0-1.608-0.719-1.608-1.608c0-0.888,0.719-1.608,1.608-1.608h16.617
		c1.421,0,2.755-0.55,3.761-1.554c1.006-1.004,1.554-2.34,1.554-3.761c0-1.423-0.55-2.757-1.554-3.763
		c-1.004-1.006-2.34-1.554-3.761-1.554h-20.769c-0.888,0-1.605-0.717-1.605-1.605c0-0.891,0.717-1.608,1.605-1.608h20.769
		c2.278,0,4.424,0.888,6.029,2.499c1.61,1.61,2.501,3.753,2.501,6.031c0,2.278-0.891,4.421-2.501,6.029
		C479.086,400.838,476.941,401.729,474.662,401.729z"/>
	<path style="fill:#232E38;" d="M474.662,415.574h-20.769c-0.888,0-1.605-0.719-1.605-1.608c0-0.888,0.717-1.608,1.605-1.608h20.769
		c1.421,0,2.755-0.55,3.761-1.554s1.554-2.34,1.554-3.761c0-1.428-0.55-2.76-1.551-3.758c-1.009-1.009-2.342-1.556-3.763-1.556
		h-16.617c-0.888,0-1.608-0.719-1.608-1.608c0-0.888,0.719-1.608,1.608-1.608h16.617c2.278,0,4.424,0.888,6.029,2.499
		c1.61,1.603,2.501,3.745,2.501,6.031c0,2.281-0.891,4.424-2.501,6.031C479.086,414.685,476.941,415.574,474.662,415.574z"/>
	<path style="fill:#232E38;" d="M458.045,415.574c-0.888,0-1.608-0.719-1.608-1.608v-27.689c0-0.891,0.719-1.608,1.608-1.608
		c0.888,0,1.608,0.717,1.608,1.608v27.689C459.653,414.854,458.934,415.574,458.045,415.574z"/>
</g>
<g>
</g>
<g>
</g>
<g>
</g>
<g>
</g>
<g>
</g>
<g>
</g>
<g>
</g>
<g>
</g>
<g>
</g>
<g>
</g>
<g>
</g>
<g>
</g>
<g>
</g>
<g>
</g>
<g>
</g>
</svg>
