<?xml version="1.0" encoding="iso-8859-1"?>
<!-- Generator: Adobe Illustrator 19.0.0, SVG Export Plug-In . SVG Version: 6.00 Build 0)  -->
<svg version="1.1" id="Layer_1" xmlns="http://www.w3.org/2000/svg" xmlns:xlink="http://www.w3.org/1999/xlink" x="0px" y="0px"
	 viewBox="0 0 512.002 512.002" style="enable-background:new 0 0 512.002 512.002;" xml:space="preserve">
<g>
	<path style="fill:#FFFFFF;" d="M318.193,261.067c-2.281-8.62-7.324-16.576-14.956-22.436c-7.626-5.857-16.599-8.673-25.533-8.673
		h-65.587c-10.726,0-21.445,4.101-29.632,12.275c-8.192,8.189-12.278,18.908-12.278,40.279V421.41h97.792
		c10.724,0,21.45-4.099,29.637-12.278c8.179-8.184,12.26-18.911,12.26-29.632v-44.774h27.945L318.193,261.067z"/>
	<rect x="170.214" y="421.402" style="fill:#FFFFFF;" width="87.322" height="47.416"/>
</g>
<g>
	<path style="fill:#232E38;" d="M292.073,291.088c0,4.89,3.973,8.87,8.873,8.87s8.87-3.981,8.87-8.87
		c0-4.915-3.971-8.886-8.87-8.886C296.046,282.202,292.073,286.173,292.073,291.088z"/>
	<path style="fill:#232E38;" d="M257.531,291.088c0,4.89,3.976,8.865,8.873,8.865c4.892,0,8.868-3.976,8.868-8.865
		c0-4.913-3.976-8.883-8.868-8.883C261.504,282.205,257.531,286.176,257.531,291.088z"/>
</g>
<path style="fill:#FDCA5C;" d="M337.843,212.499c0,8.937-3.41,17.879-10.235,24.694c-6.807,6.828-15.754,10.225-24.686,10.225
	h-83.354c-8.727,0-17.462-3.261-24.22-9.779c6.513,6.761,9.784,15.498,9.784,24.228v72.863h-17.467v44.941h-17.459V261.377
	c0-12.521,4.777-25.027,14.328-34.58c9.541-9.539,22.057-14.318,34.57-14.318L337.843,212.499z"/>
<path style="fill:#FFFFFF;" d="M152.745,322.51c0-3.571,1.367-7.153,4.088-9.874c2.734-2.729,6.31-4.091,9.884-4.091h6.984
	c3.571,0,7.153,1.359,9.879,4.091c2.721,2.721,4.086,6.305,4.086,9.874v35.937h-20.948c-3.574,0-7.15-1.365-9.884-4.093
	c-2.721-2.729-4.088-6.303-4.088-9.882V322.51z"/>
<g>
	<path style="fill:#232E38;" d="M257.546,471.054h-87.342c-1.226,0-2.22-0.993-2.22-2.217V358.444c0-1.226,0.996-2.22,2.22-2.22
		c1.226,0,2.222,0.993,2.222,2.22v108.173h82.898V421.39c0-1.226,0.996-2.22,2.222-2.22h10.463c10.578,0,20.544-4.116,28.076-11.592
		c7.491-7.526,11.62-17.492,11.62-28.058v-44.79c0-1.226,0.996-2.22,2.217-2.22h25.032l-18.895-70.881
		c-1.3-4.969-3.574-9.61-6.774-13.801c-0.742-0.975-0.553-2.371,0.422-3.113c0.973-0.742,2.368-0.553,3.113,0.42
		c3.551,4.664,6.085,9.828,7.532,15.363l19.635,73.659c0.174,0.668,0.036,1.377-0.387,1.925c-0.42,0.548-1.07,0.868-1.761,0.868
		h-25.7v42.57c0,11.745-4.588,22.825-12.918,31.201c-8.376,8.315-19.461,12.89-31.214,12.89h-8.246v45.228
		C259.766,470.06,258.77,471.054,257.546,471.054z"/>
	<path style="fill:#232E38;" d="M205.128,336.948h-17.467c-1.226,0-2.222-0.993-2.222-2.22s0.996-2.22,2.222-2.22h15.247v-70.63
		c0-8.507-3.246-16.568-9.139-22.7c-0.84-0.873-0.824-2.258,0.036-3.113c0.858-0.858,2.24-0.865,3.113-0.02
		c6.1,5.919,14.144,9.178,22.648,9.178h83.361c8.724,0,16.934-3.415,23.117-9.615c5.652-5.64,8.98-12.995,9.505-20.908H219.105
		c-12.46,0-24.177,4.849-32.991,13.65c-8.827,8.829-13.688,20.562-13.688,33.029v47.165c0,1.226-0.996,2.22-2.222,2.22
		c-1.226,0-2.22-0.993-2.22-2.22v-47.165c0-13.655,5.325-26.504,14.991-36.17c9.654-9.641,22.482-14.945,36.129-14.945h118.738
		c1.226,0,2.222,0.993,2.222,2.22c0,9.933-3.866,19.261-10.88,26.266c-7.017,7.037-16.343,10.913-26.258,10.913h-83.361
		c-5.494,0-10.821-1.198-15.67-3.466c2.26,4.856,3.453,10.186,3.453,15.68v72.85C207.35,335.955,206.354,336.948,205.128,336.948z"
		/>
	<path style="fill:#232E38;" d="M187.661,381.886h-17.457c-1.226,0-2.22-0.993-2.22-2.22v-21.222c0-1.226,0.996-2.22,2.22-2.22
		c1.226,0,2.222,0.993,2.222,2.22v19.005h13.012v-19.005c0-1.226,0.996-2.22,2.222-2.22c1.226,0,2.22,0.993,2.22,2.22v21.222
		C189.88,380.893,188.887,381.886,187.661,381.886z"/>
	<path style="fill:#232E38;" d="M187.666,360.666h-20.948c-4.321,0-8.387-1.682-11.451-4.741c-3.059-3.064-4.744-7.132-4.744-11.453
		V322.51c0-4.324,1.684-8.387,4.741-11.443c3.062-3.059,7.13-4.741,11.453-4.741h6.984c4.329,0,8.397,1.679,11.451,4.741
		c3.054,3.052,4.736,7.114,4.736,11.443v12.216c0,1.226-0.996,2.22-2.22,2.22c-1.226,0-2.222-0.993-2.222-2.22V322.51
		c0-3.141-1.219-6.09-3.433-8.305c-2.217-2.217-5.166-3.441-8.31-3.441h-6.984c-3.141,0-6.093,1.224-8.315,3.443
		c-2.217,2.214-3.438,5.166-3.438,8.302v21.962c0,3.139,1.224,6.088,3.443,8.312c2.22,2.217,5.174,3.443,8.31,3.443h20.948
		c1.226,0,2.22,0.993,2.22,2.22C189.885,359.673,188.892,360.666,187.666,360.666z"/>
</g>
<g>
	<path style="fill:#FDCA5C;" d="M286.774,83.726c0,22.917-18.575,41.482-41.49,41.482c-22.904,0-41.469-18.563-41.469-41.482
		c0-22.899,18.565-41.482,41.469-41.482C268.201,42.243,286.774,60.826,286.774,83.726z"/>
	<rect x="236.134" y="163.741" style="fill:#FDCA5C;" width="18.322" height="9.162"/>
	<rect x="230.554" y="122.52" style="fill:#FDCA5C;" width="29.458" height="11.671"/>
</g>
<rect x="227.482" y="134.196" style="fill:#FFFFFF;" width="35.625" height="29.548"/>
<g>
	<path style="fill:#232E38;" d="M260.019,135.499h-29.458c-0.719,0-1.306-0.584-1.306-1.306v-11.671
		c0-0.722,0.586-1.306,1.306-1.306h29.458c0.724,0,1.308,0.586,1.308,1.306v11.671C261.327,134.915,260.746,135.499,260.019,135.499
		z M231.867,132.885h26.847v-9.057h-26.847V132.885z"/>
	<path style="fill:#232E38;" d="M263.096,165.047h-35.625c-0.722,0-1.306-0.586-1.306-1.306v-29.55c0-0.722,0.584-1.306,1.306-1.306
		h35.625c0.719,0,1.306,0.586,1.306,1.306v29.548C264.402,164.463,263.818,165.047,263.096,165.047z M228.777,162.435h33.014
		v-26.936h-33.014V162.435z"/>
	<path style="fill:#232E38;" d="M230.572,123.818c-0.154,0-0.31-0.028-0.458-0.084c-16.509-6.241-27.602-22.313-27.602-39.997
		c0-23.596,19.195-42.788,42.785-42.788s42.785,19.195,42.785,42.788c0,17.659-11.087,33.731-27.587,39.997
		c-0.668,0.248-1.428-0.084-1.684-0.758c-0.253-0.676,0.082-1.428,0.76-1.687c15.491-5.88,25.9-20.972,25.9-37.553
		c0-22.154-18.022-40.177-40.174-40.177c-22.154,0-40.174,18.022-40.174,40.177c0,16.604,10.414,31.695,25.915,37.553
		c0.673,0.256,1.014,1.009,0.76,1.684C231.598,123.495,231.099,123.818,230.572,123.818z"/>
	<path style="fill:#232E38;" d="M266.209,141.395h-41.833c-0.722,0-1.306-0.584-1.306-1.306s0.584-1.306,1.306-1.306h41.833
		c0.722,0,1.306,0.584,1.306,1.306C267.515,140.811,266.934,141.395,266.209,141.395z"/>
	<path style="fill:#232E38;" d="M266.209,147.321h-41.828c-0.722,0-1.306-0.584-1.306-1.306s0.586-1.306,1.306-1.306h41.828
		c0.722,0,1.306,0.586,1.306,1.306C267.515,146.737,266.934,147.321,266.209,147.321z"/>
	<path style="fill:#232E38;" d="M266.209,153.224h-41.828c-0.722,0-1.306-0.586-1.306-1.306c0-0.722,0.586-1.306,1.306-1.306h41.828
		c0.722,0,1.306,0.584,1.306,1.306C267.515,152.638,266.934,153.224,266.209,153.224z"/>
	<path style="fill:#232E38;" d="M266.209,159.125h-41.828c-0.722,0-1.306-0.584-1.306-1.306c0-0.722,0.586-1.306,1.306-1.306h41.828
		c0.722,0,1.306,0.586,1.306,1.306C267.515,158.542,266.934,159.125,266.209,159.125z"/>
	<path style="fill:#232E38;" d="M254.454,174.209h-18.322c-0.719,0-1.306-0.584-1.306-1.306v-9.162c0-0.722,0.586-1.306,1.306-1.306
		h18.322c0.724,0,1.306,0.584,1.306,1.306v9.162C255.759,173.625,255.178,174.209,254.454,174.209z M237.44,171.598h15.708v-6.551
		H237.44V171.598z"/>
	<path style="fill:#232E38;" d="M239.788,135.499c-0.722,0-1.306-0.584-1.306-1.306V85.149c0-0.722,0.584-1.306,1.306-1.306
		c0.722,0,1.306,0.586,1.306,1.306v49.044C241.091,134.915,240.507,135.499,239.788,135.499z"/>
	<path style="fill:#232E38;" d="M250.806,135.499c-0.722,0-1.306-0.584-1.306-1.306V85.149c0-0.722,0.584-1.306,1.306-1.306
		c0.722,0,1.306,0.586,1.306,1.306v49.044C252.111,134.915,251.528,135.499,250.806,135.499z"/>
	<path style="fill:#232E38;" d="M259.205,86.455h-27.817c-0.719,0-1.306-0.584-1.306-1.306c0-0.722,0.586-1.306,1.306-1.306h27.817
		c0.719,0,1.306,0.586,1.306,1.306C260.511,85.871,259.924,86.455,259.205,86.455z"/>
</g>
<circle style="fill:#92DEEB;" cx="44.859" cy="312.372" r="43.546"/>
<path style="fill:#FFFFFF;" d="M81.075,312.364c0,20.006-16.207,36.214-36.214,36.214c-20.009,0-36.216-16.207-36.216-36.214
	c0-20.004,16.21-36.214,36.216-36.214C64.87,276.148,81.075,292.358,81.075,312.364z"/>
<g>
	<path style="fill:#232E38;" d="M44.861,357.223C20.124,357.223,0,337.099,0,312.364c0-24.735,20.124-44.859,44.861-44.859
		c24.735,0,44.854,20.124,44.854,44.859C89.715,337.099,69.596,357.223,44.861,357.223z M44.861,270.117
		c-23.299,0-42.25,18.952-42.25,42.248c0,23.296,18.952,42.248,42.25,42.248c23.293,0,42.243-18.952,42.243-42.248
		S68.155,270.117,44.861,270.117z"/>
	<path style="fill:#232E38;" d="M44.861,349.884c-20.69,0-37.524-16.832-37.524-37.519c0-20.69,16.835-37.519,37.524-37.519
		s37.519,16.829,37.519,37.519C82.383,333.052,65.551,349.884,44.861,349.884z M44.861,277.456
		c-19.251,0-34.911,15.66-34.911,34.908c0,19.249,15.662,34.908,34.911,34.908s34.908-15.66,34.908-34.908
		S64.11,277.456,44.861,277.456z"/>
	<path style="fill:#232E38;" d="M44.861,317.74c-2.967,0-5.379-2.412-5.379-5.379c0-2.967,2.412-5.379,5.379-5.379
		c2.962,0,5.373,2.412,5.373,5.379C50.235,315.329,47.826,317.74,44.861,317.74z M44.861,309.6c-1.526,0-2.765,1.239-2.765,2.765
		s1.239,2.765,2.765,2.765c1.523,0,2.762-1.239,2.762-2.765S46.385,309.6,44.861,309.6z"/>
	<path style="fill:#232E38;" d="M44.861,309.6c-0.722,0-1.306-0.586-1.306-1.308v-23.084c0-0.722,0.584-1.308,1.306-1.308
		s1.306,0.586,1.306,1.308v23.084C46.17,309.013,45.583,309.6,44.861,309.6z"/>
</g>
<path style="fill:#EE643C;" d="M25.659,332.87c-0.335,0-0.668-0.128-0.924-0.381c-0.509-0.509-0.509-1.336,0-1.848l19.203-19.2
	c0.509-0.512,1.336-0.512,1.848,0c0.509,0.509,0.509,1.334,0,1.846L26.58,332.488C26.327,332.744,25.992,332.87,25.659,332.87z"/>
<g>
	<path style="fill:#232E38;" d="M62.963,313.667H48.932c-0.722,0-1.306-0.584-1.306-1.306c0-0.722,0.584-1.308,1.306-1.308h14.031
		c0.722,0,1.306,0.586,1.306,1.308C64.269,313.084,63.685,313.667,62.963,313.667z"/>
	<path style="fill:#232E38;" d="M44.861,283.342c-0.722,0-1.306-0.586-1.306-1.308v-2.714c0-0.722,0.584-1.308,1.306-1.308
		s1.306,0.586,1.306,1.308v2.714C46.17,282.755,45.583,283.342,44.861,283.342z"/>
	<path style="fill:#232E38;" d="M29.699,287.407c-0.451,0-0.888-0.233-1.132-0.65l-1.362-2.353
		c-0.364-0.625-0.148-1.423,0.476-1.784c0.622-0.364,1.423-0.148,1.784,0.476l1.362,2.353c0.364,0.625,0.151,1.423-0.476,1.784
		C30.147,287.351,29.921,287.407,29.699,287.407z"/>
	<path style="fill:#232E38;" d="M18.596,298.507c-0.223,0-0.448-0.054-0.653-0.174l-2.353-1.362
		c-0.625-0.364-0.837-1.162-0.476-1.787c0.361-0.622,1.162-0.835,1.784-0.474l2.353,1.362c0.625,0.361,0.837,1.16,0.476,1.784
		C19.484,298.272,19.046,298.507,18.596,298.507z"/>
	<path style="fill:#232E38;" d="M14.533,313.67h-2.716c-0.722,0-1.306-0.584-1.306-1.306s0.586-1.308,1.306-1.308h2.716
		c0.722,0,1.306,0.586,1.306,1.308S15.255,313.67,14.533,313.67z"/>
	<path style="fill:#232E38;" d="M16.248,330.195c-0.451,0-0.888-0.236-1.132-0.655c-0.364-0.622-0.148-1.423,0.476-1.782l2.35-1.359
		c0.627-0.366,1.421-0.148,1.784,0.479c0.361,0.622,0.148,1.423-0.476,1.782l-2.35,1.359
		C16.694,330.138,16.471,330.195,16.248,330.195z"/>
	<path style="fill:#232E38;" d="M28.337,342.286c-0.22,0-0.445-0.054-0.65-0.174c-0.625-0.361-0.84-1.157-0.479-1.782l1.359-2.353
		c0.361-0.625,1.162-0.845,1.784-0.479c0.625,0.361,0.84,1.157,0.479,1.782l-1.359,2.353
		C29.228,342.05,28.79,342.286,28.337,342.286z"/>
	<path style="fill:#232E38;" d="M44.861,346.714c-0.722,0-1.306-0.586-1.306-1.308v-2.714c0-0.722,0.584-1.308,1.306-1.308
		s1.306,0.586,1.306,1.308v2.714C46.17,346.128,45.583,346.714,44.861,346.714z"/>
	<path style="fill:#232E38;" d="M61.386,342.286c-0.451,0-0.888-0.233-1.132-0.65l-1.362-2.353
		c-0.364-0.625-0.148-1.423,0.476-1.784c0.625-0.361,1.423-0.148,1.784,0.476l1.362,2.353c0.364,0.625,0.151,1.423-0.476,1.784
		C61.834,342.232,61.609,342.286,61.386,342.286z"/>
	<path style="fill:#232E38;" d="M73.477,330.195c-0.223,0-0.448-0.056-0.653-0.177l-2.353-1.359
		c-0.625-0.361-0.84-1.157-0.479-1.782c0.361-0.625,1.16-0.842,1.784-0.479l2.353,1.359c0.625,0.361,0.84,1.157,0.479,1.782
		C74.368,329.962,73.928,330.195,73.477,330.195z"/>
	<path style="fill:#232E38;" d="M77.903,313.667H75.19c-0.722,0-1.306-0.584-1.306-1.306c0-0.722,0.584-1.308,1.306-1.308h2.714
		c0.722,0,1.306,0.586,1.306,1.308C79.209,313.084,78.625,313.667,77.903,313.667z"/>
	<path style="fill:#232E38;" d="M71.127,298.507c-0.451,0-0.888-0.236-1.132-0.653c-0.364-0.622-0.148-1.423,0.476-1.782
		l2.353-1.362c0.622-0.366,1.421-0.151,1.784,0.476c0.364,0.622,0.148,1.423-0.476,1.784l-2.353,1.362
		C71.572,298.451,71.35,298.507,71.127,298.507z"/>
	<path style="fill:#232E38;" d="M60.022,287.407c-0.22,0-0.448-0.054-0.653-0.174c-0.625-0.363-0.84-1.16-0.476-1.784l1.362-2.353
		c0.361-0.625,1.16-0.84,1.784-0.476s0.837,1.16,0.476,1.784l-1.362,2.353C60.91,287.174,60.472,287.407,60.022,287.407z"/>
</g>
<circle style="fill:#F77B55;" cx="445.722" cy="308.02" r="43.546"/>
<path style="fill:#FFFFFF;" d="M482.319,308.01c0,20.209-16.392,36.588-36.587,36.588c-20.214,0-36.593-16.379-36.593-36.588
	c0-20.211,16.379-36.588,36.593-36.588C465.928,271.422,482.319,287.801,482.319,308.01z"/>
<circle style="fill:#F77B55;" cx="445.722" cy="308.02" r="17.418"/>
<circle style="fill:#FFFFFF;" cx="445.722" cy="308.02" r="10.452"/>
<g>
	<path style="fill:#232E38;" d="M445.732,352.869c-24.737,0-44.861-20.122-44.861-44.856c0-24.735,20.124-44.859,44.861-44.859
		c24.735,0,44.856,20.124,44.856,44.859C490.588,332.747,470.467,352.869,445.732,352.869z M445.732,265.762
		c-23.301,0-42.25,18.952-42.25,42.248c0,23.293,18.949,42.245,42.25,42.245c23.293,0,42.245-18.952,42.245-42.245
		C487.977,284.716,469.025,265.762,445.732,265.762z"/>
	<path style="fill:#232E38;" d="M445.732,345.903c-20.895,0-37.898-16.998-37.898-37.893c0-20.895,17.004-37.893,37.898-37.893
		c20.895,0,37.893,16.998,37.893,37.893C483.625,328.904,466.627,345.903,445.732,345.903z M445.732,272.73
		c-19.459,0-35.284,15.826-35.284,35.279s15.828,35.279,35.284,35.279c19.453,0,35.279-15.826,35.279-35.279
		S465.185,272.73,445.732,272.73z"/>
	<path style="fill:#232E38;" d="M445.732,326.734c-10.327,0-18.726-8.397-18.726-18.721s8.399-18.724,18.726-18.724
		c10.322,0,18.721,8.399,18.721,18.724S456.054,326.734,445.732,326.734z M445.732,291.897c-8.886,0-16.115,7.227-16.115,16.113
		c0,8.883,7.229,16.11,16.115,16.11c8.883,0,16.11-7.227,16.11-16.11S454.615,291.897,445.732,291.897z"/>
	<path style="fill:#232E38;" d="M445.732,319.763c-6.482,0-11.758-5.274-11.758-11.753c0-6.482,5.276-11.758,11.758-11.758
		c6.482,0,11.758,5.276,11.758,11.758S452.214,319.763,445.732,319.763z M445.732,298.865c-5.043,0-9.144,4.104-9.144,9.144
		s4.104,9.139,9.144,9.139c5.041,0,9.144-4.101,9.144-9.139C454.879,302.969,450.775,298.865,445.732,298.865z"/>
	<path style="fill:#232E38;" d="M501.985,309.318h-56.253c-0.722,0-1.308-0.586-1.308-1.308c0-0.722,0.586-1.306,1.308-1.306h56.253
		c0.724,0,1.306,0.584,1.306,1.306C503.291,308.732,502.71,309.318,501.985,309.318z"/>
	<path style="fill:#232E38;" d="M510.694,318.027c-0.335,0-0.671-0.128-0.924-0.381l-8.709-8.709
		c-0.243-0.243-0.381-0.576-0.381-0.922s0.141-0.678,0.381-0.922l8.709-8.707c0.509-0.509,1.336-0.509,1.848,0
		c0.512,0.509,0.509,1.336,0,1.848l-7.785,7.782l7.785,7.785c0.509,0.509,0.509,1.336,0,1.848
		C511.363,317.899,511.027,318.027,510.694,318.027z"/>
	<path style="fill:#232E38;" d="M502.597,318.027c-0.333,0-0.671-0.128-0.924-0.381l-8.699-8.709c-0.509-0.509-0.509-1.334,0-1.846
		l8.699-8.707c0.509-0.509,1.336-0.509,1.848,0s0.509,1.336,0,1.848l-7.777,7.782l7.777,7.785c0.509,0.509,0.509,1.336,0,1.848
		C503.265,317.899,502.932,318.027,502.597,318.027z"/>
</g>
<path style="fill:#FDCA5C;" d="M430.582,166.286c0,24.061-19.492,43.556-43.558,43.556s-43.551-19.494-43.551-43.556
	s19.484-43.556,43.551-43.556S430.582,142.224,430.582,166.286z"/>
<g>
	<path style="fill:#232E38;" d="M387.026,211.147c-24.735,0-44.856-20.124-44.856-44.861s20.122-44.861,44.856-44.861
		c24.737,0,44.861,20.124,44.861,44.861C431.887,191.02,411.763,211.147,387.026,211.147z M387.026,124.035
		c-23.293,0-42.245,18.954-42.245,42.25s18.952,42.25,42.245,42.25c23.299,0,42.25-18.954,42.25-42.25
		C429.276,142.987,410.322,124.035,387.026,124.035z"/>
	<path style="fill:#232E38;" d="M387.026,200.264c-18.734,0-33.976-15.242-33.976-33.979c0-18.734,15.242-33.976,33.976-33.976
		S421,147.552,421,166.286S405.76,200.264,387.026,200.264z M387.026,134.92c-17.295,0-31.365,14.072-31.365,31.365
		c0,17.295,14.07,31.365,31.365,31.365s31.363-14.072,31.363-31.365C418.388,148.99,404.321,134.92,387.026,134.92z"/>
	<path style="fill:#232E38;" d="M390.039,167.589h-6.029c-2.23,0-4.324-0.863-5.898-2.437c-1.572-1.587-2.437-3.681-2.437-5.903
		c0-2.227,0.865-4.319,2.437-5.891c1.564-1.58,3.663-2.45,5.898-2.45h13.064c0.719,0,1.306,0.584,1.306,1.306
		c0,0.722-0.586,1.306-1.306,1.306H384.01c-1.536,0-2.972,0.596-4.045,1.682c-1.083,1.08-1.677,2.516-1.677,4.047
		c0,1.528,0.594,2.97,1.677,4.06c1.073,1.07,2.511,1.667,4.045,1.667h6.029c0.722,0,1.308,0.584,1.308,1.306
		C391.347,167.005,390.764,167.589,390.039,167.589z"/>
	<path style="fill:#232E38;" d="M390.039,181.653H376.98c-0.722,0-1.308-0.584-1.308-1.306s0.586-1.306,1.308-1.306h13.059
		c1.528,0,2.962-0.594,4.05-1.677c1.078-1.078,1.674-2.519,1.674-4.052c0-1.526-0.596-2.962-1.677-4.047
		c-1.085-1.078-2.519-1.677-4.047-1.677h-6.029c-0.722,0-1.306-0.584-1.306-1.306c0-0.722,0.584-1.306,1.306-1.306h6.029
		c2.22,0,4.314,0.868,5.893,2.44c1.577,1.582,2.445,3.674,2.445,5.896c0,2.23-0.868,4.326-2.445,5.903
		C394.353,180.791,392.261,181.653,390.039,181.653z"/>
	<path style="fill:#232E38;" d="M387.026,185.672c-0.722,0-1.306-0.586-1.306-1.306v-36.165c0-0.722,0.584-1.306,1.306-1.306
		c0.722,0,1.308,0.586,1.308,1.306v36.163C388.332,185.086,387.748,185.672,387.026,185.672z"/>
</g>
<path style="fill:#F77B55;" d="M147.126,174.293v-16.026h-8.484c-0.896-4.006-2.481-7.754-4.6-11.123l6.001-5.993l-11.348-11.333
	l-5.99,5.998c-3.377-2.122-7.114-3.699-11.123-4.616v-8.474H95.562v8.471c-4.001,0.916-7.744,2.493-11.123,4.616l-5.985-5.998
	l-11.356,11.333l6.013,5.993c-2.127,3.366-3.709,7.114-4.611,11.123h-8.486v16.026H68.5c0.901,4.009,2.483,7.757,4.611,11.126
	l-6.013,5.993l11.356,11.331l5.985-5.998c3.372,2.125,7.122,3.699,11.123,4.618v8.474h16.018v-8.479
	c4.006-0.914,7.744-2.488,11.123-4.611l5.99,5.996l11.348-11.331l-6.001-5.993c2.115-3.366,3.707-7.114,4.6-11.126h8.484V174.293z
	 M103.57,185.132c-10.404,0-18.862-8.438-18.862-18.854c0-10.414,8.458-18.852,18.862-18.852s18.86,8.435,18.86,18.852
	S113.974,185.132,103.57,185.132z"/>
<path style="fill:#232E38;" d="M111.578,211.142H95.56c-0.722,0-1.306-0.584-1.306-1.306v-7.45
	c-3.389-0.878-6.618-2.217-9.618-3.994l-5.258,5.271c-0.509,0.509-1.336,0.509-1.846,0l-11.359-11.333
	c-0.246-0.246-0.384-0.576-0.384-0.922c0-0.348,0.138-0.681,0.384-0.927l5.281-5.263c-1.789-3.018-3.128-6.244-3.986-9.623h-7.46
	c-0.722,0-1.306-0.586-1.306-1.306v-16.026c0-0.722,0.586-1.306,1.306-1.306h7.46c0.86-3.377,2.199-6.605,3.986-9.62l-5.281-5.263
	c-0.246-0.246-0.384-0.579-0.384-0.927c0-0.346,0.138-0.678,0.384-0.922l11.359-11.336c0.243-0.246,0.576-0.381,0.922-0.381l0,0
	c0.348,0,0.678,0.138,0.924,0.381l5.258,5.271c3.011-1.779,6.239-3.118,9.618-3.991v-7.444c0-0.722,0.584-1.306,1.306-1.306h16.018
	c0.722,0,1.306,0.584,1.306,1.306v7.447c3.377,0.87,6.605,2.209,9.618,3.991l5.263-5.271c0.246-0.246,0.579-0.381,0.924-0.381l0,0
	c0.346,0,0.678,0.138,0.924,0.381l11.346,11.336c0.246,0.246,0.384,0.576,0.384,0.922c0,0.348-0.138,0.678-0.384,0.924l-5.274,5.266
	c1.792,3.028,3.128,6.259,3.983,9.62h7.455c0.722,0,1.306,0.586,1.306,1.306v16.026c0,0.722-0.584,1.306-1.306,1.306h-7.455
	c-0.852,3.354-2.189,6.584-3.983,9.618l5.274,5.268c0.246,0.246,0.384,0.576,0.384,0.924c0,0.346-0.138,0.678-0.384,0.922
	l-11.346,11.333c-0.509,0.509-1.336,0.509-1.848,0l-5.263-5.268c-3.013,1.779-6.241,3.118-9.618,3.988v7.452
	C112.886,210.558,112.302,211.142,111.578,211.142z M96.868,208.528h13.404v-7.173c0-0.609,0.422-1.139,1.016-1.275
	c3.799-0.868,7.406-2.358,10.719-4.444c0.515-0.32,1.188-0.251,1.618,0.184l5.066,5.071l9.498-9.485l-5.074-5.069
	c-0.43-0.43-0.507-1.101-0.182-1.615c2.102-3.348,3.592-6.953,4.434-10.719c0.133-0.596,0.66-1.019,1.275-1.019h7.178v-13.414
	h-7.178c-0.612,0-1.142-0.425-1.275-1.019c-0.845-3.776-2.337-7.38-4.434-10.714c-0.323-0.517-0.248-1.188,0.182-1.618l5.074-5.069
	l-9.498-9.487l-5.066,5.074c-0.433,0.43-1.106,0.502-1.62,0.184c-3.315-2.084-6.922-3.581-10.719-4.449
	c-0.594-0.136-1.016-0.663-1.016-1.275v-7.165H96.865v7.165c0,0.609-0.422,1.137-1.014,1.275c-3.802,0.868-7.409,2.365-10.721,4.449
	c-0.517,0.32-1.188,0.251-1.62-0.184l-5.064-5.074l-9.505,9.487l5.087,5.066c0.43,0.433,0.509,1.108,0.182,1.623
	c-2.092,3.313-3.587,6.92-4.439,10.714c-0.133,0.596-0.663,1.019-1.275,1.019h-7.181v13.414h7.181c0.612,0,1.139,0.425,1.275,1.019
	c0.852,3.796,2.348,7.401,4.439,10.716c0.328,0.515,0.251,1.188-0.182,1.62l-5.087,5.066l9.505,9.485l5.064-5.074
	c0.433-0.43,1.106-0.504,1.62-0.182c3.295,2.076,6.902,3.571,10.719,4.449c0.591,0.136,1.014,0.663,1.014,1.275v7.165H96.868z
	 M103.57,186.44c-11.121,0-20.168-9.044-20.168-20.16c0-11.113,9.047-20.157,20.168-20.157c11.121,0,20.165,9.044,20.165,20.157
	C123.735,177.396,114.688,186.44,103.57,186.44z M103.57,148.734c-9.679,0-17.556,7.869-17.556,17.546
	c0,9.677,7.877,17.549,17.556,17.549s17.554-7.872,17.554-17.549C121.121,156.604,113.247,148.734,103.57,148.734z"/>
<g>
</g>
<g>
</g>
<g>
</g>
<g>
</g>
<g>
</g>
<g>
</g>
<g>
</g>
<g>
</g>
<g>
</g>
<g>
</g>
<g>
</g>
<g>
</g>
<g>
</g>
<g>
</g>
<g>
</g>
</svg>
